<?xml version="1.0" encoding="UTF-8"?>
<!DOCTYPE svg PUBLIC "-//W3C//DTD SVG 1.1//EN" "http://www.w3.org/Graphics/SVG/1.1/DTD/svg11.dtd">
<!-- Creator: CorelDRAW X5 -->
<svg xmlns="http://www.w3.org/2000/svg" xml:space="preserve" width="300mm" height="200mm" style="shape-rendering:geometricPrecision; text-rendering:geometricPrecision; image-rendering:optimizeQuality; fill-rule:evenodd; clip-rule:evenodd"
viewBox="0 0 300 200"
 xmlns:xlink="http://www.w3.org/1999/xlink">
 <defs>
  <style type="text/css">
   <![CDATA[
    .str1 {stroke:#E31E24;stroke-width:0.0762;stroke-linejoin:bevel}
    .str0 {stroke:black;stroke-width:0.0762;stroke-linejoin:bevel}
    .fil0 {fill:none}
   ]]>
  </style>
 </defs>
 <g id="Default">
  <metadata id="CorelCorpID_0Corel-Layer"/>
  <path class="fil0 str0" d="M205 29.7439c-1.4291,0 -2.7496,0.7624 -3.4642,2 -0.7145,1.2376 -0.7145,2.7624 0,4 0.7146,1.2376 2.0351,2 3.4642,2"/>
  <line class="fil0 str0" x1="205" y1="37.7439" x2="227.254" y2= "37.7439" />
  <path class="fil0 str0" d="M238.75 33.7439c0,-2.071 -1.679,-3.75 -3.75,-3.75 -2.0711,0 -3.75,1.6789 -3.75,3.75 -0.0001,2.0711 1.6789,3.75 3.7499,3.75 2.0711,0 3.75,-1.6789 3.75,-3.75z"/>
  <path class="fil0 str0" d="M206.3 33.7439c0,-0.718 -0.5821,-1.3 -1.3,-1.3 -0.718,0 -1.3,0.582 -1.3,1.3 -0.0001,0.718 0.582,1.3 1.2999,1.3 0.718,0 1.3,-0.582 1.3,-1.3z"/>
  <path class="fil0 str0" d="M232.095 38.9939c2.5237,1.3963 5.6839,0.7994 7.5244,-1.4213 1.8405,-2.2207 1.8405,-5.4367 0,-7.6574 -1.8405,-2.2207 -5.0006,-2.8176 -7.5244,-1.4213"/>
  <path class="fil0 str0" d="M232.095 38.9939c-1.4818,-0.8199 -3.1477,-1.25 -4.8412,-1.25"/>
  <line class="fil0 str0" x1="227.254" y1="29.7439" x2="205" y2= "29.7439" />
  <path class="fil0 str0" d="M227.254 29.7439c1.6935,0 3.3594,-0.4301 4.8412,-1.25"/>
  <line class="fil0 str0" x1="220" y1="34.7439" x2="225" y2= "34.7439" />
  <path class="fil0 str0" d="M220 32.7439c-0.3573,0 -0.6874,0.1906 -0.8661,0.5 -0.1786,0.3094 -0.1786,0.6906 0,1 0.1787,0.3094 0.5088,0.5 0.8661,0.5"/>
  <line class="fil0 str0" x1="225" y1="32.7439" x2="220" y2= "32.7439" />
  <path class="fil0 str0" d="M225 34.7439c0.5522,0 0.9999,-0.4477 0.9999,-1 0.0001,-0.5523 -0.4477,-1 -0.9999,-1"/>
  <line class="fil0 str0" x1="272.753" y1="18.0001" x2="198.46" y2= "18.0001" />
  <path class="fil0 str0" d="M272.832 25.9993c2.1934,-0.0431 3.9427,-1.8448 3.9212,-4.0385 -0.0215,-2.1937 -1.806,-3.9607 -3.9998,-3.9607"/>
  <path class="fil0 str0" d="M194.307 22.7858c0,-0.856 -0.694,-1.55 -1.55,-1.55 -0.8561,0 -1.55,0.694 -1.55,1.55 0,0.8561 0.6939,1.55 1.55,1.55 0.856,0 1.55,-0.6939 1.55,-1.55z"/>
  <path class="fil0 str1" d="M274.253 22.0001c0,-0.8285 -0.6715,-1.5 -1.5,-1.5 -0.8285,-0.0001 -1.5,0.6715 -1.5,1.4999 0,0.8284 0.6715,1.5 1.5,1.5001 0.8285,0 1.5,-0.6717 1.5,-1.5z"/>
  <line class="fil0 str0" x1="198.553" y1="27.4587" x2="272.832" y2= "25.9993" />
  <path class="fil0 str0" d="M198.553 27.4587c-1.1227,0.022 -2.2282,0.2802 -3.2445,0.7577"/>
  <path class="fil0 str0" d="M195.201 17.3062c-2.53,-1.1285 -5.5037,-0.3781 -7.1955,1.8156 -1.6917,2.1938 -1.6616,5.2606 0.0729,7.4207 1.7345,2.1601 4.7224,2.8518 7.2298,1.6739"/>
  <path class="fil0 str0" d="M195.201 17.3062c1.0255,0.4574 2.1359,0.6939 3.2588,0.6939"/>
  <line class="fil0 str0" x1="291" y1="15.526" x2="217.255" y2= "15.526" />
  <path class="fil0 str0" d="M291 15.526c2.1988,0 3.9854,-1.7748 3.9999,-3.9736 0.0144,-2.1989 -1.7486,-3.9971 -3.9473,-4.026"/>
  <line class="fil0 str0" x1="175.964" y1="6.7701" x2="204.781" y2= "6.4958" />
  <path class="fil0 str0" d="M175.964 6.7701c-2.184,0.0208 -3.9475,1.7895 -3.9619,3.9735 -0.0143,2.184 1.7258,3.9758 3.9093,4.0253"/>
  <path class="fil0 str0" d="M212.552 11.0001c0,-0.8561 -0.694,-1.55 -1.55,-1.55 -0.8561,-0.0001 -1.55,0.6939 -1.55,1.5499 0,0.8561 0.6939,1.55 1.55,1.5501 0.856,0 1.55,-0.694 1.55,-1.55z"/>
  <path class="fil0 str0" d="M177.302 10.7699c0,-0.7179 -0.582,-1.3 -1.3,-1.3 -0.7179,0 -1.3,0.5821 -1.3,1.3 0,0.718 0.5821,1.3 1.3,1.3 0.718,0 1.3,-0.582 1.3,-1.3z"/>
  <path class="fil0 str0" d="M292.5 11.526c0,-0.8284 -0.6716,-1.5 -1.5,-1.5 -0.8285,0 -1.5,0.6716 -1.5,1.5 -0.0001,0.8285 0.6715,1.5 1.4999,1.5 0.8285,0 1.5,-0.6715 1.5,-1.4999z"/>
  <line class="fil0 str0" x1="217.314" y1="6.5567" x2="291.053" y2= "7.5264" />
  <path class="fil0 str0" d="M213.752 5.6675c1.1022,0.5684 2.3216,0.8729 3.5617,0.8892"/>
  <line class="fil0 str0" x1="204.722" y1="15.4221" x2="175.912" y2= "14.7689" />
  <path class="fil0 str0" d="M208.233 16.3229c-1.0858,-0.5649 -2.2869,-0.873 -3.5106,-0.9008"/>
  <path class="fil0 str0" d="M208.233 16.3229c1.7043,0.8866 3.73,0.9035 5.4488,0.0454"/>
  <path class="fil0 str0" d="M217.255 15.526c-1.2402,0 -2.4634,0.2884 -3.5731,0.8423"/>
  <path class="fil0 str0" d="M213.752 5.6675c-1.7074,-0.8806 -3.7332,-0.8903 -5.4489,-0.0263"/>
  <path class="fil0 str0" d="M204.781 6.4958c1.224,-0.0117 2.429,-0.304 3.5222,-0.8546"/>
  <path class="fil0 str0" d="M158.659 7.3845c-0.8631,-1.9549 -3.1103,-2.8861 -5.1031,-2.1148 -1.9929,0.7714 -3.0275,2.973 -2.3495,4.9995"/>
  <path class="fil0 str0" d="M151.207 53.9851c4.7462,-14.1854 4.7462,-29.5301 0.0002,-43.7155"/>
  <path class="fil0 str0" d="M151.207 53.9851c-0.4863,1.4536 -0.0992,3.0573 0.9967,4.129 1.0959,1.0717 2.7079,1.4228 4.1503,0.9041 1.4424,-0.5187 2.4615,-1.8161 2.6238,-3.3403"/>
  <path class="fil0 str0" d="M175.061 21.9813c-9.0508,9.0667 -14.7263,20.9577 -16.0834,33.6966"/>
  <path class="fil0 str0" d="M175.061 21.9813c1.1889,-1.191 1.5052,-2.9988 0.7913,-4.5227 -0.7138,-1.524 -2.3052,-2.4381 -3.9812,-2.2871"/>
  <path class="fil0 str0" d="M158.659 7.3845c2.2782,5.1604 7.5935,8.2933 13.2117,7.787"/>
  <path class="fil0 str0" d="M173.73 19.1553c0,-0.8284 -0.6716,-1.5 -1.5,-1.5 -0.8285,0 -1.5,0.6716 -1.5,1.5 0,0.8285 0.6715,1.5 1.5,1.5 0.8284,0 1.5,-0.6715 1.5,-1.5z"/>
  <path class="fil0 str0" d="M156.3 55.2542c0,-0.7179 -0.5821,-1.3 -1.3,-1.3 -0.718,0 -1.3,0.5821 -1.3,1.3 -0.0001,0.718 0.582,1.3 1.2999,1.3 0.718,0 1.3,-0.582 1.3,-1.3z"/>
  <path class="fil0 str0" d="M156.3 9.0001c0,-0.718 -0.5821,-1.3 -1.3,-1.3 -0.718,-0.0001 -1.3,0.582 -1.3,1.2999 -0.0001,0.718 0.582,1.3 1.2999,1.3001 0.718,0 1.3,-0.5821 1.3,-1.3z"/>
  <line class="fil0 str0" x1="228.534" y1="145.661" x2="230.655" y2= "147.783" />
  <line class="fil0 str0" x1="224.291" y1="149.904" x2="228.534" y2= "145.661" />
  <line class="fil0 str0" x1="241.262" y1="132.933" x2="239.565" y2= "131.236" />
  <line class="fil0 str0" x1="237.019" y1="137.176" x2="239.141" y2= "139.297" />
  <line class="fil0 str0" x1="241.262" y1="132.933" x2="237.019" y2= "137.176" />
  <line class="fil0 str0" x1="222.594" y1="148.207" x2="224.291" y2= "149.904" />
  <line class="fil0 str0" x1="226.837" y1="143.964" x2="224.716" y2= "141.843" />
  <line class="fil0 str0" x1="222.594" y1="148.207" x2="226.837" y2= "143.964" />
  <line class="fil0 str0" x1="233.201" y1="133.358" x2="224.716" y2= "141.843" />
  <line class="fil0 str0" x1="239.565" y1="131.236" x2="235.322" y2= "135.479" />
  <line class="fil0 str0" x1="235.322" y1="135.479" x2="233.201" y2= "133.358" />
  <path class="fil0 str0" d="M233.228 140.57c0,-0.718 -0.5821,-1.3 -1.3,-1.3 -0.718,0 -1.3,0.582 -1.3,1.3 0,0.7179 0.582,1.3 1.3,1.3 0.7179,0 1.3,-0.5821 1.3,-1.3z"/>
  <path class="fil0 str0" d="M232.858 148.373c-0.1217,-0.4544 -0.4766,-0.8093 -0.931,-0.931 -0.4543,-0.1218 -0.9391,0.0081 -1.2717,0.3408"/>
  <path class="fil0 str0" d="M239.141 139.297c-1.7267,1.7266 -2.401,4.2432 -1.769,6.6019"/>
  <line class="fil0 str0" x1="237.372" y1="145.899" x2="240.541" y2= "157.725" />
  <path class="fil0 str0" d="M240.541 157.725c0.0348,0.1298 0.0826,0.2557 0.1426,0.3759"/>
  <path class="fil0 str0" d="M234.211 157.127c-1.4022,1.4696 -1.4803,3.7568 -0.1816,5.3186 1.2986,1.5618 3.5616,1.9024 5.2624,0.7919 1.7008,-1.1104 2.2993,-3.3193 1.3918,-5.1365"/>
  <path class="fil0 str0" d="M234.211 157.127c0.4816,-0.5049 0.6654,-1.2243 0.4848,-1.8982"/>
  <path class="fil0 str0" d="M238.404 159.888c0,-0.718 -0.582,-1.3 -1.2999,-1.3 -0.718,0 -1.3,0.582 -1.3001,1.3 0,0.7179 0.5821,1.3 1.3,1.3 0.718,0 1.3,-0.582 1.3,-1.3z"/>
  <line class="fil0 str0" x1="234.695" y1="155.229" x2="232.858" y2= "148.373" />
  <line class="fil0 str0" x1="257.525" y1="126.569" x2="249.04" y2= "135.055" />
  <line class="fil0 str0" x1="257.525" y1="126.569" x2="255.404" y2= "124.448" />
  <line class="fil0 str0" x1="255.404" y1="124.448" x2="259.647" y2= "120.205" />
  <line class="fil0 str0" x1="242.676" y1="137.176" x2="240.979" y2= "135.479" />
  <line class="fil0 str0" x1="249.04" y1="135.055" x2="246.919" y2= "132.933" />
  <line class="fil0 str0" x1="246.919" y1="132.933" x2="242.676" y2= "137.176" />
  <line class="fil0 str0" x1="257.95" y1="118.508" x2="259.647" y2= "120.205" />
  <line class="fil0 str0" x1="251.586" y1="120.63" x2="253.707" y2= "122.751" />
  <line class="fil0 str0" x1="253.707" y1="122.751" x2="257.95" y2= "118.508" />
  <line class="fil0 str0" x1="243.101" y1="129.115" x2="251.586" y2= "120.63" />
  <line class="fil0 str0" x1="245.222" y1="131.236" x2="240.979" y2= "135.479" />
  <line class="fil0 str0" x1="243.101" y1="129.115" x2="245.222" y2= "131.236" />
  <path class="fil0 str0" d="M251.613 127.842c0,-0.7179 -0.582,-1.3 -1.3,-1.3 -0.7179,0 -1.3,0.5821 -1.3,1.3 0,0.718 0.5821,1.3 1.3,1.3 0.718,0 1.3,-0.582 1.3,-1.3z"/>
  <line class="fil0 str0" x1="177" y1="83.0001" x2="177" y2= "77.0001" />
  <line class="fil0 str0" x1="177" y1="77.0001" x2="180" y2= "77.0001" />
  <line class="fil0 str0" x1="180" y1="77.0001" x2="180" y2= "83.0001" />
  <line class="fil0 str0" x1="180" y1="83.0001" x2="177" y2= "83.0001" />
  <line class="fil0 str0" x1="177" y1="96.0001" x2="177" y2= "90.0001" />
  <line class="fil0 str0" x1="177" y1="90.0001" x2="180" y2= "90.0001" />
  <line class="fil0 str0" x1="180" y1="90.0001" x2="180" y2= "96.0001" />
  <line class="fil0 str0" x1="180" y1="96.0001" x2="177" y2= "96.0001" />
  <line class="fil0 str0" x1="181.5" y1="96.0001" x2="181.5" y2= "93.0001" />
  <line class="fil0 str0" x1="181.5" y1="93.0001" x2="191.5" y2= "93.0001" />
  <line class="fil0 str0" x1="191.5" y1="93.0001" x2="191.5" y2= "96.0001" />
  <line class="fil0 str0" x1="191.5" y1="96.0001" x2="181.5" y2= "96.0001" />
  <line class="fil0 str0" x1="228" y1="77.0001" x2="231" y2= "77.0001" />
  <line class="fil0 str0" x1="231" y1="77.0001" x2="231" y2= "83.0001" />
  <line class="fil0 str0" x1="231" y1="83.0001" x2="228" y2= "83.0001" />
  <line class="fil0 str0" x1="228" y1="83.0001" x2="228" y2= "77.0001" />
  <line class="fil0 str0" x1="228" y1="90.0001" x2="231" y2= "90.0001" />
  <line class="fil0 str0" x1="231" y1="90.0001" x2="231" y2= "96.0001" />
  <line class="fil0 str0" x1="231" y1="96.0001" x2="228" y2= "96.0001" />
  <line class="fil0 str0" x1="228" y1="96.0001" x2="228" y2= "90.0001" />
  <line class="fil0 str0" x1="216.5" y1="93.0001" x2="226.5" y2= "93.0001" />
  <line class="fil0 str0" x1="226.5" y1="93.0001" x2="226.5" y2= "96.0001" />
  <line class="fil0 str0" x1="226.5" y1="96.0001" x2="216.5" y2= "96.0001" />
  <line class="fil0 str0" x1="216.5" y1="96.0001" x2="216.5" y2= "93.0001" />
  <line class="fil0 str0" x1="206" y1="60.0001" x2="206" y2= "72.0001" />
  <line class="fil0 str0" x1="206" y1="72.0001" x2="183" y2= "72.0001" />
  <line class="fil0 str0" x1="183" y1="72.0001" x2="183" y2= "60.0001" />
  <line class="fil0 str0" x1="183" y1="60.0001" x2="206" y2= "60.0001" />
  <path class="fil0 str0" d="M195.8 56.5001c0,-0.718 -0.5821,-1.3 -1.3,-1.3 -0.718,-0.0001 -1.3,0.582 -1.3,1.2999 -0.0001,0.718 0.582,1.3 1.2999,1.3001 0.718,0 1.3,-0.5821 1.3,-1.3z"/>
  <path class="fil0 str0" d="M195.8 75.5001c0,-0.718 -0.5821,-1.3 -1.3,-1.3 -0.718,-0.0001 -1.3,0.582 -1.3,1.2999 -0.0001,0.718 0.582,1.3 1.2999,1.3001 0.718,0 1.3,-0.5821 1.3,-1.3z"/>
  <line class="fil0 str0" x1="234" y1="96.0001" x2="234" y2= "57.0001" />
  <path class="fil0 str0" d="M231 99.0001c1.6568,0 2.9999,-1.3432 2.9999,-3"/>
  <path class="fil0 str0" d="M234 57.0001c0,-0.5293 -0.1401,-1.0491 -0.4059,-1.5068"/>
  <line class="fil0 str0" x1="174" y1="57.0001" x2="174" y2= "96.0001" />
  <path class="fil0 str0" d="M176.455 54.0501c-1.4224,0.2629 -2.4546,1.5035 -2.4546,2.95"/>
  <line class="fil0 str0" x1="177" y1="99.0001" x2="231" y2= "99.0001" />
  <path class="fil0 str0" d="M174 96.0001c0,0.7956 0.3161,1.5587 0.8787,2.1213 0.5626,0.5626 1.3257,0.8787 2.1214,0.8787"/>
  <path class="fil0 str0" d="M228.711 47.0863c-0.8488,-1.4613 -2.5244,-2.2316 -4.1862,-1.9243"/>
  <line class="fil0 str0" x1="224.525" y1="45.162" x2="176.455" y2= "54.0501" />
  <line class="fil0 str0" x1="233.594" y1="55.4933" x2="228.711" y2= "47.0863" />
  <path class="fil0 str0" d="M226.552 49.0953c0,-0.7179 -0.5821,-1.3 -1.3,-1.3 -0.718,0 -1.3,0.582 -1.3,1.3 0,0.718 0.582,1.3 1.3,1.3 0.7179,0 1.3,-0.582 1.3,-1.3z"/>
  <path class="fil0 str0" d="M180 86.5001c0,-0.8285 -0.6716,-1.5 -1.5,-1.5 -0.8285,-0.0001 -1.5,0.6715 -1.5,1.4999 -0.0001,0.8285 0.6715,1.5 1.4999,1.5001 0.8285,0 1.5,-0.6716 1.5,-1.5z"/>
  <path class="fil0 str0" d="M231 86.5001c0,-0.8285 -0.6716,-1.5 -1.5,-1.5 -0.8285,-0.0001 -1.5,0.6715 -1.5,1.4999 -0.0001,0.8285 0.6715,1.5 1.4999,1.5001 0.8285,0 1.5,-0.6716 1.5,-1.5z"/>
  <path class="fil0 str0" d="M205.5 94.5001c0,-0.8285 -0.6716,-1.5 -1.5,-1.5 -0.8285,-0.0001 -1.5,0.6715 -1.5,1.4999 -0.0001,0.8285 0.6715,1.5 1.4999,1.5001 0.8285,0 1.5,-0.6716 1.5,-1.5z"/>
  <line class="fil0 str0" x1="238" y1="83.0001" x2="238" y2= "77.0001" />
  <line class="fil0 str0" x1="238" y1="77.0001" x2="241" y2= "77.0001" />
  <line class="fil0 str0" x1="241" y1="77.0001" x2="241" y2= "83.0001" />
  <line class="fil0 str0" x1="241" y1="83.0001" x2="238" y2= "83.0001" />
  <line class="fil0 str0" x1="238" y1="96.0001" x2="238" y2= "90.0001" />
  <line class="fil0 str0" x1="238" y1="90.0001" x2="241" y2= "90.0001" />
  <line class="fil0 str0" x1="241" y1="90.0001" x2="241" y2= "96.0001" />
  <line class="fil0 str0" x1="241" y1="96.0001" x2="238" y2= "96.0001" />
  <line class="fil0 str0" x1="242.5" y1="96.0001" x2="242.5" y2= "93.0001" />
  <line class="fil0 str0" x1="242.5" y1="93.0001" x2="252.5" y2= "93.0001" />
  <line class="fil0 str0" x1="252.5" y1="93.0001" x2="252.5" y2= "96.0001" />
  <line class="fil0 str0" x1="252.5" y1="96.0001" x2="242.5" y2= "96.0001" />
  <line class="fil0 str0" x1="289" y1="77.0001" x2="292" y2= "77.0001" />
  <line class="fil0 str0" x1="292" y1="77.0001" x2="292" y2= "83.0001" />
  <line class="fil0 str0" x1="292" y1="83.0001" x2="289" y2= "83.0001" />
  <line class="fil0 str0" x1="289" y1="83.0001" x2="289" y2= "77.0001" />
  <line class="fil0 str0" x1="289" y1="90.0001" x2="292" y2= "90.0001" />
  <line class="fil0 str0" x1="292" y1="90.0001" x2="292" y2= "96.0001" />
  <line class="fil0 str0" x1="292" y1="96.0001" x2="289" y2= "96.0001" />
  <line class="fil0 str0" x1="289" y1="96.0001" x2="289" y2= "90.0001" />
  <line class="fil0 str0" x1="277.5" y1="93.0001" x2="287.5" y2= "93.0001" />
  <line class="fil0 str0" x1="287.5" y1="93.0001" x2="287.5" y2= "96.0001" />
  <line class="fil0 str0" x1="287.5" y1="96.0001" x2="277.5" y2= "96.0001" />
  <line class="fil0 str0" x1="277.5" y1="96.0001" x2="277.5" y2= "93.0001" />
  <path class="fil0 str0" d="M256.8 56.5001c0,-0.718 -0.5821,-1.3 -1.3,-1.3 -0.718,-0.0001 -1.3,0.582 -1.3,1.2999 -0.0001,0.718 0.582,1.3 1.2999,1.3001 0.718,0 1.3,-0.5821 1.3,-1.3z"/>
  <path class="fil0 str0" d="M256.8 75.5001c0,-0.718 -0.5821,-1.3 -1.3,-1.3 -0.718,-0.0001 -1.3,0.582 -1.3,1.2999 -0.0001,0.718 0.582,1.3 1.2999,1.3001 0.718,0 1.3,-0.5821 1.3,-1.3z"/>
  <line class="fil0 str0" x1="267" y1="60.0001" x2="267" y2= "72.0001" />
  <line class="fil0 str0" x1="267" y1="72.0001" x2="244" y2= "72.0001" />
  <line class="fil0 str0" x1="244" y1="72.0001" x2="244" y2= "60.0001" />
  <line class="fil0 str0" x1="244" y1="60.0001" x2="267" y2= "60.0001" />
  <line class="fil0 str0" x1="295" y1="96.0001" x2="295" y2= "57.0001" />
  <path class="fil0 str0" d="M292 99.0001c1.6568,0 2.9999,-1.3432 2.9999,-3"/>
  <line class="fil0 str0" x1="292" y1="54.0001" x2="238" y2= "54.0001" />
  <path class="fil0 str0" d="M295 57.0001c0,-0.7957 -0.3161,-1.5588 -0.8787,-2.1214 -0.5626,-0.5626 -1.3257,-0.8786 -2.1213,-0.8786"/>
  <line class="fil0 str0" x1="235" y1="57.0001" x2="235" y2= "96.0001" />
  <path class="fil0 str0" d="M238 54.0001c-0.7957,0 -1.5588,0.316 -2.1214,0.8786 -0.5626,0.5626 -0.8786,1.3257 -0.8786,2.1214"/>
  <line class="fil0 str0" x1="238" y1="99.0001" x2="292" y2= "99.0001" />
  <path class="fil0 str0" d="M235 96.0001c0,0.7956 0.316,1.5587 0.8786,2.1213 0.5626,0.5626 1.3257,0.8787 2.1214,0.8787"/>
  <path class="fil0 str0" d="M241 86.5001c0,-0.8285 -0.6716,-1.5 -1.5,-1.5 -0.8285,-0.0001 -1.5,0.6715 -1.5,1.4999 -0.0001,0.8285 0.6715,1.5 1.4999,1.5001 0.8285,0 1.5,-0.6716 1.5,-1.5z"/>
  <path class="fil0 str0" d="M292 86.5001c0,-0.8285 -0.6716,-1.5 -1.5,-1.5 -0.8285,-0.0001 -1.5,0.6715 -1.5,1.4999 -0.0001,0.8285 0.6715,1.5 1.4999,1.5001 0.8285,0 1.5,-0.6716 1.5,-1.5z"/>
  <path class="fil0 str0" d="M266.5 94.5001c0,-0.8285 -0.6716,-1.5 -1.5,-1.5 -0.8285,-0.0001 -1.5,0.6715 -1.5,1.4999 -0.0001,0.8285 0.6715,1.5 1.4999,1.5001 0.8285,0 1.5,-0.6716 1.5,-1.5z"/>
  <line class="fil0 str0" x1="244" y1="37.0001" x2="244" y2= "41.5001" />
  <line class="fil0 str0" x1="244" y1="41.5001" x2="241" y2= "41.5001" />
  <line class="fil0 str0" x1="241" y1="51.5001" x2="241" y2= "41.5001" />
  <line class="fil0 str0" x1="244" y1="53.0001" x2="244" y2= "51.5001" />
  <line class="fil0 str0" x1="244" y1="51.5001" x2="241" y2= "51.5001" />
  <line class="fil0 str0" x1="292" y1="53.0001" x2="288.25" y2= "53.0001" />
  <line class="fil0 str0" x1="292" y1="51.5001" x2="295" y2= "51.5001" />
  <line class="fil0 str0" x1="292" y1="53.0001" x2="292" y2= "51.5001" />
  <line class="fil0 str0" x1="295" y1="41.5001" x2="295" y2= "51.5001" />
  <line class="fil0 str0" x1="292" y1="37.0001" x2="292" y2= "41.5001" />
  <line class="fil0 str0" x1="292" y1="41.5001" x2="295" y2= "41.5001" />
  <line class="fil0 str0" x1="252.5" y1="53.0001" x2="250.75" y2= "53.0001" />
  <line class="fil0 str0" x1="252.5" y1="51.7501" x2="252.5" y2= "53.0001" />
  <line class="fil0 str0" x1="283.5" y1="53.0001" x2="283.5" y2= "51.7501" />
  <line class="fil0 str0" x1="283.5" y1="51.7501" x2="280.5" y2= "51.7501" />
  <line class="fil0 str0" x1="280.5" y1="51.7501" x2="280.5" y2= "50.5001" />
  <line class="fil0 str0" x1="280.5" y1="50.5001" x2="275.5" y2= "50.5001" />
  <line class="fil0 str0" x1="275.5" y1="50.5001" x2="275.5" y2= "48.0001" />
  <line class="fil0 str0" x1="275.5" y1="48.0001" x2="260.5" y2= "48.0001" />
  <line class="fil0 str0" x1="260.5" y1="48.0001" x2="260.5" y2= "50.5001" />
  <line class="fil0 str0" x1="260.5" y1="50.5001" x2="255.5" y2= "50.5001" />
  <line class="fil0 str0" x1="255.5" y1="50.5001" x2="255.5" y2= "51.7501" />
  <line class="fil0 str0" x1="255.5" y1="51.7501" x2="252.5" y2= "51.7501" />
  <path class="fil0 str0" d="M269.737 30.1039c3.456,-0.9261 6.3185,-3.3459 7.8068,-6.5996"/>
  <line class="fil0 str0" x1="269.737" y1="30.1039" x2="244" y2= "37.0001" />
  <line class="fil0 str0" x1="292" y1="37.0001" x2="288.814" y2= "24.5162" />
  <path class="fil0 str0" d="M288.814 24.5162c-0.6291,-2.4646 -2.7437,-4.2646 -5.2771,-4.4921 -2.5333,-0.2275 -4.9348,1.1671 -5.9928,3.4802"/>
  <path class="fil0 str0" d="M284.5 26.0001c0,-0.8285 -0.6716,-1.5 -1.5,-1.5 -0.8285,-0.0001 -1.5,0.6715 -1.5,1.4999 -0.0001,0.8285 0.6715,1.5 1.4999,1.5001 0.8285,0 1.5,-0.6716 1.5,-1.5z"/>
  <line class="fil0 str0" x1="285.25" y1="53.0001" x2="283.5" y2= "53.0001" />
  <line class="fil0 str0" x1="289.5" y1="46.5001" x2="288.25" y2= "46.5001" />
  <line class="fil0 str0" x1="289.5" y1="49.0001" x2="289.5" y2= "46.5001" />
  <line class="fil0 str0" x1="288.25" y1="49.0001" x2="289.5" y2= "49.0001" />
  <line class="fil0 str0" x1="288.25" y1="46.5001" x2="288.25" y2= "43.0001" />
  <line class="fil0 str0" x1="288.25" y1="43.0001" x2="285.25" y2= "43.0001" />
  <line class="fil0 str0" x1="285.25" y1="43.0001" x2="285.25" y2= "46.5001" />
  <line class="fil0 str0" x1="285.25" y1="46.5001" x2="284" y2= "46.5001" />
  <line class="fil0 str0" x1="284" y1="46.5001" x2="284" y2= "49.0001" />
  <line class="fil0 str0" x1="284" y1="49.0001" x2="285.25" y2= "49.0001" />
  <line class="fil0 str0" x1="285.25" y1="49.0001" x2="285.25" y2= "53.0001" />
  <line class="fil0 str0" x1="288.25" y1="53.0001" x2="288.25" y2= "49.0001" />
  <line class="fil0 str0" x1="247.75" y1="53.0001" x2="244" y2= "53.0001" />
  <line class="fil0 str0" x1="246.5" y1="46.5001" x2="247.75" y2= "46.5001" />
  <line class="fil0 str0" x1="246.5" y1="49.0001" x2="246.5" y2= "46.5001" />
  <line class="fil0 str0" x1="247.75" y1="49.0001" x2="246.5" y2= "49.0001" />
  <line class="fil0 str0" x1="247.75" y1="46.5001" x2="247.75" y2= "43.0001" />
  <line class="fil0 str0" x1="247.75" y1="43.0001" x2="250.75" y2= "43.0001" />
  <line class="fil0 str0" x1="250.75" y1="43.0001" x2="250.75" y2= "46.5001" />
  <line class="fil0 str0" x1="250.75" y1="46.5001" x2="252" y2= "46.5001" />
  <line class="fil0 str0" x1="252" y1="46.5001" x2="252" y2= "49.0001" />
  <line class="fil0 str0" x1="252" y1="49.0001" x2="250.75" y2= "49.0001" />
  <line class="fil0 str0" x1="250.75" y1="49.0001" x2="250.75" y2= "53.0001" />
  <line class="fil0 str0" x1="247.75" y1="53.0001" x2="247.75" y2= "49.0001" />
  <line class="fil0 str0" x1="285" y1="100" x2="160" y2= "100" />
  <path class="fil0 str0" d="M295 110c0,-2.6522 -1.0535,-5.1958 -2.9289,-7.0711 -1.8753,-1.8754 -4.4189,-2.9289 -7.071,-2.9289"/>
  <line class="fil0 str0" x1="150" y1="110" x2="150" y2= "185" />
  <path class="fil0 str0" d="M160 100c-2.6522,0 -5.1958,1.0535 -7.0711,2.9289 -1.8754,1.8753 -2.9289,4.4189 -2.9289,7.0711"/>
  <line class="fil0 str0" x1="160" y1="195" x2="285" y2= "195" />
  <path class="fil0 str0" d="M150 185c0,2.6521 1.0535,5.1957 2.9289,7.071 1.8753,1.8754 4.4189,2.929 7.071,2.929"/>
  <line class="fil0 str0" x1="295" y1="185" x2="295" y2= "110" />
  <path class="fil0 str0" d="M285 195c5.5228,0 9.9999,-4.4772 9.9999,-10"/>
  <path class="fil0 str0" d="M276.55 125.5c0,-0.8561 -0.694,-1.55 -1.55,-1.55 -0.8561,-0.0001 -1.55,0.6939 -1.55,1.5499 -0.0001,0.8561 0.6939,1.55 1.5499,1.5501 0.8561,0 1.55,-0.694 1.55,-1.55z"/>
  <path class="fil0 str0" d="M276.55 169.5c0,-0.8561 -0.694,-1.55 -1.55,-1.55 -0.8561,-0.0001 -1.55,0.6939 -1.55,1.5499 -0.0001,0.8561 0.6939,1.55 1.5499,1.5501 0.8561,0 1.55,-0.694 1.55,-1.55z"/>
  <path class="fil0 str0" d="M232.55 169.5c0,-0.8561 -0.694,-1.55 -1.55,-1.55 -0.8561,-0.0001 -1.55,0.6939 -1.55,1.5499 -0.0001,0.8561 0.6939,1.55 1.5499,1.5501 0.8561,0 1.55,-0.694 1.55,-1.55z"/>
  <path class="fil0 str0" d="M232.55 125.5c0,-0.8561 -0.694,-1.55 -1.55,-1.55 -0.8561,-0.0001 -1.55,0.6939 -1.55,1.5499 -0.0001,0.8561 0.6939,1.55 1.5499,1.5501 0.8561,0 1.55,-0.694 1.55,-1.55z"/>
  <path class="fil0 str0" d="M194.8 179.3c0,-0.718 -0.5821,-1.3 -1.3,-1.3 -0.718,-0.0001 -1.3,0.582 -1.3,1.2999 -0.0001,0.718 0.582,1.3 1.2999,1.3001 0.718,0 1.3,-0.5821 1.3,-1.3z"/>
  <path class="fil0 str0" d="M166.9 179.3c0,-0.718 -0.5821,-1.3 -1.3,-1.3 -0.718,-0.0001 -1.3,0.582 -1.3,1.2999 -0.0001,0.718 0.582,1.3 1.2999,1.3001 0.718,0 1.3,-0.5821 1.3,-1.3z"/>
  <path class="fil0 str0" d="M161.8 127.2c0,-0.718 -0.5821,-1.3 -1.3,-1.3 -0.718,-0.0001 -1.3,0.582 -1.3,1.2999 -0.0001,0.718 0.582,1.3 1.2999,1.3001 0.718,0 1.3,-0.5821 1.3,-1.3z"/>
  <path class="fil0 str0" d="M210 128.5c0,-0.718 -0.5821,-1.3 -1.3,-1.3 -0.718,-0.0001 -1.3,0.582 -1.3,1.2999 -0.0001,0.718 0.582,1.3 1.2999,1.3001 0.718,0 1.3,-0.5821 1.3,-1.3z"/>
  <line class="fil0 str0" x1="250.879" y1="114.266" x2="219.766" y2= "145.378" />
  <path class="fil0 str0" d="M255.121 114.266c-0.5626,-0.5626 -1.3257,-0.8787 -2.1213,-0.8787 -0.7957,0 -1.5588,0.3161 -2.1214,0.8787"/>
  <line class="fil0 str0" x1="255.121" y1="180.734" x2="286.234" y2= "149.621" />
  <path class="fil0 str0" d="M250.879 180.734c0.5626,0.5626 1.3257,0.8787 2.1214,0.8787 0.7956,0 1.5587,-0.3161 2.1213,-0.8787"/>
  <line class="fil0 str0" x1="286.234" y1="145.378" x2="255.121" y2= "114.266" />
  <path class="fil0 str0" d="M286.234 149.621c1.1715,-1.1715 1.1715,-3.071 0,-4.2426"/>
  <line class="fil0 str0" x1="219.766" y1="149.621" x2="250.879" y2= "180.734" />
  <path class="fil0 str0" d="M219.766 145.378c-0.5626,0.5626 -0.8786,1.3257 -0.8786,2.1213 0,0.7957 0.316,1.5587 0.8786,2.1213"/>
  <line class="fil0 str0" x1="55" y1="150" x2="5" y2= "150" />
  <line class="fil0 str0" x1="55" y1="195" x2="55" y2= "185" />
  <line class="fil0 str0" x1="5" y1="195" x2="55" y2= "195" />
  <line class="fil0 str0" x1="5" y1="150" x2="5" y2= "160" />
  <path class="fil0 str0" d="M33.75 172.5c0,-2.0711 -1.6789,-3.75 -3.7499,-3.75 -2.0711,-0.0001 -3.75,1.6789 -3.75,3.7499 -0.0001,2.0711 1.6789,3.75 3.7499,3.7501 2.0711,0 3.75,-1.679 3.75,-3.75z"/>
  <line class="fil0 str0" x1="5" y1="185" x2="5" y2= "195" />
  <line class="fil0 str0" x1="8" y1="160" x2="8" y2= "171" />
  <line class="fil0 str0" x1="8" y1="185" x2="5" y2= "185" />
  <line class="fil0 str0" x1="5" y1="160" x2="8" y2= "160" />
  <line class="fil0 str0" x1="55" y1="160" x2="55" y2= "150" />
  <line class="fil0 str0" x1="52" y1="160" x2="52" y2= "171" />
  <line class="fil0 str0" x1="52" y1="185" x2="55" y2= "185" />
  <line class="fil0 str0" x1="55" y1="160" x2="52" y2= "160" />
  <path class="fil0 str0" d="M34.5 153.75c0,-0.8285 -0.6715,-1.5 -1.4999,-1.5 -0.8285,-0.0001 -1.5,0.6715 -1.5,1.4999 -0.0001,0.8285 0.6715,1.5 1.4999,1.5001 0.8285,0 1.5,-0.6716 1.5,-1.5z"/>
  <path class="fil0 str0" d="M34.5 191.25c0,-0.8285 -0.6715,-1.5 -1.4999,-1.5 -0.8285,-0.0001 -1.5,0.6715 -1.5,1.4999 -0.0001,0.8285 0.6715,1.5 1.4999,1.5001 0.8285,0 1.5,-0.6716 1.5,-1.5z"/>
  <line class="fil0 str0" x1="8" y1="174" x2="8" y2= "185" />
  <line class="fil0 str0" x1="14.5" y1="174" x2="18" y2= "174" />
  <line class="fil0 str0" x1="18" y1="174" x2="18" y2= "171" />
  <line class="fil0 str0" x1="18" y1="171" x2="14.5" y2= "171" />
  <line class="fil0 str0" x1="14.5" y1="171" x2="14.5" y2= "169.75" />
  <line class="fil0 str0" x1="14.5" y1="169.75" x2="12" y2= "169.75" />
  <line class="fil0 str0" x1="12" y1="169.75" x2="12" y2= "171" />
  <line class="fil0 str0" x1="12" y1="171" x2="8" y2= "171" />
  <line class="fil0 str0" x1="8" y1="174" x2="12" y2= "174" />
  <line class="fil0 str0" x1="12" y1="174" x2="12" y2= "175.25" />
  <line class="fil0 str0" x1="12" y1="175.25" x2="14.5" y2= "175.25" />
  <line class="fil0 str0" x1="14.5" y1="175.25" x2="14.5" y2= "174" />
  <line class="fil0 str0" x1="52" y1="174" x2="52" y2= "185" />
  <line class="fil0 str0" x1="45.5" y1="174" x2="42" y2= "174" />
  <line class="fil0 str0" x1="42" y1="174" x2="42" y2= "171" />
  <line class="fil0 str0" x1="42" y1="171" x2="45.5" y2= "171" />
  <line class="fil0 str0" x1="45.5" y1="171" x2="45.5" y2= "169.75" />
  <line class="fil0 str0" x1="45.5" y1="169.75" x2="48" y2= "169.75" />
  <line class="fil0 str0" x1="48" y1="169.75" x2="48" y2= "171" />
  <line class="fil0 str0" x1="48" y1="171" x2="52" y2= "171" />
  <line class="fil0 str0" x1="52" y1="174" x2="48" y2= "174" />
  <line class="fil0 str0" x1="48" y1="174" x2="48" y2= "175.25" />
  <line class="fil0 str0" x1="48" y1="175.25" x2="45.5" y2= "175.25" />
  <line class="fil0 str0" x1="45.5" y1="175.25" x2="45.5" y2= "174" />
  <path class="fil0 str0" d="M31.4264 183.5c0,-0.7878 -0.6386,-1.4264 -1.4263,-1.4264 -0.7878,0 -1.4264,0.6386 -1.4264,1.4263 0,0.7878 0.6386,1.4264 1.4263,1.4264 0.7878,0 1.4264,-0.6386 1.4264,-1.4263z"/>
  <path class="fil0 str0" d="M24.5333 172.5c0,-0.8468 -0.6865,-1.5333 -1.5332,-1.5333 -0.8468,0 -1.5333,0.6865 -1.5333,1.5332 0,0.8468 0.6865,1.5333 1.5332,1.5333 0.8468,0 1.5333,-0.6864 1.5333,-1.5332z"/>
  <path class="fil0 str0" d="M31.3532 161.5c0,-0.7474 -0.6058,-1.3532 -1.3531,-1.3532 -0.7474,0 -1.3532,0.6058 -1.3532,1.3531 0,0.7474 0.6058,1.3532 1.3531,1.3532 0.7474,0 1.3532,-0.6058 1.3532,-1.3531z"/>
  <path class="fil0 str0" d="M38.5983 172.5c0,-0.8827 -0.7156,-1.5983 -1.5982,-1.5983 -0.8827,0 -1.5983,0.7156 -1.5983,1.5982 0,0.8827 0.7156,1.5983 1.5982,1.5983 0.8827,0 1.5983,-0.7156 1.5983,-1.5982z"/>
  <line class="fil0 str0" x1="75" y1="195" x2="75" y2= "145" />
  <line class="fil0 str0" x1="56" y1="195" x2="62" y2= "195" />
  <line class="fil0 str0" x1="56" y1="145" x2="56" y2= "195" />
  <line class="fil0 str0" x1="75" y1="145" x2="69" y2= "145" />
  <line class="fil0 str0" x1="62" y1="145" x2="56" y2= "145" />
  <line class="fil0 str0" x1="69" y1="148" x2="67" y2= "148" />
  <line class="fil0 str0" x1="62" y1="148" x2="62" y2= "145" />
  <line class="fil0 str0" x1="69" y1="145" x2="69" y2= "148" />
  <line class="fil0 str0" x1="69" y1="195" x2="75" y2= "195" />
  <line class="fil0 str0" x1="69" y1="192" x2="67" y2= "192" />
  <line class="fil0 str0" x1="62" y1="192" x2="62" y2= "195" />
  <line class="fil0 str0" x1="69" y1="195" x2="69" y2= "192" />
  <line class="fil0 str0" x1="60.5" y1="165.5" x2="70.5" y2= "165.5" />
  <line class="fil0 str0" x1="70.5" y1="165.5" x2="70.5" y2= "168.5" />
  <line class="fil0 str0" x1="70.5" y1="168.5" x2="60.5" y2= "168.5" />
  <line class="fil0 str0" x1="60.5" y1="168.5" x2="60.5" y2= "165.5" />
  <line class="fil0 str0" x1="64" y1="148" x2="62" y2= "148" />
  <line class="fil0 str0" x1="64" y1="158" x2="64" y2= "154.5" />
  <line class="fil0 str0" x1="64" y1="154.5" x2="62.75" y2= "154.5" />
  <line class="fil0 str0" x1="62.75" y1="154.5" x2="62.75" y2= "152" />
  <line class="fil0 str0" x1="62.75" y1="152" x2="64" y2= "152" />
  <line class="fil0 str0" x1="67" y1="158" x2="64" y2= "158" />
  <line class="fil0 str0" x1="67" y1="154.5" x2="67" y2= "158" />
  <line class="fil0 str0" x1="68.25" y1="154.5" x2="67" y2= "154.5" />
  <line class="fil0 str0" x1="68.25" y1="152" x2="68.25" y2= "154.5" />
  <line class="fil0 str0" x1="67" y1="152" x2="68.25" y2= "152" />
  <line class="fil0 str0" x1="67" y1="148" x2="67" y2= "152" />
  <line class="fil0 str0" x1="64" y1="152" x2="64" y2= "148" />
  <line class="fil0 str0" x1="64" y1="192" x2="62" y2= "192" />
  <line class="fil0 str0" x1="64" y1="182" x2="64" y2= "185.5" />
  <line class="fil0 str0" x1="64" y1="185.5" x2="62.75" y2= "185.5" />
  <line class="fil0 str0" x1="62.75" y1="185.5" x2="62.75" y2= "188" />
  <line class="fil0 str0" x1="62.75" y1="188" x2="64" y2= "188" />
  <line class="fil0 str0" x1="67" y1="182" x2="64" y2= "182" />
  <line class="fil0 str0" x1="67" y1="185.5" x2="67" y2= "182" />
  <line class="fil0 str0" x1="68.25" y1="185.5" x2="67" y2= "185.5" />
  <line class="fil0 str0" x1="68.25" y1="188" x2="68.25" y2= "185.5" />
  <line class="fil0 str0" x1="67" y1="188" x2="68.25" y2= "188" />
  <line class="fil0 str0" x1="67" y1="192" x2="67" y2= "188" />
  <line class="fil0 str0" x1="64" y1="188" x2="64" y2= "192" />
  <line class="fil0 str0" x1="95" y1="195" x2="95" y2= "145" />
  <line class="fil0 str0" x1="76" y1="195" x2="82" y2= "195" />
  <line class="fil0 str0" x1="76" y1="145" x2="76" y2= "195" />
  <line class="fil0 str0" x1="95" y1="145" x2="89" y2= "145" />
  <line class="fil0 str0" x1="82" y1="145" x2="76" y2= "145" />
  <line class="fil0 str0" x1="89" y1="148" x2="87" y2= "148" />
  <line class="fil0 str0" x1="82" y1="148" x2="82" y2= "145" />
  <line class="fil0 str0" x1="89" y1="145" x2="89" y2= "148" />
  <line class="fil0 str0" x1="89" y1="195" x2="95" y2= "195" />
  <line class="fil0 str0" x1="89" y1="192" x2="87" y2= "192" />
  <line class="fil0 str0" x1="82" y1="192" x2="82" y2= "195" />
  <line class="fil0 str0" x1="89" y1="195" x2="89" y2= "192" />
  <line class="fil0 str0" x1="80.5" y1="165.5" x2="90.5" y2= "165.5" />
  <line class="fil0 str0" x1="90.5" y1="165.5" x2="90.5" y2= "168.5" />
  <line class="fil0 str0" x1="90.5" y1="168.5" x2="80.5" y2= "168.5" />
  <line class="fil0 str0" x1="80.5" y1="168.5" x2="80.5" y2= "165.5" />
  <line class="fil0 str0" x1="84" y1="148" x2="82" y2= "148" />
  <line class="fil0 str0" x1="84" y1="158" x2="84" y2= "154.5" />
  <line class="fil0 str0" x1="84" y1="154.5" x2="82.75" y2= "154.5" />
  <line class="fil0 str0" x1="82.75" y1="154.5" x2="82.75" y2= "152" />
  <line class="fil0 str0" x1="82.75" y1="152" x2="84" y2= "152" />
  <line class="fil0 str0" x1="87" y1="158" x2="84" y2= "158" />
  <line class="fil0 str0" x1="87" y1="154.5" x2="87" y2= "158" />
  <line class="fil0 str0" x1="88.25" y1="154.5" x2="87" y2= "154.5" />
  <line class="fil0 str0" x1="88.25" y1="152" x2="88.25" y2= "154.5" />
  <line class="fil0 str0" x1="87" y1="152" x2="88.25" y2= "152" />
  <line class="fil0 str0" x1="87" y1="148" x2="87" y2= "152" />
  <line class="fil0 str0" x1="84" y1="152" x2="84" y2= "148" />
  <line class="fil0 str0" x1="84" y1="192" x2="82" y2= "192" />
  <line class="fil0 str0" x1="84" y1="182" x2="84" y2= "185.5" />
  <line class="fil0 str0" x1="84" y1="185.5" x2="82.75" y2= "185.5" />
  <line class="fil0 str0" x1="82.75" y1="185.5" x2="82.75" y2= "188" />
  <line class="fil0 str0" x1="82.75" y1="188" x2="84" y2= "188" />
  <line class="fil0 str0" x1="87" y1="182" x2="84" y2= "182" />
  <line class="fil0 str0" x1="87" y1="185.5" x2="87" y2= "182" />
  <line class="fil0 str0" x1="88.25" y1="185.5" x2="87" y2= "185.5" />
  <line class="fil0 str0" x1="88.25" y1="188" x2="88.25" y2= "185.5" />
  <line class="fil0 str0" x1="87" y1="188" x2="88.25" y2= "188" />
  <line class="fil0 str0" x1="87" y1="192" x2="87" y2= "188" />
  <line class="fil0 str0" x1="84" y1="188" x2="84" y2= "192" />
  <line class="fil0 str0" x1="109.5" y1="175.9" x2="109.5" y2= "164.1" />
  <line class="fil0 str0" x1="109.5" y1="164.1" x2="132.5" y2= "164.1" />
  <line class="fil0 str0" x1="132.5" y1="164.1" x2="132.5" y2= "175.9" />
  <line class="fil0 str0" x1="132.5" y1="175.9" x2="109.5" y2= "175.9" />
  <path class="fil0 str1" d="M122.3 161c0,-0.718 -0.582,-1.3 -1.2999,-1.3 -0.718,-0.0001 -1.3,0.582 -1.3,1.2999 -0.0001,0.718 0.582,1.3 1.2999,1.3 0.718,0 1.3,-0.582 1.3,-1.2999z"/>
  <path class="fil0 str1" d="M122.3 179c0,-0.7181 -0.582,-1.3 -1.2999,-1.3 -0.718,-0.0001 -1.3,0.5819 -1.3,1.2999 -0.0001,0.718 0.582,1.3 1.2999,1.3001 0.718,0 1.3,-0.5821 1.3,-1.3z"/>
  <path class="fil0 str0" d="M144.3 148c0,-0.718 -0.582,-1.3 -1.2999,-1.3 -0.718,-0.0001 -1.3,0.582 -1.3,1.2999 -0.0001,0.718 0.582,1.3 1.2999,1.3001 0.718,0 1.3,-0.5821 1.3,-1.3z"/>
  <path class="fil0 str0" d="M144.3 192c0,-0.718 -0.582,-1.3 -1.2999,-1.3 -0.718,-0.0001 -1.3,0.582 -1.3,1.2999 -0.0001,0.718 0.582,1.3 1.2999,1.3001 0.718,0 1.3,-0.5821 1.3,-1.3z"/>
  <path class="fil0 str0" d="M100.3 192c0,-0.718 -0.582,-1.3 -1.2999,-1.3 -0.718,-0.0001 -1.3,0.582 -1.3,1.2999 -0.0001,0.718 0.582,1.3 1.2999,1.3001 0.718,0 1.3,-0.5821 1.3,-1.3z"/>
  <path class="fil0 str0" d="M100.3 148c0,-0.718 -0.582,-1.3 -1.2999,-1.3 -0.718,-0.0001 -1.3,0.582 -1.3,1.2999 -0.0001,0.718 0.582,1.3 1.2999,1.3001 0.718,0 1.3,-0.5821 1.3,-1.3z"/>
  <line class="fil0 str0" x1="143" y1="195" x2="99" y2= "195" />
  <path class="fil0 str0" d="M143 195c1.6569,0 3,-1.3432 3,-3"/>
  <line class="fil0 str0" x1="146" y1="148" x2="146" y2= "192" />
  <path class="fil0 str0" d="M146 148c0,-0.7957 -0.316,-1.5588 -0.8786,-2.1214 -0.5626,-0.5626 -1.3257,-0.8786 -2.1214,-0.8786"/>
  <line class="fil0 str0" x1="99" y1="145" x2="143" y2= "145" />
  <path class="fil0 str0" d="M99 145c-0.7956,0 -1.5587,0.316 -2.1213,0.8786 -0.5626,0.5626 -0.8787,1.3257 -0.8787,2.1214"/>
  <line class="fil0 str0" x1="96" y1="192" x2="96" y2= "148" />
  <path class="fil0 str0" d="M96 192c0,0.7956 0.3161,1.5587 0.8787,2.1213 0.5626,0.5626 1.3257,0.8787 2.1213,0.8787"/>
  <line class="fil0 str0" x1="11" y1="132" x2="91" y2= "132" />
  <path class="fil0 str0" d="M11 132c-2.1435,0 -4.1243,1.1435 -5.1961,3 -1.0718,1.8564 -1.0718,4.1435 0,6 1.0718,1.8564 3.0526,3 5.1961,3"/>
  <line class="fil0 str0" x1="91" y1="144" x2="11" y2= "144" />
  <path class="fil0 str0" d="M91 144c3.3138,0 6,-2.6863 6,-6 0.0001,-3.3137 -2.6862,-6 -5.9999,-6"/>
  <path class="fil0 str0" d="M92.3 138c0,-0.718 -0.582,-1.3 -1.2999,-1.3 -0.718,-0.0001 -1.3,0.582 -1.3,1.2999 -0.0001,0.718 0.582,1.3 1.2999,1.3001 0.718,0 1.3,-0.5821 1.3,-1.3z"/>
  <line class="fil0 str0" x1="73" y1="136.5" x2="73" y2= "139.5" />
  <line class="fil0 str0" x1="73" y1="139.5" x2="81" y2= "139.5" />
  <line class="fil0 str0" x1="81" y1="139.5" x2="81" y2= "136.5" />
  <line class="fil0 str0" x1="81" y1="136.5" x2="73" y2= "136.5" />
  <line class="fil0 str0" x1="34" y1="136.5" x2="34" y2= "139.5" />
  <line class="fil0 str0" x1="34" y1="139.5" x2="43" y2= "139.5" />
  <line class="fil0 str0" x1="43" y1="139.5" x2="43" y2= "136.5" />
  <line class="fil0 str0" x1="43" y1="136.5" x2="34" y2= "136.5" />
  <path class="fil0 str0" d="M26 138.9c0.4971,0 0.9,-0.403 0.9,-0.9 0.0001,-0.4971 -0.4029,-0.9 -0.8999,-0.9"/>
  <line class="fil0 str0" x1="26" y1="138.9" x2="21" y2= "138.9" />
  <path class="fil0 str0" d="M21 137.1c-0.3215,0 -0.6186,0.1715 -0.7794,0.45 -0.1607,0.2784 -0.1607,0.6215 0,0.9 0.1608,0.2784 0.4579,0.45 0.7794,0.45"/>
  <line class="fil0 str0" x1="21" y1="137.1" x2="26" y2= "137.1" />
  <path class="fil0 str0" d="M14.75 138c0,-2.0711 -1.6789,-3.75 -3.7499,-3.75 -2.0711,-0.0001 -3.75,1.6789 -3.75,3.7499 -0.0001,2.0711 1.6789,3.75 3.7499,3.7501 2.0711,0 3.75,-1.679 3.75,-3.75z"/>
  <path class="fil0 str0" d="M60.5 138c0,-0.8285 -0.6715,-1.5 -1.4999,-1.5 -0.8285,-0.0001 -1.5,0.6715 -1.5,1.4999 -0.0001,0.8285 0.6715,1.5 1.4999,1.5001 0.8285,0 1.5,-0.6716 1.5,-1.5z"/>
  <line class="fil0 str0" x1="11" y1="119" x2="91" y2= "119" />
  <path class="fil0 str0" d="M11 119c-2.1435,0 -4.1243,1.1435 -5.1961,3 -1.0718,1.8564 -1.0718,4.1435 0,6 1.0718,1.8564 3.0526,3 5.1961,3"/>
  <line class="fil0 str0" x1="91" y1="131" x2="11" y2= "131" />
  <path class="fil0 str0" d="M91 131c3.3138,0 6,-2.6863 6,-6 0.0001,-3.3137 -2.6862,-6 -5.9999,-6"/>
  <path class="fil0 str0" d="M12.3 125c0,-0.718 -0.582,-1.3 -1.2999,-1.3 -0.718,-0.0001 -1.3,0.582 -1.3,1.2999 -0.0001,0.718 0.582,1.3 1.2999,1.3001 0.718,0 1.3,-0.5821 1.3,-1.3z"/>
  <path class="fil0 str0" d="M92.3 125c0,-0.718 -0.582,-1.3 -1.2999,-1.3 -0.718,-0.0001 -1.3,0.582 -1.3,1.2999 -0.0001,0.718 0.582,1.3 1.2999,1.3001 0.718,0 1.3,-0.5821 1.3,-1.3z"/>
  <line class="fil0 str0" x1="76" y1="123.5" x2="76" y2= "126.5" />
  <line class="fil0 str0" x1="76" y1="126.5" x2="81" y2= "126.5" />
  <line class="fil0 str0" x1="81" y1="126.5" x2="81" y2= "123.5" />
  <line class="fil0 str0" x1="81" y1="123.5" x2="76" y2= "123.5" />
  <line class="fil0 str0" x1="21" y1="123.5" x2="21" y2= "126.5" />
  <line class="fil0 str0" x1="21" y1="126.5" x2="28.5" y2= "126.5" />
  <line class="fil0 str0" x1="28.5" y1="126.5" x2="28.5" y2= "123.5" />
  <line class="fil0 str0" x1="28.5" y1="123.5" x2="21" y2= "123.5" />
  <path class="fil0 str0" d="M44.5 125c0,-0.8285 -0.6715,-1.5 -1.4999,-1.5 -0.8285,-0.0001 -1.5,0.6715 -1.5,1.4999 -0.0001,0.8285 0.6715,1.5 1.4999,1.5001 0.8285,0 1.5,-0.6716 1.5,-1.5z"/>
  <line class="fil0 str0" x1="9" y1="110" x2="89" y2= "110" />
  <path class="fil0 str0" d="M9 110c-1.429,0 -2.7495,0.7623 -3.4641,2 -0.7145,1.2376 -0.7145,2.7623 0,4 0.7146,1.2376 2.0351,2 3.4641,2"/>
  <line class="fil0 str0" x1="89" y1="118" x2="9" y2= "118" />
  <path class="fil0 str0" d="M89 118c2.2092,0 4,-1.7909 4,-4 0.0001,-2.2092 -1.7908,-4 -3.9999,-4"/>
  <path class="fil0 str0" d="M90.55 114c0,-0.8561 -0.6939,-1.55 -1.5499,-1.55 -0.8561,-0.0001 -1.55,0.6939 -1.55,1.5499 -0.0001,0.8561 0.6939,1.55 1.5499,1.5501 0.8561,0 1.55,-0.694 1.55,-1.55z"/>
  <path class="fil0 str0" d="M10.55 114c0,-0.8561 -0.6939,-1.55 -1.5499,-1.55 -0.8561,-0.0001 -1.55,0.6939 -1.55,1.5499 -0.0001,0.8561 0.6939,1.55 1.5499,1.5501 0.8561,0 1.55,-0.694 1.55,-1.55z"/>
  <line class="fil0 str0" x1="9" y1="101" x2="89" y2= "101" />
  <path class="fil0 str0" d="M9 101c-1.429,0 -2.7495,0.7623 -3.4641,2 -0.7145,1.2376 -0.7145,2.7623 0,4 0.7146,1.2376 2.0351,2 3.4641,2"/>
  <line class="fil0 str0" x1="89" y1="109" x2="9" y2= "109" />
  <path class="fil0 str0" d="M89 109c2.2092,0 4,-1.7909 4,-4 0.0001,-2.2092 -1.7908,-4 -3.9999,-4"/>
  <path class="fil0 str0" d="M90.55 105c0,-0.8561 -0.6939,-1.55 -1.5499,-1.55 -0.8561,-0.0001 -1.55,0.6939 -1.55,1.5499 -0.0001,0.8561 0.6939,1.55 1.5499,1.5501 0.8561,0 1.55,-0.694 1.55,-1.55z"/>
  <path class="fil0 str0" d="M10.55 105c0,-0.8561 -0.6939,-1.55 -1.5499,-1.55 -0.8561,-0.0001 -1.55,0.6939 -1.55,1.5499 -0.0001,0.8561 0.6939,1.55 1.5499,1.5501 0.8561,0 1.55,-0.694 1.55,-1.55z"/>
  <line class="fil0 str0" x1="9" y1="92.0001" x2="89" y2= "92.0001" />
  <path class="fil0 str0" d="M9 92.0001c-1.429,0 -2.7495,0.7623 -3.4641,2 -0.7145,1.2376 -0.7145,2.7623 0,4 0.7146,1.2376 2.0351,1.9999 3.4641,1.9999"/>
  <line class="fil0 str0" x1="89" y1="100" x2="9" y2= "100" />
  <path class="fil0 str0" d="M89 100c2.2092,0 4,-1.7908 4,-3.9999 0.0001,-2.2092 -1.7908,-4 -3.9999,-4"/>
  <path class="fil0 str0" d="M90.55 96.0001c0,-0.8561 -0.6939,-1.55 -1.5499,-1.55 -0.8561,-0.0001 -1.55,0.6939 -1.55,1.5499 -0.0001,0.8561 0.6939,1.55 1.5499,1.5501 0.8561,0 1.55,-0.694 1.55,-1.55z"/>
  <path class="fil0 str0" d="M10.55 96.0001c0,-0.8561 -0.6939,-1.55 -1.5499,-1.55 -0.8561,-0.0001 -1.55,0.6939 -1.55,1.5499 -0.0001,0.8561 0.6939,1.55 1.5499,1.5501 0.8561,0 1.55,-0.694 1.55,-1.55z"/>
  <line class="fil0 str0" x1="135.5" y1="138" x2="130" y2= "138" />
  <line class="fil0 str0" x1="112.5" y1="138" x2="112.5" y2= "126" />
  <line class="fil0 str0" x1="112.5" y1="126" x2="118" y2= "126" />
  <line class="fil0 str0" x1="135.5" y1="126" x2="135.5" y2= "138" />
  <line class="fil0 str0" x1="130" y1="126" x2="135.5" y2= "126" />
  <line class="fil0 str0" x1="130" y1="123" x2="118" y2= "123" />
  <line class="fil0 str0" x1="118" y1="123" x2="118" y2= "126" />
  <line class="fil0 str0" x1="130" y1="126" x2="130" y2= "123" />
  <line class="fil0 str0" x1="118" y1="138" x2="112.5" y2= "138" />
  <line class="fil0 str0" x1="130" y1="141" x2="118" y2= "141" />
  <line class="fil0 str0" x1="118" y1="141" x2="118" y2= "138" />
  <line class="fil0 str0" x1="130" y1="138" x2="130" y2= "141" />
  <path class="fil0 str0" d="M111.799 140.5c0,-0.7174 -0.5816,-1.299 -1.2989,-1.299 -0.7174,0 -1.299,0.5816 -1.299,1.2989 0,0.7174 0.5816,1.299 1.2989,1.299 0.7174,0 1.299,-0.5816 1.299,-1.2989z"/>
  <path class="fil0 str0" d="M138.999 123.5c0,-0.7174 -0.5816,-1.299 -1.2989,-1.299 -0.7174,0 -1.299,0.5816 -1.299,1.2989 0,0.7174 0.5816,1.299 1.2989,1.299 0.7174,0 1.299,-0.5816 1.299,-1.2989z"/>
  <path class="fil0 str0" d="M111.799 123.5c0,-0.7174 -0.5816,-1.299 -1.2989,-1.299 -0.7174,0 -1.299,0.5816 -1.299,1.2989 0,0.7174 0.5816,1.299 1.2989,1.299 0.7174,0 1.299,-0.5816 1.299,-1.2989z"/>
  <path class="fil0 str0" d="M138.999 140.5c0,-0.7174 -0.5816,-1.299 -1.2989,-1.299 -0.7174,0 -1.299,0.5816 -1.299,1.2989 0,0.7174 0.5816,1.299 1.2989,1.299 0.7174,0 1.299,-0.5816 1.299,-1.2989z"/>
  <line class="fil0 str0" x1="127.5" y1="144" x2="137.657" y2= "143.468" />
  <line class="fil0 str0" x1="127.5" y1="120" x2="101" y2= "120" />
  <line class="fil0 str0" x1="127.5" y1="120" x2="137.657" y2= "120.532" />
  <line class="fil0 str0" x1="140.5" y1="140.472" x2="140.5" y2= "123.528" />
  <path class="fil0 str0" d="M137.657 143.468c1.5936,-0.0835 2.8429,-1.4 2.8429,-2.9958"/>
  <path class="fil0 str0" d="M140.5 123.528c0,-1.5958 -1.2493,-2.9123 -2.8429,-2.9958"/>
  <path class="fil0 str1" d="M102.5 141.05c0,-0.8284 -0.6715,-1.5 -1.4999,-1.5 -0.8284,-0.0001 -1.5,0.6716 -1.5,1.4999 -0.0001,0.8285 0.6716,1.5 1.4999,1.5001 0.8285,0 1.5,-0.6716 1.5,-1.5z"/>
  <path class="fil0 str1" d="M102.5 122.95c0,-0.8284 -0.6715,-1.5 -1.4999,-1.5 -0.8284,-0.0001 -1.5,0.6716 -1.5,1.4999 -0.0001,0.8285 0.6716,1.5 1.4999,1.5001 0.8285,0 1.5,-0.6716 1.5,-1.5z"/>
  <line class="fil0 str0" x1="101" y1="144" x2="127.5" y2= "144" />
  <path class="fil0 str0" d="M98 141c0,0.7956 0.3161,1.5587 0.8787,2.1213 0.5626,0.5626 1.3257,0.8787 2.1213,0.8787"/>
  <line class="fil0 str0" x1="98" y1="123" x2="98" y2= "141" />
  <path class="fil0 str0" d="M101 120c-0.7956,0 -1.5587,0.316 -2.1213,0.8786 -0.5626,0.5626 -0.8787,1.3257 -0.8787,2.1214"/>
  <line class="fil0 str0" x1="126" y1="113" x2="120.5" y2= "113" />
  <line class="fil0 str0" x1="103" y1="113" x2="103" y2= "109.5" />
  <line class="fil0 str0" x1="103" y1="101" x2="108.5" y2= "101" />
  <line class="fil0 str0" x1="126" y1="101" x2="126" y2= "104.5" />
  <line class="fil0 str0" x1="120.5" y1="101" x2="126" y2= "101" />
  <line class="fil0 str0" x1="120.5" y1="98.0001" x2="108.5" y2= "98.0001" />
  <line class="fil0 str0" x1="108.5" y1="98.0001" x2="108.5" y2= "101" />
  <line class="fil0 str0" x1="120.5" y1="101" x2="120.5" y2= "98.0001" />
  <line class="fil0 str0" x1="108.5" y1="113" x2="103" y2= "113" />
  <line class="fil0 str0" x1="120.5" y1="116" x2="108.5" y2= "116" />
  <line class="fil0 str0" x1="108.5" y1="116" x2="108.5" y2= "113" />
  <line class="fil0 str0" x1="120.5" y1="113" x2="120.5" y2= "116" />
  <path class="fil0 str0" d="M102.5 115.5c0,-0.8285 -0.6715,-1.5 -1.4999,-1.5 -0.8285,-0.0001 -1.5,0.6715 -1.5,1.4999 -0.0001,0.8285 0.6715,1.5 1.4999,1.5001 0.8285,0 1.5,-0.6716 1.5,-1.5z"/>
  <path class="fil0 str1" d="M129.7 98.5001c0,-0.8284 -0.6716,-1.5001 -1.4999,-1.5001 -0.8284,0 -1.5001,0.6717 -1.5001,1.5 0,0.8284 0.6717,1.5 1.5,1.5 0.8284,0 1.5,-0.6716 1.5,-1.4999z"/>
  <path class="fil0 str1" d="M102.5 98.5001c0,-0.8284 -0.6716,-1.5001 -1.4999,-1.5001 -0.8284,0 -1.5001,0.6717 -1.5001,1.5 0,0.8284 0.6717,1.5 1.5,1.5 0.8284,0 1.5,-0.6716 1.5,-1.4999z"/>
  <path class="fil0 str0" d="M129.7 115.5c0,-0.8285 -0.6715,-1.5 -1.4999,-1.5 -0.8285,-0.0001 -1.5,0.6715 -1.5,1.4999 -0.0001,0.8285 0.6715,1.5 1.4999,1.5001 0.8285,0 1.5,-0.6716 1.5,-1.5z"/>
  <line class="fil0 str0" x1="118" y1="119" x2="128.157" y2= "118.468" />
  <line class="fil0 str0" x1="118" y1="95.0001" x2="101" y2= "95.0001" />
  <line class="fil0 str0" x1="118" y1="95.0001" x2="128.157" y2= "95.5324" />
  <line class="fil0 str0" x1="131" y1="115.472" x2="131" y2= "98.5282" />
  <path class="fil0 str0" d="M128.157 118.468c1.5936,-0.0835 2.8429,-1.4 2.8429,-2.9958"/>
  <path class="fil0 str0" d="M131 98.5282c0,-1.5958 -1.2493,-2.9123 -2.8429,-2.9958"/>
  <line class="fil0 str0" x1="101" y1="119" x2="118" y2= "119" />
  <path class="fil0 str0" d="M98 116c0,0.7956 0.3161,1.5587 0.8787,2.1213 0.5626,0.5626 1.3257,0.8787 2.1213,0.8787"/>
  <line class="fil0 str0" x1="98" y1="98.0001" x2="98" y2= "116" />
  <path class="fil0 str0" d="M101 95.0001c-0.7956,0 -1.5587,0.316 -2.1213,0.8786 -0.5626,0.5626 -0.8787,1.3257 -0.8787,2.1214"/>
  <line class="fil0 str0" x1="103" y1="104.5" x2="103" y2= "101" />
  <line class="fil0 str0" x1="101.5" y1="109.5" x2="101.5" y2= "104.5" />
  <line class="fil0 str0" x1="101.5" y1="104.5" x2="103" y2= "104.5" />
  <line class="fil0 str0" x1="103" y1="109.5" x2="101.5" y2= "109.5" />
  <line class="fil0 str0" x1="126" y1="109.5" x2="126" y2= "113" />
  <line class="fil0 str0" x1="127.5" y1="109.5" x2="127.5" y2= "104.5" />
  <line class="fil0 str0" x1="127.5" y1="104.5" x2="126" y2= "104.5" />
  <line class="fil0 str0" x1="126" y1="109.5" x2="127.5" y2= "109.5" />
  <line class="fil0 str0" x1="5" y1="91.0001" x2="5" y2= "74.0001" />
  <line class="fil0 str0" x1="65" y1="91.0001" x2="60" y2= "91.0001" />
  <line class="fil0 str0" x1="65" y1="67.0001" x2="65" y2= "91.0001" />
  <line class="fil0 str0" x1="12.5" y1="91.0001" x2="5" y2= "91.0001" />
  <line class="fil0 str0" x1="60" y1="91.0001" x2="60" y2= "88.0001" />
  <line class="fil0 str0" x1="60" y1="88.0001" x2="28.5" y2= "88.0001" />
  <line class="fil0 str0" x1="12.5" y1="88.0001" x2="12.5" y2= "91.0001" />
  <line class="fil0 str0" x1="57" y1="67.0001" x2="65" y2= "67.0001" />
  <line class="fil0 str0" x1="57" y1="67.0001" x2="57" y2= "70.0001" />
  <line class="fil0 str0" x1="57" y1="70.0001" x2="44.5" y2= "70.0001" />
  <line class="fil0 str0" x1="41.5" y1="70.0001" x2="27" y2= "70.0001" />
  <line class="fil0 str0" x1="41.5" y1="70.0001" x2="41.5" y2= "74.0001" />
  <line class="fil0 str0" x1="41.5" y1="74.0001" x2="40.25" y2= "74.0001" />
  <line class="fil0 str0" x1="40.25" y1="74.0001" x2="40.25" y2= "77.0001" />
  <line class="fil0 str0" x1="40.25" y1="77.0001" x2="41.5" y2= "77.0001" />
  <line class="fil0 str0" x1="41.5" y1="77.0001" x2="41.5" y2= "81.0001" />
  <line class="fil0 str0" x1="41.5" y1="81.0001" x2="44.5" y2= "81.0001" />
  <line class="fil0 str0" x1="44.5" y1="81.0001" x2="44.5" y2= "77.0001" />
  <line class="fil0 str0" x1="44.5" y1="77.0001" x2="45.75" y2= "77.0001" />
  <line class="fil0 str0" x1="45.75" y1="77.0001" x2="45.75" y2= "74.0001" />
  <line class="fil0 str0" x1="45.75" y1="74.0001" x2="44.5" y2= "74.0001" />
  <line class="fil0 str0" x1="44.5" y1="74.0001" x2="44.5" y2= "70.0001" />
  <line class="fil0 str0" x1="25.5" y1="88.0001" x2="12.5" y2= "88.0001" />
  <line class="fil0 str0" x1="25.5" y1="84.0001" x2="24.25" y2= "84.0001" />
  <line class="fil0 str0" x1="24.25" y1="84.0001" x2="24.25" y2= "81.0001" />
  <line class="fil0 str0" x1="24.25" y1="81.0001" x2="25.5" y2= "81.0001" />
  <line class="fil0 str0" x1="25.5" y1="81.0001" x2="25.5" y2= "77.0001" />
  <line class="fil0 str0" x1="25.5" y1="77.0001" x2="28.5" y2= "77.0001" />
  <line class="fil0 str0" x1="28.5" y1="77.0001" x2="28.5" y2= "81.0001" />
  <line class="fil0 str0" x1="28.5" y1="81.0001" x2="29.75" y2= "81.0001" />
  <line class="fil0 str0" x1="29.75" y1="81.0001" x2="29.75" y2= "84.0001" />
  <line class="fil0 str0" x1="29.75" y1="84.0001" x2="28.5" y2= "84.0001" />
  <line class="fil0 str0" x1="25.5" y1="88.0001" x2="25.5" y2= "84.0001" />
  <line class="fil0 str0" x1="28.5" y1="84.0001" x2="28.5" y2= "88.0001" />
  <line class="fil0 str0" x1="18" y1="67.0001" x2="27" y2= "67.0001" />
  <line class="fil0 str0" x1="27" y1="67.0001" x2="27" y2= "70.0001" />
  <line class="fil0 str0" x1="11" y1="74.0001" x2="5" y2= "74.0001" />
  <path class="fil0 str1" d="M11 74.0001c2.7824,0 7,-1.1041 7,-3.9765 0,-0.8936 0,-1.9399 0,-3.0235"/>
  <path class="fil0 str0" d="M49.25 82.5001c0,0.5304 0.2108,1.0391 0.5858,1.4142 0.3751,0.375 0.8838,0.5858 1.4142,0.5858"/>
  <line class="fil0 str0" x1="51.25" y1="84.5001" x2="59.5" y2= "84.5001" />
  <path class="fil0 str0" d="M59.5 84.5001c1.3808,0 2.5,-1.1193 2.5,-2.5"/>
  <line class="fil0 str0" x1="62" y1="82.0001" x2="62" y2= "76.0001" />
  <path class="fil0 str0" d="M62 76.0001c0,-0.6631 -0.2633,-1.299 -0.7322,-1.7678 -0.4688,-0.4689 -1.1047,-0.7322 -1.7678,-0.7322"/>
  <line class="fil0 str0" x1="59.5" y1="73.5001" x2="51.25" y2= "73.5001" />
  <path class="fil0 str0" d="M51.25 73.5001c-0.5304,0 -1.0391,0.2107 -1.4142,0.5857 -0.375,0.3751 -0.5858,0.8838 -0.5858,1.4143"/>
  <line class="fil0 str0" x1="49.25" y1="75.5001" x2="49.25" y2= "82.5001" />
  <line class="fil0 str0" x1="97" y1="72.6001" x2="97" y2= "76.0001" />
  <line class="fil0 str0" x1="97" y1="84.4001" x2="74" y2= "84.4001" />
  <line class="fil0 str0" x1="74" y1="84.4001" x2="74" y2= "72.6001" />
  <line class="fil0 str0" x1="74" y1="72.6001" x2="97" y2= "72.6001" />
  <line class="fil0 str0" x1="78.5" y1="91.0001" x2="92.5" y2= "91.0001" />
  <path class="fil0 str0" d="M78.5 66.0001c-4.4658,0 -8.5924,2.3824 -10.8253,6.25 -2.2329,3.8675 -2.2329,8.6324 0,12.5 2.2329,3.8675 6.3595,6.25 10.8253,6.25"/>
  <line class="fil0 str0" x1="92.5" y1="66.0001" x2="78.5" y2= "66.0001" />
  <path class="fil0 str0" d="M92.5 91.0001c6.9036,0 12.5,-5.5965 12.5,-12.5 0.0001,-6.9036 -5.5963,-12.5 -12.4999,-12.5"/>
  <path class="fil0 str0" d="M87 88.0001c0,-0.8285 -0.6715,-1.5 -1.4999,-1.5 -0.8285,-0.0001 -1.5,0.6715 -1.5,1.4999 -0.0001,0.8285 0.6715,1.5 1.4999,1.5001 0.8285,0 1.5,-0.6716 1.5,-1.5z"/>
  <path class="fil0 str0" d="M87 69.0001c0,-0.8285 -0.6715,-1.5 -1.4999,-1.5 -0.8285,-0.0001 -1.5,0.6715 -1.5,1.4999 -0.0001,0.8285 0.6715,1.5 1.4999,1.5001 0.8285,0 1.5,-0.6716 1.5,-1.5z"/>
  <line class="fil0 str0" x1="97" y1="81.0001" x2="97" y2= "84.4001" />
  <line class="fil0 str0" x1="99" y1="76.0001" x2="99" y2= "81.0001" />
  <line class="fil0 str0" x1="99" y1="81.0001" x2="97" y2= "81.0001" />
  <line class="fil0 str0" x1="97" y1="76.0001" x2="99" y2= "76.0001" />
  <line class="fil0 str0" x1="136.826" y1="75.6001" x2="136.826" y2= "79.0001" />
  <line class="fil0 str0" x1="136.826" y1="87.4001" x2="113.826" y2= "87.4001" />
  <line class="fil0 str0" x1="113.826" y1="87.4001" x2="113.826" y2= "75.6001" />
  <line class="fil0 str0" x1="113.826" y1="75.6001" x2="136.826" y2= "75.6001" />
  <line class="fil0 str0" x1="118.326" y1="94.0001" x2="132.326" y2= "94.0001" />
  <path class="fil0 str0" d="M118.326 69.0001c-4.4658,0 -8.5924,2.3824 -10.8253,6.25 -2.2329,3.8675 -2.2329,8.6324 0,12.5 2.2329,3.8675 6.3595,6.25 10.8253,6.25"/>
  <line class="fil0 str0" x1="132.326" y1="69.0001" x2="118.326" y2= "69.0001" />
  <path class="fil0 str0" d="M132.326 94.0001c6.9035,0 12.5,-5.5965 12.5,-12.5 0,-6.9036 -5.5964,-12.5 -12.4999,-12.5"/>
  <path class="fil0 str0" d="M126.826 91.0001c0,-0.8285 -0.6716,-1.5 -1.5,-1.5 -0.8284,-0.0001 -1.5,0.6715 -1.5,1.4999 0,0.8285 0.6716,1.5 1.5,1.5001 0.8284,0 1.5,-0.6716 1.5,-1.5z"/>
  <path class="fil0 str0" d="M126.826 72.0001c0,-0.8285 -0.6716,-1.5 -1.5,-1.5 -0.8284,-0.0001 -1.5,0.6715 -1.5,1.4999 0,0.8285 0.6716,1.5 1.5,1.5001 0.8284,0 1.5,-0.6716 1.5,-1.5z"/>
  <line class="fil0 str0" x1="136.826" y1="84.0001" x2="136.826" y2= "87.4001" />
  <line class="fil0 str0" x1="138.826" y1="79.0001" x2="138.826" y2= "84.0001" />
  <line class="fil0 str0" x1="138.826" y1="84.0001" x2="136.826" y2= "84.0001" />
  <line class="fil0 str0" x1="136.826" y1="79.0001" x2="138.826" y2= "79.0001" />
  <line class="fil0 str0" x1="36" y1="47.6001" x2="36" y2= "51.0001" />
  <line class="fil0 str0" x1="36" y1="59.4001" x2="13" y2= "59.4001" />
  <line class="fil0 str0" x1="13" y1="59.4001" x2="13" y2= "47.6001" />
  <line class="fil0 str0" x1="13" y1="47.6001" x2="36" y2= "47.6001" />
  <line class="fil0 str0" x1="17.5" y1="66.0001" x2="31.5" y2= "66.0001" />
  <path class="fil0 str0" d="M17.5 41.0001c-4.4658,0 -8.5924,2.3824 -10.8253,6.25 -2.2329,3.8675 -2.2329,8.6324 0,12.5 2.2329,3.8675 6.3595,6.25 10.8253,6.25"/>
  <line class="fil0 str0" x1="31.5" y1="41.0001" x2="17.5" y2= "41.0001" />
  <path class="fil0 str0" d="M31.5 66.0001c6.9036,0 12.5,-5.5965 12.5,-12.5 0.0001,-6.9036 -5.5963,-12.5 -12.4999,-12.5"/>
  <path class="fil0 str0" d="M26 63.0001c0,-0.8285 -0.6715,-1.5 -1.4999,-1.5 -0.8285,-0.0001 -1.5,0.6715 -1.5,1.4999 -0.0001,0.8285 0.6715,1.5 1.4999,1.5001 0.8285,0 1.5,-0.6716 1.5,-1.5z"/>
  <path class="fil0 str0" d="M26 44.0001c0,-0.8285 -0.6715,-1.5 -1.4999,-1.5 -0.8285,-0.0001 -1.5,0.6715 -1.5,1.4999 -0.0001,0.8285 0.6715,1.5 1.4999,1.5001 0.8285,0 1.5,-0.6716 1.5,-1.5z"/>
  <line class="fil0 str0" x1="36" y1="56.0001" x2="36" y2= "59.4001" />
  <line class="fil0 str0" x1="38" y1="51.0001" x2="38" y2= "56.0001" />
  <line class="fil0 str0" x1="38" y1="56.0001" x2="36" y2= "56.0001" />
  <line class="fil0 str0" x1="36" y1="51.0001" x2="38" y2= "51.0001" />
  <path class="fil0 str0" d="M168.409 85.1039c0.5704,-0.4983 0.9895,-1.1468 1.2095,-1.8716"/>
  <path class="fil0 str0" d="M169.899 88.9645c0.7432,-0.1464 1.4303,-0.4984 1.9833,-1.0162"/>
  <path class="fil0 str0" d="M169.259 93.0529c0.7168,0.2448 1.4879,0.2835 2.2256,0.1116"/>
  <path class="fil0 str0" d="M166.661 96.2736c0.4984,0.5704 1.1469,0.9894 1.8717,1.2094"/>
  <path class="fil0 str0" d="M162.8 97.7636c0.1464,0.7432 0.4985,1.4303 1.0162,1.9832"/>
  <path class="fil0 str0" d="M158.712 97.1237c-0.2448,0.7168 -0.2835,1.4879 -0.1116,2.2256"/>
  <path class="fil0 str0" d="M155.491 94.5253c-0.5704,0.4984 -0.9895,1.1469 -1.2095,1.8717"/>
  <path class="fil0 str0" d="M154.001 90.6647c-0.7432,0.1464 -1.4303,0.4985 -1.9833,1.0162"/>
  <path class="fil0 str0" d="M154.641 86.5763c-0.7168,-0.2448 -1.4879,-0.2834 -2.2256,-0.1115"/>
  <path class="fil0 str0" d="M157.239 83.3557c-0.4984,-0.5705 -1.1469,-0.9895 -1.8717,-1.2095"/>
  <path class="fil0 str0" d="M165.95 83.6501c0.2699,0.0181 0.5328,-0.0908 0.7107,-0.2944"/>
  <path class="fil0 str0" d="M168.409 85.1039c-0.3117,0.2724 -0.3872,0.7272 -0.1803,1.0857 0.207,0.3585 0.6387,0.5205 1.0304,0.3867"/>
  <path class="fil0 str0" d="M169.422 82.4379c-0.0317,-0.032 -0.0635,-0.0639 -0.0955,-0.0955"/>
  <path class="fil0 str0" d="M169.618 83.2323c0.0852,-0.2808 0.0099,-0.5856 -0.1962,-0.7944"/>
  <path class="fil0 str0" d="M168.532 82.1462c-0.7248,0.22 -1.3733,0.639 -1.8717,1.2095"/>
  <path class="fil0 str0" d="M169.327 82.3424c-0.2088,-0.2061 -0.5137,-0.2814 -0.7944,-0.1962"/>
  <path class="fil0 str0" d="M169.899 88.9645c-0.4061,0.08 -0.699,0.4362 -0.699,0.8501 0,0.414 0.2929,0.7701 0.699,0.8501"/>
  <path class="fil0 str0" d="M172.109 87.1623c-0.0113,-0.0436 -0.023,-0.087 -0.0349,-0.1304"/>
  <path class="fil0 str0" d="M171.882 87.9483c0.2141,-0.2005 0.3013,-0.5021 0.2272,-0.786"/>
  <path class="fil0 str0" d="M171.485 86.4648c-0.7377,-0.1719 -1.5088,-0.1333 -2.2256,0.1115"/>
  <path class="fil0 str0" d="M172.075 87.0319c-0.0778,-0.2829 -0.3041,-0.5006 -0.5899,-0.5671"/>
  <path class="fil0 str0" d="M169.259 93.0529c-0.3917,-0.1338 -0.8234,0.0282 -1.0304,0.3867 -0.2069,0.3585 -0.1314,0.8133 0.1803,1.0857"/>
  <path class="fil0 str0" d="M172.075 92.5974c0.0119,-0.0434 0.0236,-0.0869 0.0349,-0.1305"/>
  <path class="fil0 str0" d="M171.485 93.1645c0.2858,-0.0666 0.5121,-0.2842 0.5899,-0.5671"/>
  <path class="fil0 str0" d="M171.882 91.6809c-0.553,-0.5177 -1.2401,-0.8698 -1.9833,-1.0162"/>
  <path class="fil0 str0" d="M172.109 92.4669c0.0741,-0.2838 -0.0131,-0.5855 -0.2272,-0.786"/>
  <path class="fil0 str0" d="M166.661 96.2736c-0.2723,-0.3117 -0.7272,-0.3873 -1.0857,-0.1803 -0.3584,0.207 -0.5205,0.6386 -0.3867,1.0304"/>
  <path class="fil0 str0" d="M169.327 97.2868c0.032,-0.0316 0.0638,-0.0634 0.0955,-0.0955"/>
  <path class="fil0 str0" d="M168.532 97.483c0.2807,0.0852 0.5856,0.0099 0.7944,-0.1962"/>
  <path class="fil0 str0" d="M169.618 96.397c-0.22,-0.7248 -0.6391,-1.3733 -1.2095,-1.8717"/>
  <path class="fil0 str0" d="M169.422 97.1913c0.2061,-0.2087 0.2814,-0.5136 0.1962,-0.7943"/>
  <path class="fil0 str0" d="M162.8 97.7636c-0.08,-0.4062 -0.4361,-0.699 -0.85,-0.699 -0.414,0 -0.7701,0.2928 -0.8501,0.699"/>
  <path class="fil0 str0" d="M164.602 99.9741c0.0435,-0.0114 0.087,-0.023 0.1304,-0.0349"/>
  <path class="fil0 str0" d="M163.816 99.7468c0.2005,0.2142 0.5022,0.3013 0.7861,0.2273"/>
  <path class="fil0 str0" d="M165.3 99.3493c0.1719,-0.7377 0.1332,-1.5088 -0.1116,-2.2256"/>
  <path class="fil0 str0" d="M164.733 99.9392c0.2829,-0.0778 0.5005,-0.3042 0.5671,-0.5899"/>
  <path class="fil0 str0" d="M158.712 97.1237c0.1338,-0.3918 -0.0283,-0.8234 -0.3867,-1.0304 -0.3585,-0.207 -0.8134,-0.1314 -1.0857,0.1803"/>
  <path class="fil0 str0" d="M159.167 99.9392c0.0434,0.0119 0.0869,0.0235 0.1304,0.0349"/>
  <path class="fil0 str0" d="M158.6 99.3493c0.0666,0.2857 0.2842,0.5121 0.5671,0.5899"/>
  <path class="fil0 str0" d="M160.084 99.7468c0.5177,-0.5529 0.8698,-1.24 1.0162,-1.9832"/>
  <path class="fil0 str0" d="M159.298 99.9741c0.2839,0.074 0.5856,-0.0131 0.7861,-0.2273"/>
  <path class="fil0 str0" d="M155.491 94.5253c0.3117,-0.2724 0.3872,-0.7272 0.1803,-1.0857 -0.207,-0.3585 -0.6387,-0.5205 -1.0304,-0.3867"/>
  <path class="fil0 str0" d="M154.478 97.1913c0.0317,0.0321 0.0635,0.0639 0.0955,0.0955"/>
  <path class="fil0 str0" d="M154.281 96.397c-0.0852,0.2807 -0.0099,0.5856 0.1962,0.7943"/>
  <path class="fil0 str0" d="M155.368 97.483c0.7248,-0.22 1.3733,-0.639 1.8717,-1.2094"/>
  <path class="fil0 str0" d="M154.573 97.2868c0.2088,0.2061 0.5137,0.2814 0.7944,0.1962"/>
  <path class="fil0 str0" d="M154.001 90.6647c0.4061,-0.08 0.6989,-0.4361 0.6989,-0.8501 0.0001,-0.4139 -0.2928,-0.7701 -0.6989,-0.8501"/>
  <path class="fil0 str0" d="M151.791 92.4669c0.0113,0.0436 0.023,0.0871 0.0349,0.1305"/>
  <path class="fil0 str0" d="M152.018 91.6809c-0.2141,0.2005 -0.3013,0.5022 -0.2272,0.786"/>
  <path class="fil0 str0" d="M152.415 93.1645c0.7377,0.1719 1.5088,0.1332 2.2256,-0.1116"/>
  <path class="fil0 str0" d="M151.825 92.5974c0.0778,0.2829 0.3041,0.5005 0.5899,0.5671"/>
  <path class="fil0 str0" d="M154.641 86.5763c0.3917,0.1338 0.8234,-0.0282 1.0304,-0.3867 0.2069,-0.3585 0.1314,-0.8133 -0.1803,-1.0857"/>
  <path class="fil0 str0" d="M151.825 87.0319c-0.0119,0.0434 -0.0236,0.0868 -0.0349,0.1304"/>
  <path class="fil0 str0" d="M152.415 86.4648c-0.2858,0.0665 -0.5121,0.2842 -0.5899,0.5671"/>
  <path class="fil0 str0" d="M152.018 87.9483c0.553,0.5178 1.2401,0.8698 1.9833,1.0162"/>
  <path class="fil0 str0" d="M151.791 87.1623c-0.0741,0.2839 0.0131,0.5855 0.2272,0.786"/>
  <path class="fil0 str0" d="M157.239 83.3557c0.1779,0.2036 0.4408,0.3125 0.7107,0.2944"/>
  <path class="fil0 str0" d="M154.573 82.3424c-0.032,0.0316 -0.0638,0.0635 -0.0955,0.0955"/>
  <path class="fil0 str0" d="M155.368 82.1462c-0.2807,-0.0852 -0.5856,-0.0099 -0.7944,0.1962"/>
  <path class="fil0 str0" d="M154.281 83.2323c0.22,0.7248 0.6391,1.3733 1.2095,1.8716"/>
  <path class="fil0 str0" d="M154.478 82.4379c-0.2061,0.2088 -0.2814,0.5136 -0.1962,0.7944"/>
  <line class="fil0 str0" x1="171" y1="64.8146" x2="171" y2= "56.0217" />
  <line class="fil0 str0" x1="165.95" y1="83.6501" x2="165.95" y2= "71.1073" />
  <path class="fil0 str1" d="M163.25 89.8146c0,-0.7179 -0.582,-1.2999 -1.2999,-1.2999 -0.718,0 -1.3,0.582 -1.3,1.2999 -0.0001,0.718 0.582,1.2999 1.2999,1.2999 0.718,0 1.3,-0.5819 1.3,-1.2999z"/>
  <line class="fil0 str0" x1="170.146" y1="55.6682" x2="158.829" y2= "66.9859" />
  <path class="fil0 str0" d="M171 56.0217c0,-0.2022 -0.1219,-0.3845 -0.3087,-0.4619 -0.1868,-0.0774 -0.4019,-0.0346 -0.5449,0.1084"/>
  <line class="fil0 str0" x1="157.95" y1="69.1073" x2="157.95" y2= "83.6501" />
  <path class="fil0 str0" d="M158.829 66.9859c-0.5626,0.5626 -0.8787,1.3257 -0.8787,2.1214"/>
  <line class="fil0 str0" x1="166.829" y1="68.9859" x2="171" y2= "64.8146" />
  <path class="fil0 str0" d="M166.829 68.9859c-0.5626,0.5626 -0.8787,1.3257 -0.8787,2.1214"/>
  <path class="fil0 str0" d="M163.25 79.8146c0,-0.7179 -0.5821,-1.3 -1.3,-1.3 -0.718,0 -1.3,0.582 -1.3,1.3 -0.0001,0.718 0.582,1.3 1.2999,1.3 0.718,0 1.3,-0.582 1.3,-1.3z"/>
  <path class="fil0 str0" d="M182.152 46.3555c0.6953,0.3006 1.461,0.4 2.2099,0.2868"/>
  <path class="fil0 str0" d="M179.308 49.3612c0.4518,0.6079 1.0652,1.0768 1.7704,1.3533"/>
  <path class="fil0 str0" d="M175.342 50.542c0.0873,0.7524 0.3841,1.4652 0.8566,2.0572"/>
  <path class="fil0 str0" d="M171.317 49.5816c-0.3005,0.6952 -0.3999,1.4609 -0.2868,2.2099"/>
  <path class="fil0 str0" d="M168.311 46.7372c-0.608,0.4518 -1.0769,1.0653 -1.3533,1.7705"/>
  <path class="fil0 str0" d="M167.13 42.7711c-0.7524,0.0873 -1.4652,0.3841 -2.0573,0.8566"/>
  <path class="fil0 str0" d="M168.091 38.746c-0.6953,-0.3006 -1.4609,-0.4 -2.2099,-0.2868"/>
  <path class="fil0 str0" d="M170.935 35.7403c-0.4518,-0.6079 -1.0652,-1.0768 -1.7704,-1.3533"/>
  <path class="fil0 str0" d="M174.901 34.5595c-0.0873,-0.7524 -0.384,-1.4652 -0.8565,-2.0572"/>
  <path class="fil0 str0" d="M178.926 35.5199c0.3006,-0.6952 0.4,-1.4609 0.2868,-2.2099"/>
  <path class="fil0 str0" d="M183.095 37.0087c0.0712,-0.1346 0.1347,-0.2731 0.1903,-0.4149"/>
  <path class="fil0 str0" d="M182.152 46.3555c-0.3799,-0.1643 -0.823,-0.0368 -1.0576,0.3042 -0.2346,0.3411 -0.1952,0.8005 0.0941,1.0966"/>
  <path class="fil0 str0" d="M184.995 46.1235c0.0153,-0.0423 0.0303,-0.0847 0.0451,-0.1273"/>
  <path class="fil0 str0" d="M184.362 46.6423c0.2901,-0.0438 0.533,-0.2429 0.6328,-0.5188"/>
  <path class="fil0 str0" d="M184.876 45.1947c-0.1026,-0.1125 -0.2115,-0.2191 -0.3261,-0.3194"/>
  <path class="fil0 str0" d="M185.04 45.9962c0.0963,-0.2771 0.0331,-0.5847 -0.1645,-0.8015"/>
  <path class="fil0 str0" d="M179.308 49.3612c-0.2469,-0.3323 -0.6944,-0.4434 -1.0681,-0.2654 -0.3737,0.1781 -0.5692,0.5956 -0.4668,0.9967"/>
  <path class="fil0 str0" d="M181.886 50.5816c0.0344,-0.029 0.0687,-0.0582 0.1027,-0.0877"/>
  <path class="fil0 str0" d="M181.078 50.7145c0.2732,0.1071 0.583,0.0561 0.8074,-0.1329"/>
  <path class="fil0 str0" d="M182.247 49.7175c-0.1621,-0.7399 -0.5287,-1.4194 -1.058,-1.9612"/>
  <path class="fil0 str0" d="M181.988 50.4939c0.222,-0.1918 0.3211,-0.4898 0.2583,-0.7764"/>
  <path class="fil0 str0" d="M175.342 50.542c-0.0477,-0.4112 -0.3796,-0.7312 -0.7923,-0.7638 -0.4127,-0.0327 -0.7908,0.2311 -0.9026,0.6297"/>
  <path class="fil0 str0" d="M176.964 52.8878c0.0444,-0.0079 0.0886,-0.0161 0.1328,-0.0245"/>
  <path class="fil0 str0" d="M176.199 52.5992c0.183,0.2293 0.4768,0.3401 0.7656,0.2886"/>
  <path class="fil0 str0" d="M177.709 52.32c0.2295,-0.7218 0.2518,-1.4936 0.0643,-2.2275"/>
  <path class="fil0 str0" d="M177.097 52.8633c0.2882,-0.0552 0.523,-0.2637 0.6119,-0.5433"/>
  <path class="fil0 str0" d="M171.317 49.5816c0.1643,-0.38 0.0369,-0.8231 -0.3042,-1.0577 -0.341,-0.2346 -0.8004,-0.1952 -1.0965,0.0941"/>
  <path class="fil0 str0" d="M171.549 52.4242c0.0423,0.0153 0.0847,0.0304 0.1272,0.0451"/>
  <path class="fil0 str0" d="M171.03 51.7915c0.0439,0.2901 0.243,0.5329 0.5189,0.6327"/>
  <path class="fil0 str0" d="M172.478 52.3048c0.5597,-0.5104 0.9649,-1.1676 1.1694,-1.8969"/>
  <path class="fil0 str0" d="M171.676 52.4693c0.2772,0.0963 0.5848,0.0332 0.8016,-0.1645"/>
  <path class="fil0 str0" d="M168.311 46.7372c0.3322,-0.2469 0.4434,-0.6943 0.2653,-1.068 -0.178,-0.3738 -0.5955,-0.5693 -0.9966,-0.4668"/>
  <path class="fil0 str0" d="M167.091 49.315c0.029,0.0345 0.0582,0.0687 0.0876,0.1028"/>
  <path class="fil0 str0" d="M166.958 48.5077c-0.1071,0.2731 -0.0561,0.5829 0.1329,0.8073"/>
  <path class="fil0 str0" d="M167.955 49.676c0.7399,-0.1621 1.4194,-0.5287 1.9612,-1.058"/>
  <path class="fil0 str0" d="M167.178 49.4178c0.1919,0.2219 0.4899,0.321 0.7765,0.2582"/>
  <path class="fil0 str0" d="M167.13 42.7711c0.4112,-0.0477 0.7312,-0.3796 0.7638,-0.7923 0.0327,-0.4126 -0.2311,-0.7908 -0.6297,-0.9026"/>
  <path class="fil0 str0" d="M164.785 44.3934c0.0079,0.0443 0.016,0.0885 0.0245,0.1328"/>
  <path class="fil0 str0" d="M165.073 43.6277c-0.2293,0.183 -0.34,0.4768 -0.2885,0.7657"/>
  <path class="fil0 str0" d="M165.352 45.138c0.7218,0.2296 1.4936,0.2519 2.2275,0.0644"/>
  <path class="fil0 str0" d="M164.809 44.5262c0.0552,0.2881 0.2637,0.5229 0.5433,0.6118"/>
  <path class="fil0 str0" d="M168.091 38.746c0.38,0.1642 0.8231,0.0368 1.0577,-0.3043 0.2346,-0.341 0.1952,-0.8004 -0.0941,-1.0965"/>
  <path class="fil0 str0" d="M165.248 38.978c-0.0154,0.0423 -0.0304,0.0847 -0.0452,0.1272"/>
  <path class="fil0 str0" d="M165.881 38.4592c-0.2901,0.0438 -0.5329,0.2429 -0.6327,0.5188"/>
  <path class="fil0 str0" d="M165.368 39.9068c0.5103,0.5597 1.1676,0.9649 1.8969,1.1694"/>
  <path class="fil0 str0" d="M165.203 39.1052c-0.0962,0.2772 -0.0331,0.5848 0.1646,0.8016"/>
  <path class="fil0 str0" d="M170.935 35.7403c0.247,0.3322 0.6944,0.4434 1.0681,0.2654 0.3737,-0.1781 0.5693,-0.5956 0.4668,-0.9967"/>
  <path class="fil0 str0" d="M168.357 34.5199c-0.0344,0.029 -0.0686,0.0582 -0.1027,0.0877"/>
  <path class="fil0 str0" d="M169.165 34.387c-0.2731,-0.1071 -0.583,-0.0561 -0.8074,0.1329"/>
  <path class="fil0 str0" d="M167.996 35.384c0.1621,0.7399 0.5287,1.4194 1.058,1.9612"/>
  <path class="fil0 str0" d="M168.255 34.6076c-0.2219,0.1918 -0.321,0.4898 -0.2582,0.7764"/>
  <path class="fil0 str0" d="M174.901 34.5595c0.0478,0.4112 0.3797,0.7312 0.7923,0.7638 0.4127,0.0327 0.7908,-0.2311 0.9026,-0.6297"/>
  <path class="fil0 str0" d="M173.279 32.2137c-0.0443,0.0079 -0.0886,0.0161 -0.1328,0.0245"/>
  <path class="fil0 str0" d="M174.045 32.5023c-0.183,-0.2294 -0.4769,-0.3401 -0.7657,-0.2886"/>
  <path class="fil0 str0" d="M172.534 32.7815c-0.2295,0.7218 -0.2518,1.4936 -0.0643,2.2275"/>
  <path class="fil0 str0" d="M173.146 32.2382c-0.2881,0.0552 -0.5229,0.2637 -0.6119,0.5433"/>
  <path class="fil0 str0" d="M178.926 35.5199c-0.1643,0.38 -0.0368,0.8231 0.3042,1.0577 0.3411,0.2346 0.8004,0.1952 1.0965,-0.0941"/>
  <path class="fil0 str0" d="M178.694 32.6773c-0.0423,-0.0153 -0.0848,-0.0304 -0.1273,-0.0451"/>
  <path class="fil0 str0" d="M179.213 33.31c-0.0438,-0.2901 -0.2429,-0.5329 -0.5188,-0.6327"/>
  <path class="fil0 str0" d="M177.766 32.7967c-0.5597,0.5104 -0.9649,1.1676 -1.1695,1.8969"/>
  <path class="fil0 str0" d="M178.567 32.6322c-0.2771,-0.0963 -0.5847,-0.0332 -0.8015,0.1645"/>
  <path class="fil0 str0" d="M183.152 35.7865c-0.029,-0.0345 -0.0583,-0.0687 -0.0877,-0.1028"/>
  <path class="fil0 str0" d="M183.285 36.5938c0.1071,-0.2731 0.0561,-0.5829 -0.1329,-0.8073"/>
  <path class="fil0 str0" d="M182.288 35.4255c-0.7399,0.1621 -1.4194,0.5287 -1.9613,1.058"/>
  <path class="fil0 str0" d="M183.065 35.6837c-0.1919,-0.2219 -0.4898,-0.321 -0.7764,-0.2582"/>
  <line class="fil0 str0" x1="201.35" y1="46.9045" x2="209.997" y2= "45.3059" />
  <line class="fil0 str0" x1="184.549" y1="44.8753" x2="194.244" y2= "43.0828" />
  <path class="fil0 str1" d="M176.422 42.5507c0,-0.7179 -0.582,-1.3 -1.3,-1.3 -0.7179,0 -1.3,0.5821 -1.3,1.3 0,0.718 0.5821,1.3 1.3,1.3 0.718,0 1.3,-0.582 1.3,-1.2999z"/>
  <line class="fil0 str0" x1="210.189" y1="44.4023" x2="197.002" y2= "35.3309" />
  <path class="fil0 str0" d="M209.997 45.3059c0.1989,-0.0368 0.356,-0.1897 0.3981,-0.3875 0.0422,-0.1978 -0.039,-0.4015 -0.2056,-0.5161"/>
  <line class="fil0 str0" x1="194.757" y1="34.8525" x2="183.095" y2= "37.0087" />
  <path class="fil0 str0" d="M197.002 35.3309c-0.6555,-0.451 -1.4633,-0.623 -2.2457,-0.4784"/>
  <line class="fil0 str0" x1="196.49" y1="43.5612" x2="201.35" y2= "46.9045" />
  <path class="fil0 str0" d="M196.49 43.5612c-0.6556,-0.451 -1.4634,-0.6231 -2.2458,-0.4784"/>
  <path class="fil0 str1" d="M73.2553 56.7501c0,-0.8285 -0.6717,-1.5 -1.5,-1.5 -0.8285,-0.0001 -1.5,0.6715 -1.5,1.4999 0,0.8284 0.6715,1.5 1.5,1.5001 0.8283,0 1.5,-0.6717 1.5,-1.5z"/>
  <path class="fil0 str1" d="M56.2553 56.7501c0,-0.8285 -0.6717,-1.5 -1.5,-1.5 -0.8285,-0.0001 -1.5,0.6715 -1.5,1.4999 0,0.8284 0.6715,1.5 1.5,1.5001 0.8283,0 1.5,-0.6717 1.5,-1.5z"/>
  <line class="fil0 str0" x1="71.7553" y1="59.0001" x2="54.7553" y2= "59.0001" />
  <path class="fil0 str0" d="M71.7553 59.0001c1.2426,0 2.25,-1.0074 2.25,-2.25 0,-1.2427 -1.0074,-2.25 -2.25,-2.25"/>
  <line class="fil0 str0" x1="54.7553" y1="54.5001" x2="71.7553" y2= "54.5001" />
  <path class="fil0 str0" d="M54.7553 54.5001c-0.8039,0 -1.5467,0.4288 -1.9486,1.125 -0.4019,0.6961 -0.4019,1.5538 0,2.25 0.4019,0.6961 1.1447,1.125 1.9486,1.125"/>
  <line class="fil0 str0" x1="69.9545" y1="66.0001" x2="54.7553" y2= "66.0001" />
  <path class="fil0 str0" d="M69.9545 66.0001c1.6569,0 3,-1.3432 3,-3 0,-1.6569 -1.3431,-3 -3,-3"/>
  <path class="fil0 str0" d="M51.7045 63.0001c0,-2.0711 -1.6789,-3.75 -3.75,-3.75 -2.071,-0.0001 -3.75,1.6789 -3.75,3.7499 0,2.0711 1.679,3.75 3.75,3.7501 2.0711,0 3.75,-1.679 3.75,-3.75z"/>
  <path class="fil0 str0" d="M71.2545 63.0001c0,-0.718 -0.582,-1.3 -1.3,-1.3 -0.7179,-0.0001 -1.3,0.582 -1.3,1.2999 0,0.718 0.5821,1.3 1.3,1.3001 0.718,0 1.3,-0.5821 1.3,-1.3z"/>
  <path class="fil0 str0" d="M51.5168 58.8096c-2.2266,-1.8929 -5.5447,-1.7138 -7.5547,0.4076 -2.0101,2.1214 -2.0101,5.4443 0,7.5657 2.01,2.1214 5.3281,2.3005 7.5547,0.4076"/>
  <path class="fil0 str0" d="M54.7553 66.0001c-1.1866,0 -2.3344,0.4219 -3.2385,1.1904"/>
  <line class="fil0 str0" x1="54.7553" y1="60.0001" x2="69.9545" y2= "60.0001" />
  <path class="fil0 str0" d="M51.5168 58.8096c0.9041,0.7685 2.0519,1.1905 3.2385,1.1905"/>
  <line class="fil0 str0" x1="57.9545" y1="64.0001" x2="62.9545" y2= "64.0001" />
  <path class="fil0 str0" d="M62.9545 64.0001c0.5523,0 1,-0.4478 1,-1 0,-0.5523 -0.4477,-1 -1,-1"/>
  <line class="fil0 str0" x1="62.9545" y1="62.0001" x2="57.9545" y2= "62.0001" />
  <path class="fil0 str0" d="M57.9545 62.0001c-0.3572,0 -0.6874,0.1905 -0.866,0.5 -0.1786,0.3094 -0.1786,0.6905 0,1 0.1786,0.3094 0.5088,0.5 0.866,0.5"/>
  <path class="fil0 str0" d="M256.155 142.964c0,-2.7614 -2.2386,-4.9999 -5,-5 -2.7614,0 -5,2.2386 -5,5 0,2.7615 2.2386,5 5,5 2.7614,0.0001 5,-2.2385 5,-4.9999z"/>
  <path class="fil0 str0" d="M252.705 142.964c0,-0.856 -0.694,-1.55 -1.55,-1.55 -0.856,0 -1.55,0.694 -1.55,1.55 0,0.8561 0.694,1.55 1.55,1.55 0.856,0.0001 1.55,-0.6939 1.55,-1.5499z"/>
  <path class="fil0 str0" d="M266.823 135.353c0,-2.7614 -2.2386,-5 -5,-5 -2.7614,0 -5,2.2386 -5,5 0,2.7614 2.2386,5 5,5 2.7614,0 5,-2.2386 5,-5z"/>
  <path class="fil0 str0" d="M263.373 135.353c0,-0.856 -0.694,-1.55 -1.55,-1.55 -0.856,0 -1.55,0.694 -1.55,1.55 0,0.856 0.694,1.55 1.55,1.55 0.856,0 1.55,-0.694 1.55,-1.55z"/>
  <path class="fil0 str0" d="M145.055 58.4445c0,-2.7614 -2.2386,-5 -5,-5 -2.7615,0 -5,2.2386 -5,5 0,2.7614 2.2385,5 4.9999,5 2.7615,0 5,-2.2386 5.0001,-5z"/>
  <path class="fil0 str0" d="M141.605 58.4445c0,-0.8561 -0.694,-1.55 -1.55,-1.55 -0.8561,0 -1.55,0.6939 -1.55,1.55 0,0.856 0.6939,1.55 1.55,1.55 0.856,0 1.55,-0.694 1.55,-1.55z"/>
  <path class="fil0 str0" d="M87.996 58.1761c0,-2.7614 -2.2386,-5 -5,-5 -2.7615,0 -5,2.2386 -5,5 0,2.7614 2.2385,5 4.9999,5 2.7615,0 5,-2.2386 5.0001,-5z"/>
  <path class="fil0 str0" d="M84.546 58.1761c0,-0.856 -0.694,-1.55 -1.55,-1.55 -0.8561,0 -1.55,0.694 -1.55,1.55 0,0.856 0.6939,1.55 1.55,1.55 0.856,0 1.55,-0.694 1.55,-1.55z"/>
  <path class="fil0 str0" d="M133.517 58.1967c0,-2.7614 -2.2385,-5 -4.9999,-5 -2.7615,0 -5,2.2386 -5.0001,5 0,2.7614 2.2386,5 5,5 2.7614,0 5,-2.2385 5,-5z"/>
  <path class="fil0 str0" d="M130.067 58.1967c0,-0.856 -0.6939,-1.55 -1.55,-1.55 -0.856,0 -1.55,0.694 -1.55,1.55 0,0.856 0.694,1.55 1.55,1.55 0.8561,0 1.55,-0.6939 1.55,-1.55z"/>
  <path class="fil0 str0" d="M121.828 58.4688c0,-2.7615 -2.2385,-5 -5,-5 -2.7614,0 -5,2.2385 -5,5 0,2.7614 2.2386,5 5,5 2.7614,0 5,-2.2386 5,-5z"/>
  <path class="fil0 str0" d="M118.378 58.4688c0,-0.8561 -0.6939,-1.55 -1.55,-1.55 -0.856,0 -1.55,0.6939 -1.55,1.55 0,0.856 0.694,1.55 1.55,1.55 0.8561,0 1.55,-0.694 1.55,-1.55z"/>
  <path class="fil0 str0" d="M98.9924 57.8974c0,-2.7614 -2.2385,-5 -5,-5 -2.7614,0 -5,2.2386 -5,5 0,2.7614 2.2386,5 5,5 2.7614,0 5,-2.2385 5,-5z"/>
  <path class="fil0 str0" d="M95.5424 57.8974c0,-0.856 -0.6939,-1.55 -1.55,-1.55 -0.856,0 -1.55,0.694 -1.55,1.55 0,0.856 0.694,1.55 1.55,1.55 0.8561,0 1.55,-0.6939 1.55,-1.55z"/>
  <path class="fil0 str0" d="M109.981 58.3995c0,-2.7614 -2.2386,-5 -5,-5 -2.7615,0 -5,2.2386 -5,5 0,2.7614 2.2385,5 4.9999,5 2.7615,0 5,-2.2385 5.0001,-5z"/>
  <path class="fil0 str0" d="M106.531 58.3995c0,-0.856 -0.694,-1.55 -1.55,-1.55 -0.8561,0 -1.55,0.694 -1.55,1.55 0,0.856 0.6939,1.55 1.55,1.55 0.856,0 1.55,-0.6939 1.55,-1.55z"/>
 </g>
</svg>
