solid Scrapper V1
facet normal 0.09283534441058772 0.9956814745823375 -1.3074611502604648e-06
outer loop
vertex 149.4739572745424 123.58640633837312 15.452655389219219
vertex 149.9956958848036 123.60620697157887 17.45265281581744
vertex 149.99568608498546 123.60620525903038 15.452652815842184
endloop
endfacet
facet normal -0.16802927171613996 0.985782006250136 -2.0771592907394184e-08
outer loop
vertex 149.9956958848036 123.60620697157887 17.45265281581744
vertex 149.4739572745424 123.58640633837312 15.452655389219219
vertex 149.47396707436053 123.58640805092162 17.452655389194476
endloop
endfacet
facet normal 0.5782385039142227 0.8158677788579268 -3.5319226553492822e-06
outer loop
vertex 148.50315174041776 123.94603343906849 15.452659838138631
vertex 148.96489140429543 123.70231711464906 17.45265778436902
vertex 148.96488160447728 123.70231540210057 15.452657784393764
endloop
endfacet
facet normal 0.347373385233399 0.9377268958631896 -2.50504939090502e-06
outer loop
vertex 148.96489140429543 123.70231711464906 17.45265778436902
vertex 148.50315174041776 123.94603343906849 15.452659838138631
vertex 148.5031615402359 123.94603515161698 17.452659838113888
endloop
endfacet
facet normal 0.9857820062379599 0.16802927171395202 -4.974121327540343e-06
outer loop
vertex 147.68806539475614 125.24170940582064 15.452662722533647
vertex 147.84223283589301 124.74288412377574 17.452662394283188
vertex 147.84222303607487 124.74288241122723 15.452662394307932
endloop
endfacet
facet normal 0.9087031232614529 0.41744297065796254 -4.810008337208034e-06
outer loop
vertex 147.84223283589301 124.74288412377574 17.452662394283188
vertex 147.68806539475614 125.24170940582064 15.452662722533647
vertex 147.68807519457425 125.24171111836915 17.452662722508904
endloop
endfacet
facet normal 0.9956814745711388 -0.0928353444158512 -4.799256169524931e-06
outer loop
vertex 147.66826647409692 125.76343821626985 15.452662372803614
vertex 147.68807519457425 125.24171111836915 17.452662722508904
vertex 147.68806539475614 125.24170940582064 15.452662722533647
endloop
endfacet
facet normal 0.9857820062379598 0.16802927171395143 -4.974121327540341e-06
outer loop
vertex 147.68807519457425 125.24171111836915 17.452662722508904
vertex 147.66826647409692 125.76343821626985 15.452662372803614
vertex 147.66827627391507 125.76343992881834 17.45266237277887
endloop
endfacet
facet normal 0.8158677788508543 -0.5782385039243806 -3.502547186947511e-06
outer loop
vertex 148.02789357478403 126.73424375040429 15.452659779387746
vertex 147.78418533763903 126.27251559888889 17.452661368926613
vertex 147.7841755378209 126.27251388634039 15.452661368951357
endloop
endfacet
facet normal 0.9377268958537338 -0.34737338524137606 -4.297329634702229e-06
outer loop
vertex 147.78418533763903 126.27251559888889 17.452661368926613
vertex 148.02789357478403 126.73424375040429 15.452659779387746
vertex 148.02790337460218 126.73424546295279 17.452659779363003
endloop
endfacet
facet normal 0.9999999999879956 0.0 -4.8999090659675366e-06
outer loop
vertex 174.21505627203942 200.12770033632532 15.450395901424162
vertex 174.21506607185756 112.12780125727865 17.450395901399418
vertex 174.21505627203942 112.12779954473015 15.450395901424162
endloop
endfacet
facet normal 0.9999999999879956 0.0 -4.8999090659675366e-06
outer loop
vertex 174.21506607185756 112.12780125727865 17.450395901399418
vertex 174.21505627203942 200.12770033632532 15.450395901424162
vertex 174.21506607185756 200.12770204887383 17.450395901399418
endloop
endfacet
facet normal 0.9377268958537343 -0.34737338524137545 -4.297329634702231e-06
outer loop
vertex 147.7841755378209 126.27251388634039 15.452661368951357
vertex 147.66827627391507 125.76343992881834 17.45266237277887
vertex 147.66826647409692 125.76343821626985 15.452662372803614
endloop
endfacet
facet normal 0.9956814745711386 -0.09283534441585196 -4.7992561695249305e-06
outer loop
vertex 147.66827627391507 125.76343992881834 17.45266237277887
vertex 147.7841755378209 126.27251388634039 15.452661368951357
vertex 147.78418533763903 126.27251559888889 17.452661368926613
endloop
endfacet
facet normal 0.7696976241376001 0.6384086210087453 -4.318101227609641e-06
outer loop
vertex 148.12023380955478 124.3009514678206 15.452661410494505
vertex 148.5031615402359 123.94603515161698 17.452659838113888
vertex 148.50315174041776 123.94603343906849 15.452659838138631
endloop
endfacet
facet normal 0.5782385039142224 0.815867778857927 -3.5319226553492814e-06
outer loop
vertex 148.5031615402359 123.94603515161698 17.452659838113888
vertex 148.12023380955478 124.3009514678206 15.452661410494505
vertex 148.12024360937292 124.3009531803691 17.452661410469762
endloop
endfacet
facet normal -0.9087031232614526 -0.4174429706579631 4.810008337208032e-06
outer loop
vertex 151.47704239024642 126.4126546564216 17.452643154265388
vertex 151.19902181694837 126.85458388727973 15.45264413810356
vertex 151.47703259042828 126.4126529438731 15.452643154290133
endloop
endfacet
facet normal -0.7696976241376002 -0.638408621008745 4.318101227609641e-06
outer loop
vertex 151.19902181694837 126.85458388727973 15.45264413810356
vertex 151.47704239024642 126.4126546564216 17.452643154265388
vertex 151.19903161676652 126.85458559982823 17.452644138078817
endloop
endfacet
facet normal 0.16802927171613974 -0.985782006250136 2.0771592907395286e-08
outer loop
vertex 149.32357934133583 127.54933180861846 17.45265273273114
vertex 148.82474254693074 127.39517245475153 15.452655308964015
vertex 149.32356954151768 127.54933009606995 15.452652732755881
endloop
endfacet
facet normal 0.4174429706569149 -0.9087031232737807 -1.2673335141756405e-06
outer loop
vertex 148.82474254693074 127.39517245475153 15.452655308964015
vertex 149.32357934133583 127.54933180861846 17.45265273273114
vertex 148.82475234674888 127.39517416730003 17.45265530893927
endloop
endfacet
facet normal 0.0 0.9999999999996334 -8.562742466336114e-07
outer loop
vertex 130.20962157044426 200.12770204887383 17.450395901399418
vertex 174.21505627203942 200.12770033632532 15.450395901424162
vertex 130.20961177062614 200.12770033632532 15.450395901424162
endloop
endfacet
facet normal 0.0 0.9999999999996334 -8.562742466336114e-07
outer loop
vertex 174.21505627203942 200.12770033632532 15.450395901424162
vertex 130.20962157044426 200.12770204887383 17.450395901399418
vertex 174.21506607185756 200.12770204887383 17.450395901399418
endloop
endfacet
facet normal 0.6384086210045525 -0.76969762414923 -2.469071936635287e-06
outer loop
vertex 148.3828116035304 127.11716168127022 15.452657712438915
vertex 148.02790337460218 126.73424546295279 17.452659779363003
vertex 148.02789357478403 126.73424375040429 15.452659779387746
endloop
endfacet
facet normal 0.8158677788508539 -0.578238503924381 -3.50254718694751e-06
outer loop
vertex 148.02790337460218 126.73424546295279 17.452659779363003
vertex 148.3828116035304 127.11716168127022 15.452657712438915
vertex 148.38282140334854 127.11716339381873 17.452657712414172
endloop
endfacet
facet normal -0.7696976241376001 -0.6384086210087453 4.318101227609641e-06
outer loop
vertex 151.19903161676652 126.85458559982823 17.452644138078817
vertex 150.8161038860854 127.20950191603185 15.452645710459434
vertex 151.19902181694837 126.85458388727973 15.45264413810356
endloop
endfacet
facet normal -0.5782385039142224 -0.815867778857927 3.5319226553492814e-06
outer loop
vertex 150.8161038860854 127.20950191603185 15.452645710459434
vertex 151.19903161676652 126.85458559982823 17.452644138078817
vertex 150.81611368590353 127.20950362858035 17.45264571043469
endloop
endfacet
facet normal 0.4174429706569143 -0.9087031232737811 -1.2673335141756377e-06
outer loop
vertex 148.82475234674888 127.39517416730003 17.45265530893927
vertex 148.3828116035304 127.11716168127022 15.452657712438915
vertex 148.82474254693074 127.39517245475153 15.452655308964015
endloop
endfacet
facet normal 0.6384086210045525 -0.76969762414923 -2.469071936635287e-06
outer loop
vertex 148.3828116035304 127.11716168127022 15.452657712438915
vertex 148.82475234674888 127.39517416730003 17.45265530893927
vertex 148.38282140334854 127.11716339381873 17.452657712414172
endloop
endfacet
facet normal -0.16802927171613974 0.985782006250136 -2.0771592907395286e-08
outer loop
vertex 149.99568608498546 123.60620525903038 15.452652815842184
vertex 150.49452287939056 123.76036461289729 17.452650239609305
vertex 150.4945130795724 123.7603629003488 15.45265023963405
endloop
endfacet
facet normal -0.4174429706569149 0.9087031232737807 1.2673335141756405e-06
outer loop
vertex 150.49452287939056 123.76036461289729 17.452650239609305
vertex 149.99568608498546 123.60620525903038 15.452652815842184
vertex 149.9956958848036 123.60620697157887 17.45265281581744
endloop
endfacet
facet normal 0.34737338523339956 0.9377268958631895 -2.505049390905023e-06
outer loop
vertex 148.96488160447728 123.70231540210057 15.452657784393764
vertex 149.47396707436053 123.58640805092162 17.452655389194476
vertex 149.4739572745424 123.58640633837312 15.452655389219219
endloop
endfacet
facet normal 0.09283534441058727 0.9956814745823376 -1.307461150260463e-06
outer loop
vertex 149.47396707436053 123.58640805092162 17.452655389194476
vertex 148.96488160447728 123.70231540210057 15.452657784393764
vertex 148.96489140429543 123.70231711464906 17.45265778436902
endloop
endfacet
facet normal -0.09283534441058772 -0.9956814745823375 1.3074611502604648e-06
outer loop
vertex 149.84530815177888 127.56913072927571 17.452650159354103
vertex 149.32356954151768 127.54933009606995 15.452652732755881
vertex 149.84529835196074 127.56912901672722 15.452650159378846
endloop
endfacet
facet normal 0.16802927171613996 -0.985782006250136 2.0771592907394184e-08
outer loop
vertex 149.32356954151768 127.54933009606995 15.452652732755881
vertex 149.84530815177888 127.56913072927571 17.452650159354103
vertex 149.32357934133583 127.54933180861846 17.45265273273114
endloop
endfacet
facet normal 2.2830857017887583e-06 -0.9999999999970273 8.562630597190512e-07
outer loop
vertex 174.21506607185756 112.12780125727865 17.450395901399418
vertex 130.20961177062614 112.12769907652901 15.450395901424162
vertex 174.21505627203942 112.12779954473015 15.450395901424162
endloop
endfacet
facet normal 2.2830857017887583e-06 -0.9999999999970273 8.562630597190512e-07
outer loop
vertex 130.20961177062614 112.12769907652901 15.450395901424162
vertex 174.21506607185756 112.12780125727865 17.450395901399418
vertex 130.20962157044426 112.12770078907751 17.450395901399418
endloop
endfacet
facet normal -0.9999999999879955 0.0 4.899909065967536e-06
outer loop
vertex 130.20962157044426 112.12770078907751 17.450395901399418
vertex 130.20961177062614 200.12770033632532 15.450395901424162
vertex 130.20961177062614 112.12769907652901 15.450395901424162
endloop
endfacet
facet normal -0.9999999999879955 0.0 4.899909065967536e-06
outer loop
vertex 130.20961177062614 200.12770033632532 15.450395901424162
vertex 130.20962157044426 112.12770078907751 17.450395901399418
vertex 130.20962157044426 200.12770204887383 17.450395901399418
endloop
endfacet
facet normal -0.9857820062379599 -0.16802927171395202 4.974121327540343e-06
outer loop
vertex 151.63120003156516 125.91382766182818 17.452642826039675
vertex 151.47703259042828 126.4126529438731 15.452643154290133
vertex 151.631190231747 125.91382594927968 15.452642826064418
endloop
endfacet
facet normal -0.9087031232614529 -0.41744297065796254 4.810008337208034e-06
outer loop
vertex 151.47703259042828 126.4126529438731 15.452643154290133
vertex 151.63120003156516 125.91382766182818 17.452642826039675
vertex 151.47704239024642 126.4126546564216 17.452643154265388
endloop
endfacet
facet normal 0.9087031232614526 0.4174429706579631 -4.810008337208032e-06
outer loop
vertex 147.84222303607487 124.74288241122723 15.452662394307932
vertex 148.12024360937292 124.3009531803691 17.452661410469762
vertex 148.12023380955478 124.3009514678206 15.452661410494505
endloop
endfacet
facet normal 0.7696976241376002 0.638408621008745 -4.318101227609641e-06
outer loop
vertex 148.12024360937292 124.3009531803691 17.452661410469762
vertex 147.84222303607487 124.74288241122723 15.452662394307932
vertex 147.84223283589301 124.74288412377574 17.452662394283188
endloop
endfacet
facet normal -0.34737338523339956 -0.9377268958631895 2.505049390905023e-06
outer loop
vertex 150.35438382184398 127.45322166554827 17.452647764179556
vertex 149.84529835196074 127.56912901672722 15.452650159378846
vertex 150.35437402202587 127.45321995299976 15.4526477642043
endloop
endfacet
facet normal -0.09283534441058727 -0.9956814745823376 1.307461150260463e-06
outer loop
vertex 149.84529835196074 127.56912901672722 15.452650159378846
vertex 150.35438382184398 127.45322166554827 17.452647764179556
vertex 149.84530815177888 127.56913072927571 17.452650159354103
endloop
endfacet
facet normal 0.4999999987681557 -0.866025404493959 -1.7083992761783484e-06
outer loop
vertex 138.25837979564056 118.22652609533823 17.450977261641984
vertex 137.94770982395966 117.98814644952643 15.450978987990206
vertex 138.25836999582242 118.22652438278973 15.45097726166673
endloop
endfacet
facet normal 0.707106780177165 -0.707106782190149 -2.8592815956291893e-06
outer loop
vertex 137.94770982395966 117.98814644952643 15.450978987990206
vertex 138.25837979564056 118.22652609533823 17.450977261641984
vertex 137.9477196237778 117.98814816207492 17.450978987965463
endloop
endfacet
facet normal -1.415480082930298e-09 -0.9999999999996333 8.562742535693352e-07
outer loop
vertex 139.00837979531062 118.42748798843454 17.450973414631694
vertex 138.6201414280844 118.37637501591206 15.450975360706371
vertex 139.00836999549247 118.42748627588603 15.450973414656437
endloop
endfacet
facet normal 0.2588190437321676 -0.9659258266561525 -4.4109236931927166e-07
outer loop
vertex 138.6201414280844 118.37637501591206 15.450975360706371
vertex 139.00837979531062 118.42748798843454 17.450973414631694
vertex 138.6201512279025 118.37637672846056 17.45097536068163
endloop
endfacet
facet normal -0.8158677788508543 0.5782385039243806 3.502547186947511e-06
outer loop
vertex 151.29137185153726 124.42129331724455 17.452645769185576
vertex 151.53508008868226 124.88302146875994 15.452644179646708
vertex 151.29136205171912 124.42129160469605 15.452645769210319
endloop
endfacet
facet normal -0.9377268958537338 0.34737338524137606 4.297329634702229e-06
outer loop
vertex 151.53508008868226 124.88302146875994 15.452644179646708
vertex 151.29137185153726 124.42129331724455 17.452645769185576
vertex 151.5350898885004 124.88302318130843 17.452644179621966
endloop
endfacet
facet normal -0.9999999999879956 1.4196865545343134e-09 4.899909064751895e-06
outer loop
vertex 140.50837979195862 116.92748798751633 17.450967349179482
vertex 140.45725873216549 117.31571484238067 15.450967267214626
vertex 140.50836999214047 116.92748627496783 15.450967349204223
endloop
endfacet
facet normal -0.9659258266438233 -0.2588190437311341 4.954568796766464e-06
outer loop
vertex 140.45725873216549 117.31571484238067 15.450967267214626
vertex 140.50837979195862 116.92748798751633 17.450967349179482
vertex 140.45726853198363 117.31571655492917 17.45096726718988
endloop
endfacet
facet normal 0.2588190437321668 -0.9659258266561527 -4.410923693192677e-07
outer loop
vertex 138.6201512279025 118.37637672846056 17.45097536068163
vertex 138.25836999582242 118.22652438278973 15.45097726166673
vertex 138.6201414280844 118.37637501591206 15.450975360706371
endloop
endfacet
facet normal 0.49999999876815665 -0.8660254044939586 -1.7083992761783537e-06
outer loop
vertex 138.25836999582242 118.22652438278973 15.45097726166673
vertex 138.6201512279025 118.37637672846056 17.45097536068163
vertex 138.25837979564056 118.22652609533823 17.450977261641984
endloop
endfacet
facet normal -0.5782385039142227 -0.8158677788579268 3.5319226553492822e-06
outer loop
vertex 150.81611368590353 127.20950362858035 17.45264571043469
vertex 150.35437402202587 127.45321995299976 15.4526477642043
vertex 150.8161038860854 127.20950191603185 15.452645710459434
endloop
endfacet
facet normal -0.347373385233399 -0.9377268958631896 2.50504939090502e-06
outer loop
vertex 150.35437402202587 127.45321995299976 15.4526477642043
vertex 150.81611368590353 127.20950362858035 17.45264571043469
vertex 150.35438382184398 127.45322166554827 17.452647764179556
endloop
endfacet
facet normal 0.9999999999879955 -2.097833054745171e-12 -4.89990906596574e-06
outer loop
vertex 131.20961174213323 128.42769904346287 15.45172112402067
vertex 131.20962154195138 122.72770075601241 17.451723564377627
vertex 131.20961174213323 122.72769904346391 15.45172356440237
endloop
endfacet
facet normal 0.9999999999879955 -2.097833054745171e-12 -4.89990906596574e-06
outer loop
vertex 131.20962154195138 122.72770075601241 17.451723564377627
vertex 131.20961174213323 128.42769904346287 15.45172112402067
vertex 131.20962154195138 128.42770075601138 17.451721123995927
endloop
endfacet
facet normal -0.9377268958537343 0.34737338524137545 4.297329634702231e-06
outer loop
vertex 151.5350898885004 124.88302318130843 17.452644179621966
vertex 151.65098915240623 125.39209713883048 15.45264317579445
vertex 151.53508008868226 124.88302146875994 15.452644179646708
endloop
endfacet
facet normal -0.9956814745711386 0.09283534441585196 4.7992561695249305e-06
outer loop
vertex 151.65098915240623 125.39209713883048 15.45264317579445
vertex 151.5350898885004 124.88302318130843 17.452644179621966
vertex 151.65099895222437 125.39209885137899 17.45264317576971
endloop
endfacet
facet normal -0.9659258259111193 0.258819046473728 4.511328627457087e-06
outer loop
vertex 140.45726853088456 116.53925942024864 17.450967932050133
vertex 140.50836999214047 116.92748627496783 15.450967349204223
vertex 140.45725873106642 116.53925770770014 15.450967932074878
endloop
endfacet
facet normal -0.9999999999879955 1.4196874189119698e-09 4.899909064751894e-06
outer loop
vertex 140.50836999214047 116.92748627496783 15.450967349204223
vertex 140.45726853088456 116.53925942024864 17.450967932050133
vertex 140.50837979195862 116.92748798751633 17.450967349179482
endloop
endfacet
facet normal -0.2588190464666792 -0.9659258259212705 2.0952872011373664e-06
outer loop
vertex 139.396608362574 118.37637672735823 17.450971556112275
vertex 139.00836999549247 118.42748627588603 15.450973414656437
vertex 139.39659856275586 118.37637501480974 15.450971556137016
endloop
endfacet
facet normal -1.4154795037081547e-09 -0.9999999999996333 8.562742535693322e-07
outer loop
vertex 139.00836999549247 118.42748627588603 15.450973414656437
vertex 139.396608362574 118.37637672735823 17.450971556112275
vertex 139.00837979531062 118.42748798843454 17.450973414631694
endloop
endfacet
facet normal -0.70710678217896 -0.7071067801824206 4.070236258137853e-06
outer loop
vertex 140.06903996559967 117.98814815906334 17.45096859368869
vertex 139.75836999459364 118.22652438066021 15.450969911803137
vertex 140.06903016578153 117.98814644651483 15.450968593713434
endloop
endfacet
facet normal -0.5000000012198372 -0.8660254030742845 3.1915097885735444e-06
outer loop
vertex 139.75836999459364 118.22652438066021 15.450969911803137
vertex 140.06903996559967 117.98814815906334 17.45096859368869
vertex 139.75837979441175 118.2265260932087 17.450969911778394
endloop
endfacet
facet normal -0.4174429706569143 0.9087031232737811 1.2673335141756377e-06
outer loop
vertex 150.4945130795724 123.7603629003488 15.45265023963405
vertex 150.9364538227909 124.0383753863786 17.452647836134407
vertex 150.93644402297275 124.03837367383011 15.45264783615915
endloop
endfacet
facet normal -0.6384086210045525 0.76969762414923 2.469071936635287e-06
outer loop
vertex 150.9364538227909 124.0383753863786 17.452647836134407
vertex 150.4945130795724 123.7603629003488 15.45265023963405
vertex 150.49452287939056 123.76036461289729 17.452650239609305
endloop
endfacet
facet normal -7.988462256201326e-14 0.9999999999996335 -8.562742466332203e-07
outer loop
vertex 131.20961174213323 122.72769904346391 15.45172356440237
vertex 144.659621541952 122.7277007560114 17.451721123995803
vertex 144.65961174213385 122.72769904346289 15.451721124020546
endloop
endfacet
facet normal -7.988462256201326e-14 0.9999999999996335 -8.562742466332203e-07
outer loop
vertex 144.659621541952 122.7277007560114 17.451721123995803
vertex 131.20961174213323 122.72769904346391 15.45172356440237
vertex 131.20962154195138 122.72770075601241 17.451723564377627
endloop
endfacet
facet normal -0.6384086210045525 0.76969762414923 2.469071936635287e-06
outer loop
vertex 150.9364538227909 124.0383753863786 17.452647836134407
vertex 151.29136205171912 124.42129160469605 15.452645769210319
vertex 150.93644402297275 124.03837367383011 15.45264783615915
endloop
endfacet
facet normal -0.8158677788508539 0.578238503924381 3.50254718694751e-06
outer loop
vertex 151.29136205171912 124.42129160469605 15.452645769210319
vertex 150.9364538227909 124.0383753863786 17.452647836134407
vertex 151.29137185153726 124.42129331724455 17.452645769185576
endloop
endfacet
facet normal -0.9956814745711388 0.0928353444158512 4.799256169524931e-06
outer loop
vertex 151.65099895222437 125.39209885137899 17.45264317576971
vertex 151.631190231747 125.91382594927968 15.452642826064418
vertex 151.65098915240623 125.39209713883048 15.45264317579445
endloop
endfacet
facet normal -0.9857820062379598 -0.16802927171395143 4.974121327540341e-06
outer loop
vertex 151.631190231747 125.91382594927968 15.452642826064418
vertex 151.65099895222437 125.39209885137899 17.45264317576971
vertex 151.63120003156516 125.91382766182818 17.452642826039675
endloop
endfacet
facet normal -0.5000000012198375 -0.8660254030742845 3.1915097885735457e-06
outer loop
vertex 139.75837979441175 118.2265260932087 17.450969911778394
vertex 139.39659856275586 118.37637501480974 15.450971556137016
vertex 139.75836999459364 118.22652438066021 15.450969911803137
endloop
endfacet
facet normal -0.25881904646667875 -0.9659258259212707 2.0952872011373647e-06
outer loop
vertex 139.39659856275586 118.37637501480974 15.450971556137016
vertex 139.75837979441175 118.2265260932087 17.450969911778394
vertex 139.396608362574 118.37637672735823 17.450971556112275
endloop
endfacet
facet normal 0.8660254037740445 -0.5000000000034465 -3.815308604041664e-06
outer loop
vertex 137.7103447180622 196.07769860138632 15.453020735250416
vertex 137.560503884127 195.7159288815937 17.45302177925571
vertex 137.56049408430886 195.7159271690452 15.453021779280453
endloop
endfacet
facet normal 0.9659258262774717 -0.25881904510648285 -4.511328630422918e-06
outer loop
vertex 137.560503884127 195.7159288815937 17.45302177925571
vertex 137.7103447180622 196.07769860138632 15.453020735250416
vertex 137.71035451788035 196.0777003139348 17.453020735225675
endloop
endfacet
facet normal -0.9999999999879955 -1.0686182715500948e-13 4.899909065967629e-06
outer loop
vertex 144.659621541952 122.7277007560114 17.451721123995803
vertex 144.65961174213325 128.42769904346287 15.451721124020475
vertex 144.65961174213385 122.72769904346289 15.451721124020546
endloop
endfacet
facet normal -0.9999999999879955 -1.0686182715500948e-13 4.899909065967629e-06
outer loop
vertex 144.65961174213325 128.42769904346287 15.451721124020475
vertex 144.659621541952 122.7277007560114 17.451721123995803
vertex 144.65962154195137 128.42770075601138 17.451721123995732
endloop
endfacet
facet normal 1.2387499078135741e-20 -0.9999999999996335 8.562742466336116e-07
outer loop
vertex 144.65962154195137 128.42770075601138 17.451721123995732
vertex 131.20961174213323 128.42769904346287 15.45172112402067
vertex 144.65961174213325 128.42769904346287 15.451721124020475
endloop
endfacet
facet normal 1.2387499078135741e-20 -0.9999999999996335 8.562742466336116e-07
outer loop
vertex 131.20961174213323 128.42769904346287 15.45172112402067
vertex 144.65962154195137 128.42770075601138 17.451721123995732
vertex 131.20962154195138 128.42770075601138 17.451721123995927
endloop
endfacet
facet normal 0.9659258262774718 -0.258819045106482 -4.51132863042292e-06
outer loop
vertex 137.56049408430886 195.7159271690452 15.453021779280453
vertex 137.5093926235618 195.32770031394492 17.453022362126365
vertex 137.50938282374366 195.32769860139643 15.453022362151108
endloop
endfacet
facet normal 0.9999999999879955 -4.195831738804938e-12 -4.8999090659639434e-06
outer loop
vertex 137.5093926235618 195.32770031394492 17.453022362126365
vertex 137.56049408430886 195.7159271690452 15.453021779280453
vertex 137.560503884127 195.7159288815937 17.45302177925571
endloop
endfacet
facet normal 1.1174531809141231e-14 -0.9999999999996335 8.56274246633557e-07
outer loop
vertex 139.0093926235258 196.82770031392008 17.453013727851395
vertex 138.62115425606322 196.77658734080745 15.453015673926073
vertex 139.00938282370768 196.8276986013716 15.45301372787614
endloop
endfacet
facet normal 0.2588190450994057 -0.9659258262898022 -4.410923763323101e-07
outer loop
vertex 138.62115425606322 196.77658734080745 15.453015673926073
vertex 139.0093926235258 196.82770031392008 17.453013727851395
vertex 138.62116405588134 196.77658905335593 17.45301567390133
endloop
endfacet
facet normal -0.707106781178057 0.7071067811892571 2.8592816013905067e-06
outer loop
vertex 140.07005279528016 194.26704014216747 17.453010723340363
vertex 140.30842092935313 194.57769860139396 15.453009289324601
vertex 140.07004299546202 194.26703842961896 15.453010723365106
endloop
endfacet
facet normal -0.866025403774044 0.5000000000034474 3.8153086040416605e-06
outer loop
vertex 140.30842092935313 194.57769860139396 15.453009289324601
vertex 140.07005279528016 194.26704014216747 17.453010723340363
vertex 140.30843072917128 194.57770031394244 17.453009289299857
endloop
endfacet
facet normal 0.49999999999401795 0.8660254037820115 -3.1915097831731503e-06
outer loop
vertex 138.25938282372567 194.02866049573268 15.453019799552182
vertex 138.62116405588134 193.87881157452458 17.453018155193558
vertex 138.62115425606322 193.87880986197607 15.4530181552183
endloop
endfacet
facet normal 0.25881904509940507 0.9659258262876307 -2.0952871947515524e-06
outer loop
vertex 138.62116405588134 193.87881157452458 17.453018155193558
vertex 138.25938282372567 194.02866049573268 15.453019799552182
vertex 138.2593926235438 194.0286622082812 17.45301979952744
endloop
endfacet
facet normal -0.9659258266438233 -0.25881904373113457 4.954568796766464e-06
outer loop
vertex 140.45726853198363 117.31571655492917 17.45096726718988
vertex 140.30740809904336 117.67748627464746 15.45096769169354
vertex 140.45725873216549 117.31571484238067 15.450967267214626
endloop
endfacet
facet normal -0.8660254044817789 -0.4999999987703478 4.671582853093454e-06
outer loop
vertex 140.30740809904336 117.67748627464746 15.45096769169354
vertex 140.45726853198363 117.31571655492917 17.45096726718988
vertex 140.3074178988615 117.67748798719597 17.450967691668797
endloop
endfacet
facet normal -0.8660254044817788 -0.499999998770348 4.671582853093453e-06
outer loop
vertex 140.3074178988615 117.67748798719597 17.450967691668797
vertex 140.06903016578153 117.98814644651483 15.450968593713434
vertex 140.30740809904336 117.67748627464746 15.45096769169354
endloop
endfacet
facet normal -0.7071067821789603 -0.7071067801824205 4.070236258137854e-06
outer loop
vertex 140.06903016578153 117.98814644651483 15.450968593713434
vertex 140.3074178988615 117.67748798719597 17.450967691668797
vertex 140.06903996559967 117.98814815906334 17.45096859368869
endloop
endfacet
facet normal 0.2588190450994055 0.9659258262876306 -2.0952871947515545e-06
outer loop
vertex 138.62115425606322 193.87880986197607 15.4530181552183
vertex 139.0093926235258 193.82770031395717 17.453016296674136
vertex 139.00938282370768 193.82769860140868 15.453016296698877
endloop
endfacet
facet normal -1.1994353919540701e-14 0.9999999999996334 -8.562742466335526e-07
outer loop
vertex 139.0093926235258 193.82770031395717 17.453016296674136
vertex 138.62115425606322 193.87880986197607 15.4530181552183
vertex 138.62116405588134 193.87881157452458 17.453018155193558
endloop
endfacet
facet normal -0.9999999999879955 4.195412916639838e-12 4.899909065963944e-06
outer loop
vertex 140.5093926234898 195.32770031393233 17.453007662399166
vertex 140.45827156310648 195.71592716903302 15.453007580434313
vertex 140.50938282367167 195.32769860138384 15.453007662423909
endloop
endfacet
facet normal -0.9659258262774724 -0.25881904509837406 4.954568796142109e-06
outer loop
vertex 140.45827156310648 195.71592716903302 15.453007580434313
vertex 140.5093926234898 195.32770031393233 17.453007662399166
vertex 140.45828136292462 195.71592888158153 17.453007580409572
endloop
endfacet
facet normal -0.9659258262774723 -0.25881904509837433 4.954568796142109e-06
outer loop
vertex 140.45828136292462 195.71592888158153 17.453007580409572
vertex 140.30842092935313 196.0776986013754 15.453008004913231
vertex 140.45827156310648 195.71592716903302 15.453007580434313
endloop
endfacet
facet normal -0.86602540377404 -0.4999999999961874 4.671582850675253e-06
outer loop
vertex 140.30842092935313 196.0776986013754 15.453008004913231
vertex 140.45828136292462 195.71592888158153 17.453007580409572
vertex 140.30843072917128 196.0777003139239 17.45300800488849
endloop
endfacet
facet normal 4.899909065965741e-06 8.562742466233324e-07 0.999999999987629
outer loop
vertex 144.65962154195137 128.42770075601138 17.451721123995732
vertex 137.5093926235618 195.32770031394492 17.453022362126365
vertex 131.20962154195138 128.42770075601138 17.451721123995927
endloop
endfacet
facet normal 4.899909065965741e-06 8.562742466233324e-07 0.999999999987629
outer loop
vertex 137.5093926235618 195.32770031394492 17.453022362126365
vertex 144.65962154195137 128.42770075601138 17.451721123995732
vertex 137.560503884127 194.93947174629574 17.45302244411596
endloop
endfacet
facet normal 4.899909065965741e-06 8.562742466233324e-07 0.999999999987629
outer loop
vertex 137.560503884127 194.93947174629574 17.45302244411596
vertex 144.65962154195137 128.42770075601138 17.451721123995732
vertex 137.71035451788035 194.57770031395336 17.453022019637043
endloop
endfacet
facet normal 4.899909065965741e-06 8.562742466233324e-07 0.999999999987629
outer loop
vertex 137.71035451788035 194.57770031395336 17.453022019637043
vertex 144.65962154195137 128.42770075601138 17.451721123995732
vertex 137.94873245177146 194.26704014217637 17.453021117617148
endloop
endfacet
facet normal 4.899909065965741e-06 8.562742466233324e-07 0.999999999987629
outer loop
vertex 137.94873245177146 194.26704014217637 17.453021117617148
vertex 144.65962154195137 128.42770075601138 17.451721123995732
vertex 138.2593926235438 194.0286622082812 17.45301979952744
endloop
endfacet
facet normal 4.899909065965741e-06 8.562742466233324e-07 0.999999999987629
outer loop
vertex 138.2593926235438 194.0286622082812 17.45301979952744
vertex 144.65962154195137 128.42770075601138 17.451721123995732
vertex 138.62116405588134 193.87881157452458 17.453018155193558
endloop
endfacet
facet normal 4.899909065965741e-06 8.562742466233324e-07 0.999999999987629
outer loop
vertex 138.62116405588134 193.87881157452458 17.453018155193558
vertex 144.65962154195137 128.42770075601138 17.451721123995732
vertex 139.0093926235258 193.82770031395717 17.453016296674136
endloop
endfacet
facet normal 4.899909065965741e-06 8.562742466233324e-07 0.999999999987629
outer loop
vertex 139.0093926235258 193.82770031395717 17.453016296674136
vertex 144.65962154195137 128.42770075601138 17.451721123995732
vertex 139.39762119117026 193.8788115745213 17.4530143506242
endloop
endfacet
facet normal 4.899909065965741e-06 8.562742466233324e-07 0.999999999987629
outer loop
vertex 139.39762119117026 193.8788115745213 17.4530143506242
vertex 144.65962154195137 128.42770075601138 17.451721123995732
vertex 139.7593926235078 194.02866220827488 17.45301244966384
endloop
endfacet
facet normal 4.899909065965741e-06 8.562742466233324e-07 0.999999999987629
outer loop
vertex 139.7593926235078 194.02866220827488 17.45301244966384
vertex 144.65962154195137 128.42770075601138 17.451721123995732
vertex 140.07005279528016 194.26704014216747 17.453010723340363
endloop
endfacet
facet normal 4.899909065965741e-06 8.562742466233324e-07 0.999999999987629
outer loop
vertex 140.07005279528016 194.26704014216747 17.453010723340363
vertex 144.65962154195137 128.42770075601138 17.451721123995732
vertex 140.30843072917128 194.57770031394244 17.453009289299857
endloop
endfacet
facet normal 4.899909065965741e-06 8.562742466233324e-07 0.999999999987629
outer loop
vertex 140.30843072917128 194.57770031394244 17.453009289299857
vertex 144.65962154195137 128.42770075601138 17.451721123995732
vertex 140.45828136292462 194.93947174628357 17.45300824526982
endloop
endfacet
facet normal 4.899909065965741e-06 8.562742466233324e-07 0.999999999987629
outer loop
vertex 140.45828136292462 194.93947174628357 17.45300824526982
vertex 144.65962154195137 128.42770075601138 17.451721123995732
vertex 140.5093926234898 195.32770031393233 17.453007662399166
endloop
endfacet
facet normal 4.899909065965741e-06 8.562742466233324e-07 0.999999999987629
outer loop
vertex 130.20962157044426 112.12770078907751 17.450395901399418
vertex 131.20962154195138 122.72770075601241 17.451723564377627
vertex 130.20962157044426 200.12770204887383 17.450395901399418
endloop
endfacet
facet normal 4.899909065965741e-06 8.562742466233324e-07 0.999999999987629
outer loop
vertex 131.20962154195138 122.72770075601241 17.451723564377627
vertex 130.20962157044426 112.12770078907751 17.450395901399418
vertex 137.9477196207751 115.86682782022838 17.450980804397453
endloop
endfacet
facet normal 4.899909065965741e-06 8.562742466233324e-07 0.999999999987629
outer loop
vertex 137.9477196207751 115.86682782022838 17.450980804397453
vertex 130.20962157044426 112.12770078907751 17.450395901399418
vertex 138.25837979196302 115.628449886083 17.450979486307748
endloop
endfacet
facet normal 4.899909065965741e-06 8.562742466233324e-07 0.999999999987629
outer loop
vertex 138.25837979196302 115.628449886083 17.450979486307748
vertex 130.20962157044426 112.12770078907751 17.450395901399418
vertex 138.62015122380078 115.47859925193347 17.45097784197387
endloop
endfacet
facet normal 4.899909065965741e-06 8.562742466233324e-07 0.999999999987629
outer loop
vertex 138.62015122380078 115.47859925193347 17.45097784197387
vertex 130.20962157044426 112.12770078907751 17.450395901399418
vertex 139.00837979106416 115.42748799085719 17.45097598345445
endloop
endfacet
facet normal 4.899909065965741e-06 8.562742466233324e-07 0.999999999987629
outer loop
vertex 139.00837979106416 115.42748799085719 17.45097598345445
vertex 130.20962157044426 112.12770078907751 17.450395901399418
vertex 174.21506607185756 112.12780125727865 17.450395901399418
endloop
endfacet
facet normal 4.899909065965741e-06 8.562742466233324e-07 0.999999999987629
outer loop
vertex 131.20962154195138 122.72770075601241 17.451723564377627
vertex 137.9477196207751 115.86682782022838 17.450980804397453
vertex 137.7093416875133 116.17748799209575 17.450981706417345
endloop
endfacet
facet normal 4.899909065965741e-06 8.562742466233324e-07 0.999999999987629
outer loop
vertex 131.20962154195138 122.72770075601241 17.451723564377627
vertex 137.7093416875133 116.17748799209575 17.450981706417345
vertex 137.55949105439117 116.53925942436254 17.45098213089626
endloop
endfacet
facet normal 4.899909065965741e-06 8.562742466233324e-07 0.999999999987629
outer loop
vertex 131.20962154195138 122.72770075601241 17.451723564377627
vertex 137.55949105439117 116.53925942436254 17.45098213089626
vertex 137.5083797944162 116.92748799177538 17.450982048906663
endloop
endfacet
facet normal 4.899909065965741e-06 8.562742466233324e-07 0.999999999987629
outer loop
vertex 139.00837979106416 115.42748799085719 17.45097598345445
vertex 174.21506607185756 112.12780125727865 17.450395901399418
vertex 139.39660835847226 115.47859925083115 17.450974037404517
endloop
endfacet
facet normal 4.899909065965741e-06 8.562742466233324e-07 0.999999999987629
outer loop
vertex 139.39660835847226 115.47859925083115 17.450974037404517
vertex 174.21506607185756 112.12780125727865 17.450395901399418
vertex 139.75837979073424 115.62844988395348 17.450972136444157
endloop
endfacet
facet normal 4.899909065965741e-06 8.562742466233324e-07 0.999999999987629
outer loop
vertex 139.75837979073424 115.62844988395348 17.450972136444157
vertex 174.21506607185756 112.12780125727865 17.450395901399418
vertex 140.06903996259697 115.86682781721679 17.45097041012068
endloop
endfacet
facet normal 4.899909065965741e-06 8.562742466233324e-07 0.999999999987629
outer loop
vertex 140.06903996259697 115.86682781721679 17.45097041012068
vertex 174.21506607185756 112.12780125727865 17.450395901399418
vertex 140.3074178967383 116.17748798840732 17.450968976080176
endloop
endfacet
facet normal 4.899909065965741e-06 8.562742466233324e-07 0.999999999987629
outer loop
vertex 140.3074178967383 116.17748798840732 17.450968976080176
vertex 174.21506607185756 112.12780125727865 17.450395901399418
vertex 140.45726853088456 116.53925942024864 17.450967932050133
endloop
endfacet
facet normal 4.899909065965741e-06 8.562742466233324e-07 0.999999999987629
outer loop
vertex 140.45726853088456 116.53925942024864 17.450967932050133
vertex 174.21506607185756 112.12780125727865 17.450395901399418
vertex 140.50837979195862 116.92748798751633 17.450967349179482
endloop
endfacet
facet normal 4.899909065965741e-06 8.562742466233324e-07 0.999999999987629
outer loop
vertex 140.50837979195862 116.92748798751633 17.450967349179482
vertex 174.21506607185756 112.12780125727865 17.450395901399418
vertex 144.659621541952 122.7277007560114 17.451721123995803
endloop
endfacet
facet normal 4.899909065965741e-06 8.562742466233324e-07 0.999999999987629
outer loop
vertex 144.659621541952 122.7277007560114 17.451721123995803
vertex 174.21506607185756 112.12780125727865 17.450395901399418
vertex 148.96489140429543 123.70231711464906 17.45265778436902
endloop
endfacet
facet normal 4.899909065965741e-06 8.562742466233324e-07 0.999999999987629
outer loop
vertex 144.659621541952 122.7277007560114 17.451721123995803
vertex 148.96489140429543 123.70231711464906 17.45265778436902
vertex 148.5031615402359 123.94603515161698 17.452659838113888
endloop
endfacet
facet normal 4.899909065965741e-06 8.562742466233324e-07 0.999999999987629
outer loop
vertex 144.659621541952 122.7277007560114 17.451721123995803
vertex 148.5031615402359 123.94603515161698 17.452659838113888
vertex 148.12024360937292 124.3009531803691 17.452661410469762
endloop
endfacet
facet normal 4.899909065965741e-06 8.562742466233324e-07 0.999999999987629
outer loop
vertex 144.659621541952 122.7277007560114 17.451721123995803
vertex 148.12024360937292 124.3009531803691 17.452661410469762
vertex 147.84223283589301 124.74288412377574 17.452662394283188
endloop
endfacet
facet normal 4.899909065965741e-06 8.562742466233324e-07 0.999999999987629
outer loop
vertex 144.659621541952 122.7277007560114 17.451721123995803
vertex 147.84223283589301 124.74288412377574 17.452662394283188
vertex 147.68807519457425 125.24171111836915 17.452662722508904
endloop
endfacet
facet normal 4.899909065965741e-06 8.562742466233324e-07 0.999999999987629
outer loop
vertex 144.659621541952 122.7277007560114 17.451721123995803
vertex 147.68807519457425 125.24171111836915 17.452662722508904
vertex 147.66827627391507 125.76343992881834 17.45266237277887
endloop
endfacet
facet normal 4.899909065965741e-06 8.562742466233324e-07 0.999999999987629
outer loop
vertex 148.96489140429543 123.70231711464906 17.45265778436902
vertex 174.21506607185756 112.12780125727865 17.450395901399418
vertex 149.47396707436053 123.58640805092162 17.452655389194476
endloop
endfacet
facet normal 4.899909065965741e-06 8.562742466233324e-07 0.999999999987629
outer loop
vertex 149.47396707436053 123.58640805092162 17.452655389194476
vertex 174.21506607185756 112.12780125727865 17.450395901399418
vertex 149.9956958848036 123.60620697157887 17.45265281581744
endloop
endfacet
facet normal 4.899909065965741e-06 8.562742466233324e-07 0.999999999987629
outer loop
vertex 149.9956958848036 123.60620697157887 17.45265281581744
vertex 174.21506607185756 112.12780125727865 17.450395901399418
vertex 150.49452287939056 123.76036461289729 17.452650239609305
endloop
endfacet
facet normal 4.899909065965741e-06 8.562742466233324e-07 0.999999999987629
outer loop
vertex 150.49452287939056 123.76036461289729 17.452650239609305
vertex 174.21506607185756 112.12780125727865 17.450395901399418
vertex 150.9364538227909 124.0383753863786 17.452647836134407
endloop
endfacet
facet normal 4.899909065965741e-06 8.562742466233324e-07 0.999999999987629
outer loop
vertex 150.9364538227909 124.0383753863786 17.452647836134407
vertex 174.21506607185756 112.12780125727865 17.450395901399418
vertex 151.29137185153726 124.42129331724455 17.452645769185576
endloop
endfacet
facet normal 4.899909065965741e-06 8.562742466233324e-07 0.999999999987629
outer loop
vertex 151.29137185153726 124.42129331724455 17.452645769185576
vertex 174.21506607185756 112.12780125727865 17.450395901399418
vertex 151.5350898885004 124.88302318130843 17.452644179621966
endloop
endfacet
facet normal 4.899909065965741e-06 8.562742466233324e-07 0.999999999987629
outer loop
vertex 151.5350898885004 124.88302318130843 17.452644179621966
vertex 174.21506607185756 112.12780125727865 17.450395901399418
vertex 151.65099895222437 125.39209885137899 17.45264317576971
endloop
endfacet
facet normal 4.899909065965741e-06 8.562742466233324e-07 0.999999999987629
outer loop
vertex 130.20962157044426 200.12770204887383 17.450395901399418
vertex 139.0093926235258 196.82770031392008 17.453013727851395
vertex 174.21506607185756 200.12770204887383 17.450395901399418
endloop
endfacet
facet normal 4.899909065965741e-06 8.562742466233324e-07 0.999999999987629
outer loop
vertex 139.0093926235258 196.82770031392008 17.453013727851395
vertex 130.20962157044426 200.12770204887383 17.450395901399418
vertex 138.62116405588134 196.77658905335593 17.45301567390133
endloop
endfacet
facet normal 4.899909065965741e-06 8.562742466233324e-07 0.999999999987629
outer loop
vertex 138.62116405588134 196.77658905335593 17.45301567390133
vertex 130.20962157044426 200.12770204887383 17.450395901399418
vertex 138.2593926235438 196.6267384196024 17.45301757486169
endloop
endfacet
facet normal 4.899909065965741e-06 8.562742466233324e-07 0.999999999987629
outer loop
vertex 138.2593926235438 196.6267384196024 17.45301757486169
vertex 130.20962157044426 200.12770204887383 17.450395901399418
vertex 137.94873245177146 196.3883604857098 17.45301930118517
endloop
endfacet
facet normal 4.899909065965741e-06 8.562742466233324e-07 0.999999999987629
outer loop
vertex 137.94873245177146 196.3883604857098 17.45301930118517
vertex 130.20962157044426 200.12770204887383 17.450395901399418
vertex 137.71035451788035 196.0777003139348 17.453020735225675
endloop
endfacet
facet normal 4.899909065965741e-06 8.562742466233324e-07 0.999999999987629
outer loop
vertex 137.71035451788035 196.0777003139348 17.453020735225675
vertex 130.20962157044426 200.12770204887383 17.450395901399418
vertex 137.560503884127 195.7159288815937 17.45302177925571
endloop
endfacet
facet normal 4.899909065965741e-06 8.562742466233324e-07 0.999999999987629
outer loop
vertex 137.560503884127 195.7159288815937 17.45302177925571
vertex 130.20962157044426 200.12770204887383 17.450395901399418
vertex 137.5093926235618 195.32770031394492 17.453022362126365
endloop
endfacet
facet normal 4.899909065965741e-06 8.562742466233324e-07 0.999999999987629
outer loop
vertex 137.5093926235618 195.32770031394492 17.453022362126365
vertex 130.20962157044426 200.12770204887383 17.450395901399418
vertex 131.20962154195138 128.42770075601138 17.451721123995927
endloop
endfacet
facet normal 4.899909065965741e-06 8.562742466233324e-07 0.999999999987629
outer loop
vertex 131.20962154195138 128.42770075601138 17.451721123995927
vertex 130.20962157044426 200.12770204887383 17.450395901399418
vertex 131.20962154195138 122.72770075601241 17.451723564377627
endloop
endfacet
facet normal 4.899909065965741e-06 8.562742466233324e-07 0.999999999987629
outer loop
vertex 174.21506607185756 200.12770204887383 17.450395901399418
vertex 139.0093926235258 196.82770031392008 17.453013727851395
vertex 139.39762119117026 196.7765890533527 17.453011869331974
endloop
endfacet
facet normal 4.899909065965741e-06 8.562742466233324e-07 0.999999999987629
outer loop
vertex 174.21506607185756 200.12770204887383 17.450395901399418
vertex 139.39762119117026 196.7765890533527 17.453011869331974
vertex 139.7593926235078 196.62673841959608 17.453010224998092
endloop
endfacet
facet normal 4.899909065965741e-06 8.562742466233324e-07 0.999999999987629
outer loop
vertex 174.21506607185756 200.12770204887383 17.450395901399418
vertex 139.7593926235078 196.62673841959608 17.453010224998092
vertex 140.07005279528016 196.38836048570087 17.453008906908384
endloop
endfacet
facet normal 4.899909065965741e-06 8.562742466233324e-07 0.999999999987629
outer loop
vertex 174.21506607185756 200.12770204887383 17.450395901399418
vertex 140.07005279528016 196.38836048570087 17.453008906908384
vertex 140.30843072917128 196.0777003139239 17.45300800488849
endloop
endfacet
facet normal 4.899909065965741e-06 8.562742466233324e-07 0.999999999987629
outer loop
vertex 174.21506607185756 200.12770204887383 17.450395901399418
vertex 140.30843072917128 196.0777003139239 17.45300800488849
vertex 140.45828136292462 195.71592888158153 17.453007580409572
endloop
endfacet
facet normal 4.899909065965741e-06 8.562742466233324e-07 0.999999999987629
outer loop
vertex 174.21506607185756 200.12770204887383 17.450395901399418
vertex 140.45828136292462 195.71592888158153 17.453007580409572
vertex 140.5093926234898 195.32770031393233 17.453007662399166
endloop
endfacet
facet normal 4.899909065965741e-06 8.562742466233324e-07 0.999999999987629
outer loop
vertex 174.21506607185756 200.12770204887383 17.450395901399418
vertex 140.5093926234898 195.32770031393233 17.453007662399166
vertex 144.65962154195137 128.42770075601138 17.451721123995732
endloop
endfacet
facet normal 4.899909065965741e-06 8.562742466233324e-07 0.999999999987629
outer loop
vertex 174.21506607185756 200.12770204887383 17.450395901399418
vertex 144.65962154195137 128.42770075601138 17.451721123995732
vertex 144.659621541952 122.7277007560114 17.451721123995803
endloop
endfacet
facet normal 4.899909065965741e-06 8.562742466233324e-07 0.999999999987629
outer loop
vertex 174.21506607185756 200.12770204887383 17.450395901399418
vertex 144.659621541952 122.7277007560114 17.451721123995803
vertex 147.78418533763903 126.27251559888889 17.452661368926613
endloop
endfacet
facet normal 4.899909065965741e-06 8.562742466233324e-07 0.999999999987629
outer loop
vertex 147.78418533763903 126.27251559888889 17.452661368926613
vertex 144.659621541952 122.7277007560114 17.451721123995803
vertex 147.66827627391507 125.76343992881834 17.45266237277887
endloop
endfacet
facet normal 4.899909065965741e-06 8.562742466233324e-07 0.999999999987629
outer loop
vertex 174.21506607185756 200.12770204887383 17.450395901399418
vertex 147.78418533763903 126.27251559888889 17.452661368926613
vertex 148.02790337460218 126.73424546295279 17.452659779363003
endloop
endfacet
facet normal 4.899909065965741e-06 8.562742466233324e-07 0.999999999987629
outer loop
vertex 174.21506607185756 200.12770204887383 17.450395901399418
vertex 148.02790337460218 126.73424546295279 17.452659779363003
vertex 148.38282140334854 127.11716339381873 17.452657712414172
endloop
endfacet
facet normal 4.899909065965741e-06 8.562742466233324e-07 0.999999999987629
outer loop
vertex 174.21506607185756 200.12770204887383 17.450395901399418
vertex 148.38282140334854 127.11716339381873 17.452657712414172
vertex 148.82475234674888 127.39517416730003 17.45265530893927
endloop
endfacet
facet normal 4.899909065965741e-06 8.562742466233324e-07 0.999999999987629
outer loop
vertex 174.21506607185756 200.12770204887383 17.450395901399418
vertex 148.82475234674888 127.39517416730003 17.45265530893927
vertex 149.32357934133583 127.54933180861846 17.45265273273114
endloop
endfacet
facet normal 4.899909065965741e-06 8.562742466233324e-07 0.999999999987629
outer loop
vertex 174.21506607185756 200.12770204887383 17.450395901399418
vertex 149.32357934133583 127.54933180861846 17.45265273273114
vertex 149.84530815177888 127.56913072927571 17.452650159354103
endloop
endfacet
facet normal 4.899909065965741e-06 8.562742466233324e-07 0.999999999987629
outer loop
vertex 174.21506607185756 200.12770204887383 17.450395901399418
vertex 149.84530815177888 127.56913072927571 17.452650159354103
vertex 150.35438382184398 127.45322166554827 17.452647764179556
endloop
endfacet
facet normal 4.899909065965741e-06 8.562742466233324e-07 0.999999999987629
outer loop
vertex 174.21506607185756 200.12770204887383 17.450395901399418
vertex 150.35438382184398 127.45322166554827 17.452647764179556
vertex 150.81611368590353 127.20950362858035 17.45264571043469
endloop
endfacet
facet normal 4.899909065965741e-06 8.562742466233324e-07 0.999999999987629
outer loop
vertex 174.21506607185756 200.12770204887383 17.450395901399418
vertex 150.81611368590353 127.20950362858035 17.45264571043469
vertex 151.19903161676652 126.85458559982823 17.452644138078817
endloop
endfacet
facet normal 4.899909065965741e-06 8.562742466233324e-07 0.999999999987629
outer loop
vertex 174.21506607185756 200.12770204887383 17.450395901399418
vertex 151.19903161676652 126.85458559982823 17.452644138078817
vertex 151.47704239024642 126.4126546564216 17.452643154265388
endloop
endfacet
facet normal 4.899909065965741e-06 8.562742466233324e-07 0.999999999987629
outer loop
vertex 174.21506607185756 200.12770204887383 17.450395901399418
vertex 151.47704239024642 126.4126546564216 17.452643154265388
vertex 151.63120003156516 125.91382766182818 17.452642826039675
endloop
endfacet
facet normal 4.899909065965741e-06 8.562742466233324e-07 0.999999999987629
outer loop
vertex 174.21506607185756 200.12770204887383 17.450395901399418
vertex 151.63120003156516 125.91382766182818 17.452642826039675
vertex 151.65099895222437 125.39209885137899 17.45264317576971
endloop
endfacet
facet normal 4.899909065965741e-06 8.562742466233324e-07 0.999999999987629
outer loop
vertex 174.21506607185756 200.12770204887383 17.450395901399418
vertex 151.65099895222437 125.39209885137899 17.45264317576971
vertex 174.21506607185756 112.12780125727865 17.450395901399418
endloop
endfacet
facet normal 4.899909065965741e-06 8.562742466233324e-07 0.999999999987629
outer loop
vertex 131.20962154195138 122.72770075601241 17.451723564377627
vertex 138.25837979564056 118.22652609533823 17.450977261641984
vertex 144.659621541952 122.7277007560114 17.451721123995803
endloop
endfacet
facet normal 4.899909065965741e-06 8.562742466233324e-07 0.999999999987629
outer loop
vertex 138.25837979564056 118.22652609533823 17.450977261641984
vertex 131.20962154195138 122.72770075601241 17.451723564377627
vertex 137.9477196237778 117.98814816207492 17.450978987965463
endloop
endfacet
facet normal 4.899909065965741e-06 8.562742466233324e-07 0.999999999987629
outer loop
vertex 137.9477196237778 117.98814816207492 17.450978987965463
vertex 131.20962154195138 122.72770075601241 17.451723564377627
vertex 137.7093416896365 117.6774879908844 17.45098042200597
endloop
endfacet
facet normal 4.899909065965741e-06 8.562742466233324e-07 0.999999999987629
outer loop
vertex 137.7093416896365 117.6774879908844 17.45098042200597
vertex 131.20962154195138 122.72770075601241 17.451723564377627
vertex 137.55949105549024 117.31571655904307 17.45098146603601
endloop
endfacet
facet normal 4.899909065965741e-06 8.562742466233324e-07 0.999999999987629
outer loop
vertex 137.55949105549024 117.31571655904307 17.45098146603601
vertex 131.20962154195138 122.72770075601241 17.451723564377627
vertex 137.5083797944162 116.92748799177538 17.450982048906663
endloop
endfacet
facet normal 4.899909065965741e-06 8.562742466233324e-07 0.999999999987629
outer loop
vertex 144.659621541952 122.7277007560114 17.451721123995803
vertex 138.25837979564056 118.22652609533823 17.450977261641984
vertex 138.6201512279025 118.37637672846056 17.45097536068163
endloop
endfacet
facet normal 4.899909065965741e-06 8.562742466233324e-07 0.999999999987629
outer loop
vertex 144.659621541952 122.7277007560114 17.451721123995803
vertex 138.6201512279025 118.37637672846056 17.45097536068163
vertex 139.00837979531062 118.42748798843454 17.450973414631694
endloop
endfacet
facet normal 4.899909065965741e-06 8.562742466233324e-07 0.999999999987629
outer loop
vertex 144.659621541952 122.7277007560114 17.451721123995803
vertex 139.00837979531062 118.42748798843454 17.450973414631694
vertex 139.396608362574 118.37637672735823 17.450971556112275
endloop
endfacet
facet normal 4.899909065965741e-06 8.562742466233324e-07 0.999999999987629
outer loop
vertex 144.659621541952 122.7277007560114 17.451721123995803
vertex 139.396608362574 118.37637672735823 17.450971556112275
vertex 139.75837979441175 118.2265260932087 17.450969911778394
endloop
endfacet
facet normal 4.899909065965741e-06 8.562742466233324e-07 0.999999999987629
outer loop
vertex 144.659621541952 122.7277007560114 17.451721123995803
vertex 139.75837979441175 118.2265260932087 17.450969911778394
vertex 140.06903996559967 117.98814815906334 17.45096859368869
endloop
endfacet
facet normal 4.899909065965741e-06 8.562742466233324e-07 0.999999999987629
outer loop
vertex 144.659621541952 122.7277007560114 17.451721123995803
vertex 140.06903996559967 117.98814815906334 17.45096859368869
vertex 140.3074178988615 117.67748798719597 17.450967691668797
endloop
endfacet
facet normal 4.899909065965741e-06 8.562742466233324e-07 0.999999999987629
outer loop
vertex 144.659621541952 122.7277007560114 17.451721123995803
vertex 140.3074178988615 117.67748798719597 17.450967691668797
vertex 140.45726853198363 117.31571655492917 17.45096726718988
endloop
endfacet
facet normal 4.899909065965741e-06 8.562742466233324e-07 0.999999999987629
outer loop
vertex 144.659621541952 122.7277007560114 17.451721123995803
vertex 140.45726853198363 117.31571655492917 17.45096726718988
vertex 140.50837979195862 116.92748798751633 17.450967349179482
endloop
endfacet
facet normal 0.25881904509940495 -0.9659258262898025 -4.410923763323064e-07
outer loop
vertex 138.62116405588134 196.77658905335593 17.45301567390133
vertex 138.25938282372567 196.62673670705388 15.453017574886434
vertex 138.62115425606322 196.77658734080745 15.453015673926073
endloop
endfacet
facet normal 0.4999999999939993 -0.8660254037862181 -1.7083992827908911e-06
outer loop
vertex 138.25938282372567 196.62673670705388 15.453017574886434
vertex 138.62116405588134 196.77658905335593 17.45301567390133
vertex 138.2593926235438 196.6267384196024 17.45301757486169
endloop
endfacet
facet normal -0.7071067811780556 -0.7071067811833249 4.070236254090562e-06
outer loop
vertex 140.07005279528016 196.38836048570087 17.453008906908384
vertex 139.75938282368966 196.62673670704757 15.453010225022835
vertex 140.07004299546202 196.3883587731524 15.453008906933128
endloop
endfacet
facet normal -0.4999999999940121 -0.866025403782015 3.191509783173125e-06
outer loop
vertex 139.75938282368966 196.62673670704757 15.453010225022835
vertex 140.07005279528016 196.38836048570087 17.453008906908384
vertex 139.7593926235078 196.62673841959608 17.453010224998092
endloop
endfacet
facet normal -0.25881904509941606 -0.9659258262876276 2.0952871947516037e-06
outer loop
vertex 139.39762119117026 196.7765890533527 17.453011869331974
vertex 139.00938282370768 196.8276986013716 15.45301372787614
vertex 139.39761139135214 196.77658734080418 15.453011869356716
endloop
endfacet
facet normal 1.1994353919540701e-14 -0.9999999999996334 8.562742466335526e-07
outer loop
vertex 139.00938282370768 196.8276986013716 15.45301372787614
vertex 139.39762119117026 196.7765890533527 17.453011869331974
vertex 139.0093926235258 196.82770031392008 17.453013727851395
endloop
endfacet
facet normal 0.5000000012198375 0.8660254030742845 -3.1915097885735457e-06
outer loop
vertex 138.25836999214488 115.62844817353451 15.450979486332491
vertex 138.62015122380078 115.47859925193347 17.45097784197387
vertex 138.62014142398263 115.47859753938498 15.450977841998611
endloop
endfacet
facet normal 0.25881904646667875 0.9659258259212707 -2.0952872011373647e-06
outer loop
vertex 138.62015122380078 115.47859925193347 17.45097784197387
vertex 138.25836999214488 115.62844817353451 15.450979486332491
vertex 138.25837979196302 115.628449886083 17.450979486307748
endloop
endfacet
facet normal 0.9999999999879956 -1.4196865545343134e-09 -4.899909064751895e-06
outer loop
vertex 137.50836999459804 116.92748627922688 15.450982048931406
vertex 137.55949105439117 116.53925942436254 17.45098213089626
vertex 137.55948125457303 116.53925771181405 15.450982130921004
endloop
endfacet
facet normal 0.9659258266438233 0.2588190437311341 -4.954568796766464e-06
outer loop
vertex 137.55949105439117 116.53925942436254 17.45098213089626
vertex 137.50836999459804 116.92748627922688 15.450982048931406
vertex 137.5083797944162 116.92748799177538 17.450982048906663
endloop
endfacet
facet normal 0.49999999999399874 -0.8660254037862184 -1.7083992827908882e-06
outer loop
vertex 138.2593926235438 196.6267384196024 17.45301757486169
vertex 137.94872265195332 196.3883587731613 15.453019301209912
vertex 138.25938282372567 196.62673670705388 15.453017574886434
endloop
endfacet
facet normal 0.7071067811780694 -0.7071067811892447 -2.8592816013905787e-06
outer loop
vertex 137.94872265195332 196.3883587731613 15.453019301209912
vertex 138.2593926235438 196.6267384196024 17.45301757486169
vertex 137.94873245177146 196.3883604857098 17.45301930118517
endloop
endfacet
facet normal -0.8660254037740398 -0.49999999999618744 4.671582850675252e-06
outer loop
vertex 140.30843072917128 196.0777003139239 17.45300800488849
vertex 140.07004299546202 196.3883587731524 15.453008906933128
vertex 140.30842092935313 196.0776986013754 15.453008004913231
endloop
endfacet
facet normal -0.7071067811780556 -0.7071067811833247 4.070236254090561e-06
outer loop
vertex 140.07004299546202 196.3883587731524 15.453008906933128
vertex 140.30843072917128 196.0777003139239 17.45300800488849
vertex 140.07005279528016 196.38836048570087 17.453008906908384
endloop
endfacet
facet normal 0.7071067811780694 -0.7071067811892447 -2.8592816013905787e-06
outer loop
vertex 137.94872265195332 196.3883587731613 15.453019301209912
vertex 137.71035451788035 196.0777003139348 17.453020735225675
vertex 137.7103447180622 196.07769860138632 15.453020735250416
endloop
endfacet
facet normal 0.866025403774044 -0.5000000000034474 -3.8153086040416605e-06
outer loop
vertex 137.71035451788035 196.0777003139348 17.453020735225675
vertex 137.94872265195332 196.3883587731613 15.453019301209912
vertex 137.94873245177146 196.3883604857098 17.45301930118517
endloop
endfacet
facet normal -0.9659258262774718 0.258819045106482 4.51132863042292e-06
outer loop
vertex 140.45828136292462 194.93947174628357 17.45300824526982
vertex 140.50938282367167 195.32769860138384 15.453007662423909
vertex 140.45827156310648 194.93947003373506 15.453008245294564
endloop
endfacet
facet normal -0.9999999999879955 4.195831738804938e-12 4.8999090659639434e-06
outer loop
vertex 140.50938282367167 195.32769860138384 15.453007662423909
vertex 140.45828136292462 194.93947174628357 17.45300824526982
vertex 140.5093926234898 195.32770031393233 17.453007662399166
endloop
endfacet
facet normal 0.9659258266438233 0.25881904373113457 -4.954568796766464e-06
outer loop
vertex 137.55948125457303 116.53925771181405 15.450982130921004
vertex 137.7093416875133 116.17748799209575 17.450981706417345
vertex 137.70933188769516 116.17748627954724 15.450981706442088
endloop
endfacet
facet normal 0.8660254044817789 0.4999999987703478 -4.671582853093454e-06
outer loop
vertex 137.7093416875133 116.17748799209575 17.450981706417345
vertex 137.55948125457303 116.53925771181405 15.450982130921004
vertex 137.55949105439117 116.53925942436254 17.45098213089626
endloop
endfacet
facet normal 0.9999999999879955 -4.195412916639838e-12 -4.899909065963944e-06
outer loop
vertex 137.50938282374366 195.32769860139643 15.453022362151108
vertex 137.560503884127 194.93947174629574 17.45302244411596
vertex 137.56049408430886 194.93947003374723 15.453022444140704
endloop
endfacet
facet normal 0.9659258262774724 0.25881904509837406 -4.954568796142109e-06
outer loop
vertex 137.560503884127 194.93947174629574 17.45302244411596
vertex 137.50938282374366 195.32769860139643 15.453022362151108
vertex 137.5093926235618 195.32770031394492 17.453022362126365
endloop
endfacet
facet normal 0.8660254030662972 -0.500000001229301 -3.815308599524099e-06
outer loop
vertex 137.70933188981837 117.67748627833589 15.45098042203071
vertex 137.55949105549024 117.31571655904307 17.45098146603601
vertex 137.5594812556721 117.31571484649457 15.450981466060751
endloop
endfacet
facet normal 0.965925825911119 -0.2588190464737291 -4.511328627457086e-06
outer loop
vertex 137.55949105549024 117.31571655904307 17.45098146603601
vertex 137.70933188981837 117.67748627833589 15.45098042203071
vertex 137.7093416896365 117.6774879908844 17.45098042200597
endloop
endfacet
facet normal 0.9659258262774723 0.25881904509837433 -4.954568796142109e-06
outer loop
vertex 137.56049408430886 194.93947003374723 15.453022444140704
vertex 137.71035451788035 194.57770031395336 17.453022019637043
vertex 137.7103447180622 194.57769860140485 15.453022019661786
endloop
endfacet
facet normal 0.86602540377404 0.4999999999961874 -4.671582850675253e-06
outer loop
vertex 137.71035451788035 194.57770031395336 17.453022019637043
vertex 137.56049408430886 194.93947003374723 15.453022444140704
vertex 137.560503884127 194.93947174629574 17.45302244411596
endloop
endfacet
facet normal -0.49999999999401235 -0.866025403782015 3.1915097831731258e-06
outer loop
vertex 139.7593926235078 196.62673841959608 17.453010224998092
vertex 139.39761139135214 196.77658734080418 15.453011869356716
vertex 139.75938282368966 196.62673670704757 15.453010225022835
endloop
endfacet
facet normal -0.2588190450994157 -0.9659258262876278 2.095287194751602e-06
outer loop
vertex 139.39761139135214 196.77658734080418 15.453011869356716
vertex 139.7593926235078 196.62673841959608 17.453010224998092
vertex 139.39762119117026 196.7765890533527 17.453011869331974
endloop
endfacet
facet normal -0.8660254030662972 0.500000001229301 3.815308599524099e-06
outer loop
vertex 140.3074178967383 116.17748798840732 17.450968976080176
vertex 140.45725873106642 116.53925770770014 15.450967932074878
vertex 140.30740809692014 116.17748627585881 15.450968976104917
endloop
endfacet
facet normal -0.965925825911119 0.2588190464737291 4.511328627457086e-06
outer loop
vertex 140.45725873106642 116.53925770770014 15.450967932074878
vertex 140.3074178967383 116.17748798840732 17.450968976080176
vertex 140.45726853088456 116.53925942024864 17.450967932050133
endloop
endfacet
facet normal 0.7071067811780681 0.7071067811833125 -4.070236254090613e-06
outer loop
vertex 137.94872265195332 194.2670384296279 15.45302111764189
vertex 138.2593926235438 194.0286622082812 17.45301979952744
vertex 138.25938282372567 194.02866049573268 15.453019799552182
endloop
endfacet
facet normal 0.49999999999401784 0.8660254037820116 -3.19150978317315e-06
outer loop
vertex 138.2593926235438 194.0286622082812 17.45301979952744
vertex 137.94872265195332 194.2670384296279 15.45302111764189
vertex 137.94873245177146 194.26704014217637 17.453021117617148
endloop
endfacet
facet normal -0.4999999999939931 0.8660254037862217 1.708399282790858e-06
outer loop
vertex 139.75938282368966 194.0286604957264 15.453012449688583
vertex 140.07005279528016 194.26704014216747 17.453010723340363
vertex 140.07004299546202 194.26703842961896 15.453010723365106
endloop
endfacet
facet normal -0.707106781178057 0.7071067811892571 2.8592816013905067e-06
outer loop
vertex 140.07005279528016 194.26704014216747 17.453010723340363
vertex 139.75938282368966 194.0286604957264 15.453012449688583
vertex 139.7593926235078 194.02866220827488 17.45301244966384
endloop
endfacet
facet normal -0.707106780177165 0.707106782190149 2.8592815956291893e-06
outer loop
vertex 140.06903996259697 115.86682781721679 17.45097041012068
vertex 140.30740809692014 116.17748627585881 15.450968976104917
vertex 140.06903016277883 115.86682610466829 15.450970410145423
endloop
endfacet
facet normal -0.8660254030662967 0.5000000012293017 3.815308599524097e-06
outer loop
vertex 140.30740809692014 116.17748627585881 15.450968976104917
vertex 140.06903996259697 115.86682781721679 17.45097041012068
vertex 140.3074178967383 116.17748798840732 17.450968976080176
endloop
endfacet
facet normal -0.8660254037740445 0.5000000000034465 3.815308604041664e-06
outer loop
vertex 140.30843072917128 194.57770031394244 17.453009289299857
vertex 140.45827156310648 194.93947003373506 15.453008245294564
vertex 140.30842092935313 194.57769860139396 15.453009289324601
endloop
endfacet
facet normal -0.9659258262774717 0.25881904510648285 4.511328630422918e-06
outer loop
vertex 140.45827156310648 194.93947003373506 15.453008245294564
vertex 140.30843072917128 194.57770031394244 17.453009289299857
vertex 140.45828136292462 194.93947174628357 17.45300824526982
endloop
endfacet
facet normal 0.70710678217896 0.7071067801824206 -4.070236258137853e-06
outer loop
vertex 137.94770982095696 115.86682610767987 15.450980804422196
vertex 138.25837979196302 115.628449886083 17.450979486307748
vertex 138.25836999214488 115.62844817353451 15.450979486332491
endloop
endfacet
facet normal 0.5000000012198372 0.8660254030742845 -3.1915097885735444e-06
outer loop
vertex 138.25837979196302 115.628449886083 17.450979486307748
vertex 137.94770982095696 115.86682610767987 15.450980804422196
vertex 137.9477196207751 115.86682782022838 17.450980804397453
endloop
endfacet
facet normal 0.9659258259111193 -0.258819046473728 -4.511328627457087e-06
outer loop
vertex 137.5594812556721 117.31571484649457 15.450981466060751
vertex 137.5083797944162 116.92748799177538 17.450982048906663
vertex 137.50836999459804 116.92748627922688 15.450982048931406
endloop
endfacet
facet normal 0.9999999999879955 -1.4196874189119698e-09 -4.899909064751894e-06
outer loop
vertex 137.5083797944162 116.92748799177538 17.450982048906663
vertex 137.5594812556721 117.31571484649457 15.450981466060751
vertex 137.55949105549024 117.31571655904307 17.45098146603601
endloop
endfacet
facet normal -1.1174531809141231e-14 0.9999999999996335 -8.56274246633557e-07
outer loop
vertex 139.00938282370768 193.82769860140868 15.453016296698877
vertex 139.39762119117026 193.8788115745213 17.4530143506242
vertex 139.39761139135214 193.87880986197283 15.453014350648944
endloop
endfacet
facet normal -0.2588190450994163 0.9659258262897994 4.4109237633236475e-07
outer loop
vertex 139.39762119117026 193.8788115745213 17.4530143506242
vertex 139.00938282370768 193.82769860140868 15.453016296698877
vertex 139.0093926235258 193.82770031395717 17.453016296674136
endloop
endfacet
facet normal -0.2588190450994156 0.9659258262897996 4.4109237633236094e-07
outer loop
vertex 139.39761139135214 193.87880986197283 15.453014350648944
vertex 139.7593926235078 194.02866220827488 17.45301244966384
vertex 139.75938282368966 194.0286604957264 15.453012449688583
endloop
endfacet
facet normal -0.4999999999939937 0.8660254037862213 1.708399282790861e-06
outer loop
vertex 139.7593926235078 194.02866220827488 17.45301244966384
vertex 139.39761139135214 193.87880986197283 15.453014350648944
vertex 139.39762119117026 193.8788115745213 17.4530143506242
endloop
endfacet
facet normal 0.8660254037740398 0.49999999999618744 -4.671582850675252e-06
outer loop
vertex 137.7103447180622 194.57769860140485 15.453022019661786
vertex 137.94873245177146 194.26704014217637 17.453021117617148
vertex 137.94872265195332 194.2670384296279 15.45302111764189
endloop
endfacet
facet normal 0.7071067811780682 0.7071067811833125 -4.070236254090613e-06
outer loop
vertex 137.94873245177146 194.26704014217637 17.453021117617148
vertex 137.7103447180622 194.57769860140485 15.453022019661786
vertex 137.71035451788035 194.57770031395336 17.453022019637043
endloop
endfacet
facet normal 0.707106780177165 -0.707106782190149 -2.8592815956291893e-06
outer loop
vertex 137.94770982395966 117.98814644952643 15.450978987990206
vertex 137.7093416896365 117.6774879908844 17.45098042200597
vertex 137.70933188981837 117.67748627833589 15.45098042203071
endloop
endfacet
facet normal 0.8660254030662967 -0.5000000012293017 -3.815308599524097e-06
outer loop
vertex 137.7093416896365 117.6774879908844 17.45098042200597
vertex 137.94770982395966 117.98814644952643 15.450978987990206
vertex 137.9477196237778 117.98814816207492 17.450978987965463
endloop
endfacet
facet normal 0.8660254044817788 0.499999998770348 -4.671582853093453e-06
outer loop
vertex 137.70933188769516 116.17748627954724 15.450981706442088
vertex 137.9477196207751 115.86682782022838 17.450980804397453
vertex 137.94770982095696 115.86682610767987 15.450980804422196
endloop
endfacet
facet normal 0.7071067821789603 0.7071067801824205 -4.070236258137854e-06
outer loop
vertex 137.9477196207751 115.86682782022838 17.450980804397453
vertex 137.70933188769516 116.17748627954724 15.450981706442088
vertex 137.7093416875133 116.17748799209575 17.450981706417345
endloop
endfacet
facet normal -0.4999999987681557 0.866025404493959 1.7083992761783484e-06
outer loop
vertex 139.7583699909161 115.62844817140498 15.4509721364689
vertex 140.06903996259697 115.86682781721679 17.45097041012068
vertex 140.06903016277883 115.86682610466829 15.450970410145423
endloop
endfacet
facet normal -0.707106780177165 0.707106782190149 2.8592815956291893e-06
outer loop
vertex 140.06903996259697 115.86682781721679 17.45097041012068
vertex 139.7583699909161 115.62844817140498 15.4509721364689
vertex 139.75837979073424 115.62844988395348 17.450972136444157
endloop
endfacet
facet normal -0.2588190437321668 0.9659258266561527 4.410923693192677e-07
outer loop
vertex 139.39659855865412 115.47859753828266 15.450974037429258
vertex 139.75837979073424 115.62844988395348 17.450972136444157
vertex 139.7583699909161 115.62844817140498 15.4509721364689
endloop
endfacet
facet normal -0.49999999876815665 0.8660254044939586 1.7083992761783537e-06
outer loop
vertex 139.75837979073424 115.62844988395348 17.450972136444157
vertex 139.39659855865412 115.47859753828266 15.450974037429258
vertex 139.39660835847226 115.47859925083115 17.450974037404517
endloop
endfacet
facet normal 1.415480082930298e-09 0.9999999999996333 -8.562742535693352e-07
outer loop
vertex 139.008369991246 115.42748627830868 15.450975983479193
vertex 139.39660835847226 115.47859925083115 17.450974037404517
vertex 139.39659855865412 115.47859753828266 15.450974037429258
endloop
endfacet
facet normal -0.2588190437321676 0.9659258266561525 4.4109236931927166e-07
outer loop
vertex 139.39660835847226 115.47859925083115 17.450974037404517
vertex 139.008369991246 115.42748627830868 15.450975983479193
vertex 139.00837979106416 115.42748799085719 17.45097598345445
endloop
endfacet
facet normal 0.2588190464666792 0.9659258259212705 -2.0952872011373664e-06
outer loop
vertex 138.62014142398263 115.47859753938498 15.450977841998611
vertex 139.00837979106416 115.42748799085719 17.45097598345445
vertex 139.008369991246 115.42748627830868 15.450975983479193
endloop
endfacet
facet normal 1.4154795037081547e-09 0.9999999999996333 -8.562742535693322e-07
outer loop
vertex 139.00837979106416 115.42748799085719 17.45097598345445
vertex 138.62014142398263 115.47859753938498 15.450977841998611
vertex 138.62015122380078 115.47859925193347 17.45097784197387
endloop
endfacet
facet normal -4.899909065965741e-06 -8.562742466233324e-07 -0.999999999987629
outer loop
vertex 131.20961174213323 122.72769904346391 15.45172356440237
vertex 137.5594812556721 117.31571484649457 15.450981466060751
vertex 137.50836999459804 116.92748627922688 15.450982048931406
endloop
endfacet
facet normal -4.899909065965741e-06 -8.562742466233324e-07 -0.999999999987629
outer loop
vertex 137.5594812556721 117.31571484649457 15.450981466060751
vertex 131.20961174213323 122.72769904346391 15.45172356440237
vertex 137.70933188981837 117.67748627833589 15.45098042203071
endloop
endfacet
facet normal -4.899909065965741e-06 -8.562742466233324e-07 -0.999999999987629
outer loop
vertex 137.70933188981837 117.67748627833589 15.45098042203071
vertex 131.20961174213323 122.72769904346391 15.45172356440237
vertex 137.94770982395966 117.98814644952643 15.450978987990206
endloop
endfacet
facet normal -4.899909065965741e-06 -8.562742466233324e-07 -0.999999999987629
outer loop
vertex 137.94770982395966 117.98814644952643 15.450978987990206
vertex 131.20961174213323 122.72769904346391 15.45172356440237
vertex 138.25836999582242 118.22652438278973 15.45097726166673
endloop
endfacet
facet normal -4.899909065965741e-06 -8.562742466233324e-07 -0.999999999987629
outer loop
vertex 138.25836999582242 118.22652438278973 15.45097726166673
vertex 131.20961174213323 122.72769904346391 15.45172356440237
vertex 144.65961174213385 122.72769904346289 15.451721124020546
endloop
endfacet
facet normal -4.899909065965741e-06 -8.562742466233324e-07 -0.999999999987629
outer loop
vertex 138.25836999582242 118.22652438278973 15.45097726166673
vertex 144.65961174213385 122.72769904346289 15.451721124020546
vertex 138.6201414280844 118.37637501591206 15.450975360706371
endloop
endfacet
facet normal -4.899909065965741e-06 -8.562742466233324e-07 -0.999999999987629
outer loop
vertex 138.6201414280844 118.37637501591206 15.450975360706371
vertex 144.65961174213385 122.72769904346289 15.451721124020546
vertex 139.00836999549247 118.42748627588603 15.450973414656437
endloop
endfacet
facet normal -4.899909065965741e-06 -8.562742466233324e-07 -0.999999999987629
outer loop
vertex 139.00836999549247 118.42748627588603 15.450973414656437
vertex 144.65961174213385 122.72769904346289 15.451721124020546
vertex 139.39659856275586 118.37637501480974 15.450971556137016
endloop
endfacet
facet normal -4.899909065965741e-06 -8.562742466233324e-07 -0.999999999987629
outer loop
vertex 139.39659856275586 118.37637501480974 15.450971556137016
vertex 144.65961174213385 122.72769904346289 15.451721124020546
vertex 139.75836999459364 118.22652438066021 15.450969911803137
endloop
endfacet
facet normal -4.899909065965741e-06 -8.562742466233324e-07 -0.999999999987629
outer loop
vertex 139.75836999459364 118.22652438066021 15.450969911803137
vertex 144.65961174213385 122.72769904346289 15.451721124020546
vertex 140.06903016578153 117.98814644651483 15.450968593713434
endloop
endfacet
facet normal -4.899909065965741e-06 -8.562742466233324e-07 -0.999999999987629
outer loop
vertex 140.06903016578153 117.98814644651483 15.450968593713434
vertex 144.65961174213385 122.72769904346289 15.451721124020546
vertex 140.30740809904336 117.67748627464746 15.45096769169354
endloop
endfacet
facet normal -4.899909065965741e-06 -8.562742466233324e-07 -0.999999999987629
outer loop
vertex 140.30740809904336 117.67748627464746 15.45096769169354
vertex 144.65961174213385 122.72769904346289 15.451721124020546
vertex 140.45725873216549 117.31571484238067 15.450967267214626
endloop
endfacet
facet normal -4.899909065965741e-06 -8.562742466233324e-07 -0.999999999987629
outer loop
vertex 140.45725873216549 117.31571484238067 15.450967267214626
vertex 144.65961174213385 122.72769904346289 15.451721124020546
vertex 140.50836999214047 116.92748627496783 15.450967349204223
endloop
endfacet
facet normal -4.899909065965741e-06 -8.562742466233324e-07 -0.999999999987629
outer loop
vertex 130.20961177062614 200.12770033632532 15.450395901424162
vertex 131.20961174213323 128.42769904346287 15.45172112402067
vertex 130.20961177062614 112.12769907652901 15.450395901424162
endloop
endfacet
facet normal -4.899909065965741e-06 -8.562742466233324e-07 -0.999999999987629
outer loop
vertex 131.20961174213323 128.42769904346287 15.45172112402067
vertex 130.20961177062614 200.12770033632532 15.450395901424162
vertex 137.50938282374366 195.32769860139643 15.453022362151108
endloop
endfacet
facet normal -4.899909065965741e-06 -8.562742466233324e-07 -0.999999999987629
outer loop
vertex 137.50938282374366 195.32769860139643 15.453022362151108
vertex 130.20961177062614 200.12770033632532 15.450395901424162
vertex 137.56049408430886 195.7159271690452 15.453021779280453
endloop
endfacet
facet normal -4.899909065965741e-06 -8.562742466233324e-07 -0.999999999987629
outer loop
vertex 137.56049408430886 195.7159271690452 15.453021779280453
vertex 130.20961177062614 200.12770033632532 15.450395901424162
vertex 137.7103447180622 196.07769860138632 15.453020735250416
endloop
endfacet
facet normal -4.899909065965741e-06 -8.562742466233324e-07 -0.999999999987629
outer loop
vertex 137.7103447180622 196.07769860138632 15.453020735250416
vertex 130.20961177062614 200.12770033632532 15.450395901424162
vertex 137.94872265195332 196.3883587731613 15.453019301209912
endloop
endfacet
facet normal -4.899909065965741e-06 -8.562742466233324e-07 -0.999999999987629
outer loop
vertex 137.94872265195332 196.3883587731613 15.453019301209912
vertex 130.20961177062614 200.12770033632532 15.450395901424162
vertex 138.25938282372567 196.62673670705388 15.453017574886434
endloop
endfacet
facet normal -4.899909065965741e-06 -8.562742466233324e-07 -0.999999999987629
outer loop
vertex 138.25938282372567 196.62673670705388 15.453017574886434
vertex 130.20961177062614 200.12770033632532 15.450395901424162
vertex 138.62115425606322 196.77658734080745 15.453015673926073
endloop
endfacet
facet normal -4.899909065965741e-06 -8.562742466233324e-07 -0.999999999987629
outer loop
vertex 138.62115425606322 196.77658734080745 15.453015673926073
vertex 130.20961177062614 200.12770033632532 15.450395901424162
vertex 139.00938282370768 196.8276986013716 15.45301372787614
endloop
endfacet
facet normal -4.899909065965741e-06 -8.562742466233324e-07 -0.999999999987629
outer loop
vertex 139.00938282370768 196.8276986013716 15.45301372787614
vertex 130.20961177062614 200.12770033632532 15.450395901424162
vertex 174.21505627203942 200.12770033632532 15.450395901424162
endloop
endfacet
facet normal -4.899909065965741e-06 -8.562742466233324e-07 -0.999999999987629
outer loop
vertex 139.00938282370768 196.8276986013716 15.45301372787614
vertex 174.21505627203942 200.12770033632532 15.450395901424162
vertex 139.39761139135214 196.77658734080418 15.453011869356716
endloop
endfacet
facet normal -4.899909065965741e-06 -8.562742466233324e-07 -0.999999999987629
outer loop
vertex 139.39761139135214 196.77658734080418 15.453011869356716
vertex 174.21505627203942 200.12770033632532 15.450395901424162
vertex 139.75938282368966 196.62673670704757 15.453010225022835
endloop
endfacet
facet normal -4.899909065965741e-06 -8.562742466233324e-07 -0.999999999987629
outer loop
vertex 139.75938282368966 196.62673670704757 15.453010225022835
vertex 174.21505627203942 200.12770033632532 15.450395901424162
vertex 140.07004299546202 196.3883587731524 15.453008906933128
endloop
endfacet
facet normal -4.899909065965741e-06 -8.562742466233324e-07 -0.999999999987629
outer loop
vertex 140.07004299546202 196.3883587731524 15.453008906933128
vertex 174.21505627203942 200.12770033632532 15.450395901424162
vertex 140.30842092935313 196.0776986013754 15.453008004913231
endloop
endfacet
facet normal -4.899909065965741e-06 -8.562742466233324e-07 -0.999999999987629
outer loop
vertex 140.30842092935313 196.0776986013754 15.453008004913231
vertex 174.21505627203942 200.12770033632532 15.450395901424162
vertex 140.45827156310648 195.71592716903302 15.453007580434313
endloop
endfacet
facet normal -4.899909065965741e-06 -8.562742466233324e-07 -0.999999999987629
outer loop
vertex 140.45827156310648 195.71592716903302 15.453007580434313
vertex 174.21505627203942 200.12770033632532 15.450395901424162
vertex 140.50938282367167 195.32769860138384 15.453007662423909
endloop
endfacet
facet normal -4.899909065965741e-06 -8.562742466233324e-07 -0.999999999987629
outer loop
vertex 140.50938282367167 195.32769860138384 15.453007662423909
vertex 174.21505627203942 200.12770033632532 15.450395901424162
vertex 144.65961174213325 128.42769904346287 15.451721124020475
endloop
endfacet
facet normal -4.899909065965741e-06 -8.562742466233324e-07 -0.999999999987629
outer loop
vertex 144.65961174213325 128.42769904346287 15.451721124020475
vertex 174.21505627203942 200.12770033632532 15.450395901424162
vertex 144.65961174213385 122.72769904346289 15.451721124020546
endloop
endfacet
facet normal -4.899909065965741e-06 -8.562742466233324e-07 -0.999999999987629
outer loop
vertex 144.65961174213385 122.72769904346289 15.451721124020546
vertex 174.21505627203942 200.12770033632532 15.450395901424162
vertex 147.7841755378209 126.27251388634039 15.452661368951357
endloop
endfacet
facet normal -4.899909065965741e-06 -8.562742466233324e-07 -0.999999999987629
outer loop
vertex 144.65961174213385 122.72769904346289 15.451721124020546
vertex 147.7841755378209 126.27251388634039 15.452661368951357
vertex 147.66826647409692 125.76343821626985 15.452662372803614
endloop
endfacet
facet normal -4.899909065965741e-06 -8.562742466233324e-07 -0.999999999987629
outer loop
vertex 147.7841755378209 126.27251388634039 15.452661368951357
vertex 174.21505627203942 200.12770033632532 15.450395901424162
vertex 148.02789357478403 126.73424375040429 15.452659779387746
endloop
endfacet
facet normal -4.899909065965741e-06 -8.562742466233324e-07 -0.999999999987629
outer loop
vertex 148.02789357478403 126.73424375040429 15.452659779387746
vertex 174.21505627203942 200.12770033632532 15.450395901424162
vertex 148.3828116035304 127.11716168127022 15.452657712438915
endloop
endfacet
facet normal -4.899909065965741e-06 -8.562742466233324e-07 -0.999999999987629
outer loop
vertex 148.3828116035304 127.11716168127022 15.452657712438915
vertex 174.21505627203942 200.12770033632532 15.450395901424162
vertex 148.82474254693074 127.39517245475153 15.452655308964015
endloop
endfacet
facet normal -4.899909065965741e-06 -8.562742466233324e-07 -0.999999999987629
outer loop
vertex 148.82474254693074 127.39517245475153 15.452655308964015
vertex 174.21505627203942 200.12770033632532 15.450395901424162
vertex 149.32356954151768 127.54933009606995 15.452652732755881
endloop
endfacet
facet normal -4.899909065965741e-06 -8.562742466233324e-07 -0.999999999987629
outer loop
vertex 149.32356954151768 127.54933009606995 15.452652732755881
vertex 174.21505627203942 200.12770033632532 15.450395901424162
vertex 149.84529835196074 127.56912901672722 15.452650159378846
endloop
endfacet
facet normal -4.899909065965741e-06 -8.562742466233324e-07 -0.999999999987629
outer loop
vertex 149.84529835196074 127.56912901672722 15.452650159378846
vertex 174.21505627203942 200.12770033632532 15.450395901424162
vertex 150.35437402202587 127.45321995299976 15.4526477642043
endloop
endfacet
facet normal -4.899909065965741e-06 -8.562742466233324e-07 -0.999999999987629
outer loop
vertex 150.35437402202587 127.45321995299976 15.4526477642043
vertex 174.21505627203942 200.12770033632532 15.450395901424162
vertex 150.8161038860854 127.20950191603185 15.452645710459434
endloop
endfacet
facet normal -4.899909065965741e-06 -8.562742466233324e-07 -0.999999999987629
outer loop
vertex 150.8161038860854 127.20950191603185 15.452645710459434
vertex 174.21505627203942 200.12770033632532 15.450395901424162
vertex 151.19902181694837 126.85458388727973 15.45264413810356
endloop
endfacet
facet normal -4.899909065965741e-06 -8.562742466233324e-07 -0.999999999987629
outer loop
vertex 151.19902181694837 126.85458388727973 15.45264413810356
vertex 174.21505627203942 200.12770033632532 15.450395901424162
vertex 151.47703259042828 126.4126529438731 15.452643154290133
endloop
endfacet
facet normal -4.899909065965741e-06 -8.562742466233324e-07 -0.999999999987629
outer loop
vertex 151.47703259042828 126.4126529438731 15.452643154290133
vertex 174.21505627203942 200.12770033632532 15.450395901424162
vertex 151.631190231747 125.91382594927968 15.452642826064418
endloop
endfacet
facet normal -4.899909065965741e-06 -8.562742466233324e-07 -0.999999999987629
outer loop
vertex 151.631190231747 125.91382594927968 15.452642826064418
vertex 174.21505627203942 200.12770033632532 15.450395901424162
vertex 151.65098915240623 125.39209713883048 15.45264317579445
endloop
endfacet
facet normal -4.899909065965741e-06 -8.562742466233324e-07 -0.999999999987629
outer loop
vertex 130.20961177062614 112.12769907652901 15.450395901424162
vertex 139.008369991246 115.42748627830868 15.450975983479193
vertex 174.21505627203942 112.12779954473015 15.450395901424162
endloop
endfacet
facet normal -4.899909065965741e-06 -8.562742466233324e-07 -0.999999999987629
outer loop
vertex 139.008369991246 115.42748627830868 15.450975983479193
vertex 130.20961177062614 112.12769907652901 15.450395901424162
vertex 138.62014142398263 115.47859753938498 15.450977841998611
endloop
endfacet
facet normal -4.899909065965741e-06 -8.562742466233324e-07 -0.999999999987629
outer loop
vertex 138.62014142398263 115.47859753938498 15.450977841998611
vertex 130.20961177062614 112.12769907652901 15.450395901424162
vertex 138.25836999214488 115.62844817353451 15.450979486332491
endloop
endfacet
facet normal -4.899909065965741e-06 -8.562742466233324e-07 -0.999999999987629
outer loop
vertex 138.25836999214488 115.62844817353451 15.450979486332491
vertex 130.20961177062614 112.12769907652901 15.450395901424162
vertex 137.94770982095696 115.86682610767987 15.450980804422196
endloop
endfacet
facet normal -4.899909065965741e-06 -8.562742466233324e-07 -0.999999999987629
outer loop
vertex 137.94770982095696 115.86682610767987 15.450980804422196
vertex 130.20961177062614 112.12769907652901 15.450395901424162
vertex 131.20961174213323 122.72769904346391 15.45172356440237
endloop
endfacet
facet normal -4.899909065965741e-06 -8.562742466233324e-07 -0.999999999987629
outer loop
vertex 131.20961174213323 122.72769904346391 15.45172356440237
vertex 130.20961177062614 112.12769907652901 15.450395901424162
vertex 131.20961174213323 128.42769904346287 15.45172112402067
endloop
endfacet
facet normal -4.899909065965741e-06 -8.562742466233324e-07 -0.999999999987629
outer loop
vertex 137.94770982095696 115.86682610767987 15.450980804422196
vertex 131.20961174213323 122.72769904346391 15.45172356440237
vertex 137.70933188769516 116.17748627954724 15.450981706442088
endloop
endfacet
facet normal -4.899909065965741e-06 -8.562742466233324e-07 -0.999999999987629
outer loop
vertex 137.70933188769516 116.17748627954724 15.450981706442088
vertex 131.20961174213323 122.72769904346391 15.45172356440237
vertex 137.55948125457303 116.53925771181405 15.450982130921004
endloop
endfacet
facet normal -4.899909065965741e-06 -8.562742466233324e-07 -0.999999999987629
outer loop
vertex 137.55948125457303 116.53925771181405 15.450982130921004
vertex 131.20961174213323 122.72769904346391 15.45172356440237
vertex 137.50836999459804 116.92748627922688 15.450982048931406
endloop
endfacet
facet normal -4.899909065965741e-06 -8.562742466233324e-07 -0.999999999987629
outer loop
vertex 174.21505627203942 112.12779954473015 15.450395901424162
vertex 139.008369991246 115.42748627830868 15.450975983479193
vertex 139.39659855865412 115.47859753828266 15.450974037429258
endloop
endfacet
facet normal -4.899909065965741e-06 -8.562742466233324e-07 -0.999999999987629
outer loop
vertex 174.21505627203942 112.12779954473015 15.450395901424162
vertex 139.39659855865412 115.47859753828266 15.450974037429258
vertex 139.7583699909161 115.62844817140498 15.4509721364689
endloop
endfacet
facet normal -4.899909065965741e-06 -8.562742466233324e-07 -0.999999999987629
outer loop
vertex 174.21505627203942 112.12779954473015 15.450395901424162
vertex 139.7583699909161 115.62844817140498 15.4509721364689
vertex 140.06903016277883 115.86682610466829 15.450970410145423
endloop
endfacet
facet normal -4.899909065965741e-06 -8.562742466233324e-07 -0.999999999987629
outer loop
vertex 174.21505627203942 112.12779954473015 15.450395901424162
vertex 140.06903016277883 115.86682610466829 15.450970410145423
vertex 140.30740809692014 116.17748627585881 15.450968976104917
endloop
endfacet
facet normal -4.899909065965741e-06 -8.562742466233324e-07 -0.999999999987629
outer loop
vertex 174.21505627203942 112.12779954473015 15.450395901424162
vertex 140.30740809692014 116.17748627585881 15.450968976104917
vertex 140.45725873106642 116.53925770770014 15.450967932074878
endloop
endfacet
facet normal -4.899909065965741e-06 -8.562742466233324e-07 -0.999999999987629
outer loop
vertex 174.21505627203942 112.12779954473015 15.450395901424162
vertex 140.45725873106642 116.53925770770014 15.450967932074878
vertex 140.50836999214047 116.92748627496783 15.450967349204223
endloop
endfacet
facet normal -4.899909065965741e-06 -8.562742466233324e-07 -0.999999999987629
outer loop
vertex 174.21505627203942 112.12779954473015 15.450395901424162
vertex 140.50836999214047 116.92748627496783 15.450967349204223
vertex 144.65961174213385 122.72769904346289 15.451721124020546
endloop
endfacet
facet normal -4.899909065965741e-06 -8.562742466233324e-07 -0.999999999987629
outer loop
vertex 174.21505627203942 112.12779954473015 15.450395901424162
vertex 144.65961174213385 122.72769904346289 15.451721124020546
vertex 148.96488160447728 123.70231540210057 15.452657784393764
endloop
endfacet
facet normal -4.899909065965741e-06 -8.562742466233324e-07 -0.999999999987629
outer loop
vertex 148.96488160447728 123.70231540210057 15.452657784393764
vertex 144.65961174213385 122.72769904346289 15.451721124020546
vertex 148.50315174041776 123.94603343906849 15.452659838138631
endloop
endfacet
facet normal -4.899909065965741e-06 -8.562742466233324e-07 -0.999999999987629
outer loop
vertex 148.50315174041776 123.94603343906849 15.452659838138631
vertex 144.65961174213385 122.72769904346289 15.451721124020546
vertex 148.12023380955478 124.3009514678206 15.452661410494505
endloop
endfacet
facet normal -4.899909065965741e-06 -8.562742466233324e-07 -0.999999999987629
outer loop
vertex 148.12023380955478 124.3009514678206 15.452661410494505
vertex 144.65961174213385 122.72769904346289 15.451721124020546
vertex 147.84222303607487 124.74288241122723 15.452662394307932
endloop
endfacet
facet normal -4.899909065965741e-06 -8.562742466233324e-07 -0.999999999987629
outer loop
vertex 147.84222303607487 124.74288241122723 15.452662394307932
vertex 144.65961174213385 122.72769904346289 15.451721124020546
vertex 147.68806539475614 125.24170940582064 15.452662722533647
endloop
endfacet
facet normal -4.899909065965741e-06 -8.562742466233324e-07 -0.999999999987629
outer loop
vertex 147.68806539475614 125.24170940582064 15.452662722533647
vertex 144.65961174213385 122.72769904346289 15.451721124020546
vertex 147.66826647409692 125.76343821626985 15.452662372803614
endloop
endfacet
facet normal -4.899909065965741e-06 -8.562742466233324e-07 -0.999999999987629
outer loop
vertex 174.21505627203942 112.12779954473015 15.450395901424162
vertex 148.96488160447728 123.70231540210057 15.452657784393764
vertex 149.4739572745424 123.58640633837312 15.452655389219219
endloop
endfacet
facet normal -4.899909065965741e-06 -8.562742466233324e-07 -0.999999999987629
outer loop
vertex 174.21505627203942 112.12779954473015 15.450395901424162
vertex 149.4739572745424 123.58640633837312 15.452655389219219
vertex 149.99568608498546 123.60620525903038 15.452652815842184
endloop
endfacet
facet normal -4.899909065965741e-06 -8.562742466233324e-07 -0.999999999987629
outer loop
vertex 174.21505627203942 112.12779954473015 15.450395901424162
vertex 149.99568608498546 123.60620525903038 15.452652815842184
vertex 150.4945130795724 123.7603629003488 15.45265023963405
endloop
endfacet
facet normal -4.899909065965741e-06 -8.562742466233324e-07 -0.999999999987629
outer loop
vertex 174.21505627203942 112.12779954473015 15.450395901424162
vertex 150.4945130795724 123.7603629003488 15.45265023963405
vertex 150.93644402297275 124.03837367383011 15.45264783615915
endloop
endfacet
facet normal -4.899909065965741e-06 -8.562742466233324e-07 -0.999999999987629
outer loop
vertex 174.21505627203942 112.12779954473015 15.450395901424162
vertex 150.93644402297275 124.03837367383011 15.45264783615915
vertex 151.29136205171912 124.42129160469605 15.452645769210319
endloop
endfacet
facet normal -4.899909065965741e-06 -8.562742466233324e-07 -0.999999999987629
outer loop
vertex 174.21505627203942 112.12779954473015 15.450395901424162
vertex 151.29136205171912 124.42129160469605 15.452645769210319
vertex 151.53508008868226 124.88302146875994 15.452644179646708
endloop
endfacet
facet normal -4.899909065965741e-06 -8.562742466233324e-07 -0.999999999987629
outer loop
vertex 174.21505627203942 112.12779954473015 15.450395901424162
vertex 151.53508008868226 124.88302146875994 15.452644179646708
vertex 151.65098915240623 125.39209713883048 15.45264317579445
endloop
endfacet
facet normal -4.899909065965741e-06 -8.562742466233324e-07 -0.999999999987629
outer loop
vertex 174.21505627203942 112.12779954473015 15.450395901424162
vertex 151.65098915240623 125.39209713883048 15.45264317579445
vertex 174.21505627203942 200.12770033632532 15.450395901424162
endloop
endfacet
facet normal -4.899909065965741e-06 -8.562742466233324e-07 -0.999999999987629
outer loop
vertex 137.50938282374366 195.32769860139643 15.453022362151108
vertex 144.65961174213325 128.42769904346287 15.451721124020475
vertex 131.20961174213323 128.42769904346287 15.45172112402067
endloop
endfacet
facet normal -4.899909065965741e-06 -8.562742466233324e-07 -0.999999999987629
outer loop
vertex 144.65961174213325 128.42769904346287 15.451721124020475
vertex 137.50938282374366 195.32769860139643 15.453022362151108
vertex 137.56049408430886 194.93947003374723 15.453022444140704
endloop
endfacet
facet normal -4.899909065965741e-06 -8.562742466233324e-07 -0.999999999987629
outer loop
vertex 144.65961174213325 128.42769904346287 15.451721124020475
vertex 137.56049408430886 194.93947003374723 15.453022444140704
vertex 137.7103447180622 194.57769860140485 15.453022019661786
endloop
endfacet
facet normal -4.899909065965741e-06 -8.562742466233324e-07 -0.999999999987629
outer loop
vertex 144.65961174213325 128.42769904346287 15.451721124020475
vertex 137.7103447180622 194.57769860140485 15.453022019661786
vertex 137.94872265195332 194.2670384296279 15.45302111764189
endloop
endfacet
facet normal -4.899909065965741e-06 -8.562742466233324e-07 -0.999999999987629
outer loop
vertex 144.65961174213325 128.42769904346287 15.451721124020475
vertex 137.94872265195332 194.2670384296279 15.45302111764189
vertex 138.25938282372567 194.02866049573268 15.453019799552182
endloop
endfacet
facet normal -4.899909065965741e-06 -8.562742466233324e-07 -0.999999999987629
outer loop
vertex 144.65961174213325 128.42769904346287 15.451721124020475
vertex 138.25938282372567 194.02866049573268 15.453019799552182
vertex 138.62115425606322 193.87880986197607 15.4530181552183
endloop
endfacet
facet normal -4.899909065965741e-06 -8.562742466233324e-07 -0.999999999987629
outer loop
vertex 144.65961174213325 128.42769904346287 15.451721124020475
vertex 138.62115425606322 193.87880986197607 15.4530181552183
vertex 139.00938282370768 193.82769860140868 15.453016296698877
endloop
endfacet
facet normal -4.899909065965741e-06 -8.562742466233324e-07 -0.999999999987629
outer loop
vertex 144.65961174213325 128.42769904346287 15.451721124020475
vertex 139.00938282370768 193.82769860140868 15.453016296698877
vertex 139.39761139135214 193.87880986197283 15.453014350648944
endloop
endfacet
facet normal -4.899909065965741e-06 -8.562742466233324e-07 -0.999999999987629
outer loop
vertex 144.65961174213325 128.42769904346287 15.451721124020475
vertex 139.39761139135214 193.87880986197283 15.453014350648944
vertex 139.75938282368966 194.0286604957264 15.453012449688583
endloop
endfacet
facet normal -4.899909065965741e-06 -8.562742466233324e-07 -0.999999999987629
outer loop
vertex 144.65961174213325 128.42769904346287 15.451721124020475
vertex 139.75938282368966 194.0286604957264 15.453012449688583
vertex 140.07004299546202 194.26703842961896 15.453010723365106
endloop
endfacet
facet normal -4.899909065965741e-06 -8.562742466233324e-07 -0.999999999987629
outer loop
vertex 144.65961174213325 128.42769904346287 15.451721124020475
vertex 140.07004299546202 194.26703842961896 15.453010723365106
vertex 140.30842092935313 194.57769860139396 15.453009289324601
endloop
endfacet
facet normal -4.899909065965741e-06 -8.562742466233324e-07 -0.999999999987629
outer loop
vertex 144.65961174213325 128.42769904346287 15.451721124020475
vertex 140.30842092935313 194.57769860139396 15.453009289324601
vertex 140.45827156310648 194.93947003373506 15.453008245294564
endloop
endfacet
facet normal -4.899909065965741e-06 -8.562742466233324e-07 -0.999999999987629
outer loop
vertex 144.65961174213325 128.42769904346287 15.451721124020475
vertex 140.45827156310648 194.93947003373506 15.453008245294564
vertex 140.50938282367167 195.32769860138384 15.453007662423909
endloop
endfacet
endsolid Scrapper V1
