<?xml version="1.0" encoding="UTF-8"?>
<!DOCTYPE svg PUBLIC "-//W3C//DTD SVG 1.1//EN" "http://www.w3.org/Graphics/SVG/1.1/DTD/svg11.dtd">
<!-- Creator: CorelDRAW 2018 (64-Bit Evaluation Version) -->
<svg xmlns="http://www.w3.org/2000/svg" xml:space="preserve" width="210mm" height="331mm" version="1.1" style="shape-rendering:geometricPrecision; text-rendering:geometricPrecision; image-rendering:optimizeQuality; fill-rule:evenodd; clip-rule:evenodd"
viewBox="0 0 210 331"
 xmlns:xlink="http://www.w3.org/1999/xlink">
 <defs>
  <style type="text/css">
   <![CDATA[
    .str0 {stroke:black;stroke-width:0.0762;stroke-linejoin:bevel;stroke-miterlimit:22.9256}
    .fil0 {fill:none}
   ]]>
  </style>
 </defs>
 <g id="Visible">
  <metadata id="CorelCorpID_0Corel-Layer"/>
  <path class="fil0 str0" d="M108.0058 219.959c0,0 0,96 0,96"/>
  <path class="fil0 str0" d="M133.0058 216.959c0,0 -15,0 -15,0"/>
  <path class="fil0 str0" d="M133.0058 219.959c0,0 0,-3 0,-3"/>
  <path class="fil0 str0" d="M108.0058 315.959c0,1.0608 0.4214,2.0783 1.1716,2.8284 0.7501,0.7501 1.7675,1.1716 2.8284,1.1716"/>
  <path class="fil0 str0" d="M112.0058 319.959c0,0 1,0 1,0"/>
  <path class="fil0 str0" d="M113.0058 319.959c0,0 0,-50 0,-50"/>
  <path class="fil0 str0" d="M113.0058 269.959c0,0 3,0 3,0"/>
  <path class="fil0 str0" d="M116.0058 269.959c0,0 0,50 0,50"/>
  <path class="fil0 str0" d="M116.0058 319.959c0,0 84,0 84,0"/>
  <path class="fil0 str0" d="M200.0058 319.959c0,0 0,-50 0,-50"/>
  <path class="fil0 str0" d="M200.0058 269.959c0,0 3,0 3,0"/>
  <path class="fil0 str0" d="M203.0058 269.959c0,0 0,50 0,50"/>
  <path class="fil0 str0" d="M203.0058 319.959c0,0 1,0 1,0"/>
  <path class="fil0 str0" d="M204.0058 319.959c2.2091,0 4,-1.7909 4,-4"/>
  <path class="fil0 str0" d="M208.0058 315.959c0,0 0,-96 0,-96"/>
  <path class="fil0 str0" d="M208.0058 219.959c0,0 -10,0 -10,0"/>
  <path class="fil0 str0" d="M198.0058 219.959c0,0 0,-3 0,-3"/>
  <path class="fil0 str0" d="M198.0058 216.959c0,0 -15,0 -15,0"/>
  <path class="fil0 str0" d="M183.0058 216.959c0,0 0,3 0,3"/>
  <path class="fil0 str0" d="M183.0058 219.959c0,0 -50,0 -50,0"/>
  <path class="fil0 str0" d="M118.0058 216.959c0,0 0,3 0,3"/>
  <path class="fil0 str0" d="M118.0058 219.959c0,0 -10,0 -10,0"/>
  <path class="fil0 str0" d="M1.4141 319.0006c0,0 0,-96 0,-96"/>
  <path class="fil0 str0" d="M28.4141 220.0006c0,0 -15,0 -15,0"/>
  <path class="fil0 str0" d="M13.4141 220.0006c0,0 0,3 0,3"/>
  <path class="fil0 str0" d="M1.4141 319.0006c0,1.0608 0.4214,2.0783 1.1716,2.8284 0.7501,0.7502 1.7675,1.1716 2.8284,1.1716"/>
  <path class="fil0 str0" d="M95.6046 323.0006c0,0 -90.1905,0 -90.1905,0"/>
  <path class="fil0 str0" d="M95.6046 323.0006c-0.6413,2.4839 0.3675,5.1008 2.5103,6.5115 2.1427,1.4106 4.9453,1.3029 6.9734,-0.2681 2.0282,-1.571 2.8331,-4.2576 2.003,-6.685 -0.8302,-2.4274 -3.1118,-4.0584 -5.6772,-4.0584"/>
  <path class="fil0 str0" d="M101.4141 223.0006c0,0 0,95.5 0,95.5"/>
  <path class="fil0 str0" d="M101.4141 223.0006c0,0 -5,0 -5,0"/>
  <path class="fil0 str0" d="M96.4141 223.0006c0,0 0,50 0,50"/>
  <path class="fil0 str0" d="M96.4141 273.0006c0,0 -3,0 -3,0"/>
  <path class="fil0 str0" d="M93.4141 273.0006c0,0 0,-50 0,-50"/>
  <path class="fil0 str0" d="M93.4141 223.0006c0,0 -4,0 -4,0"/>
  <path class="fil0 str0" d="M89.4141 220.0006c0,0 0,3 0,3"/>
  <path class="fil0 str0" d="M74.4141 220.0006c0,0 15,0 15,0"/>
  <path class="fil0 str0" d="M74.4141 223.0006c0,0 0,-3 0,-3"/>
  <path class="fil0 str0" d="M28.4141 223.0006c0,0 46,0 46,0"/>
  <path class="fil0 str0" d="M28.4141 223.0006c0,0 0,-3 0,-3"/>
  <path class="fil0 str0" d="M9.4141 223.0006c0,0 4,0 4,0"/>
  <path class="fil0 str0" d="M9.4141 273.0006c0,0 0,-50 0,-50"/>
  <path class="fil0 str0" d="M6.4141 273.0006c0,0 3,0 3,0"/>
  <path class="fil0 str0" d="M6.4141 223.0006c0,0 0,50 0,50"/>
  <path class="fil0 str0" d="M1.4141 223.0006c0,0 5,0 5,0"/>
  <path class="fil0 str0" d="M103.578 324.5006c0,-1.1951 -0.9688,-2.164 -2.1639,-2.164 -1.1951,0 -2.1639,0.9689 -2.1639,2.164 0,1.1951 0.9688,2.1639 2.1639,2.1639 1.1951,0 2.1639,-0.9688 2.1639,-2.1639z"/>
  <path class="fil0 str0" d="M95.6046 114.0006c0,0 -90.1905,0 -90.1905,0"/>
  <path class="fil0 str0" d="M1.4141 118.0006c0,0 0,96 0,96"/>
  <path class="fil0 str0" d="M5.4141 114.0006c-1.0609,0 -2.0783,0.4214 -2.8284,1.1716 -0.7502,0.7501 -1.1716,1.7675 -1.1716,2.8284"/>
  <path class="fil0 str0" d="M1.4141 214.0006c0,0 5,0 5,0"/>
  <path class="fil0 str0" d="M6.4141 214.0006c0,0 0,-50 0,-50"/>
  <path class="fil0 str0" d="M6.4141 164.0006c0,0 3,0 3,0"/>
  <path class="fil0 str0" d="M9.4141 164.0006c0,0 0,50 0,50"/>
  <path class="fil0 str0" d="M9.4141 214.0006c0,0 4,0 4,0"/>
  <path class="fil0 str0" d="M13.4141 217.0006c0,0 0,-3 0,-3"/>
  <path class="fil0 str0" d="M28.4141 217.0006c0,0 -15,0 -15,0"/>
  <path class="fil0 str0" d="M28.4141 214.0006c0,0 0,3 0,3"/>
  <path class="fil0 str0" d="M28.4141 214.0006c0,0 46,0 46,0"/>
  <path class="fil0 str0" d="M74.4141 214.0006c0,0 0,3 0,3"/>
  <path class="fil0 str0" d="M74.4141 217.0006c0,0 15,0 15,0"/>
  <path class="fil0 str0" d="M89.4141 217.0006c0,0 0,-3 0,-3"/>
  <path class="fil0 str0" d="M93.4141 214.0006c0,0 -4,0 -4,0"/>
  <path class="fil0 str0" d="M93.4141 164.0006c0,0 0,50 0,50"/>
  <path class="fil0 str0" d="M96.4141 164.0006c0,0 -3,0 -3,0"/>
  <path class="fil0 str0" d="M96.4141 214.0006c0,0 0,-50 0,-50"/>
  <path class="fil0 str0" d="M101.4141 214.0006c0,0 -5,0 -5,0"/>
  <path class="fil0 str0" d="M101.4141 214.0006c0,0 0,-95.5 0,-95.5"/>
  <path class="fil0 str0" d="M101.4141 118.5006c2.5654,0 4.847,-1.6311 5.6772,-4.0584 0.8301,-2.4274 0.0252,-5.114 -2.003,-6.685 -2.0281,-1.571 -4.8306,-1.6788 -6.9734,-0.2681 -2.1428,1.4106 -3.1516,4.0275 -2.5103,6.5114"/>
  <path class="fil0 str0" d="M103.578 112.5006c0,-1.1951 -0.9688,-2.164 -2.1639,-2.164 -1.1951,0 -2.1639,0.9689 -2.1639,2.164 0,1.1951 0.9688,2.1639 2.1639,2.1639 1.1951,0 2.1639,-0.9688 2.1639,-2.1639z"/>
  <path class="fil0 str0" d="M112.0058 9.9361c0,0 92,0 92,0"/>
  <path class="fil0 str0" d="M208.0058 13.9361c0,0 0,92.1229 0,92.1229"/>
  <path class="fil0 str0" d="M113.0058 22.059c0,0 0,15 0,15"/>
  <path class="fil0 str0" d="M116.0058 22.059c0,0 -3,0 -3,0"/>
  <path class="fil0 str0" d="M116.0058 37.059c0,0 0,-15 0,-15"/>
  <path class="fil0 str0" d="M113.0058 37.059c0,0 3,0 3,0"/>
  <path class="fil0 str0" d="M200.0058 37.059c0,0 3,0 3,0"/>
  <path class="fil0 str0" d="M200.0058 22.059c0,0 0,15 0,15"/>
  <path class="fil0 str0" d="M203.0058 22.059c0,0 -3,0 -3,0"/>
  <path class="fil0 str0" d="M203.0058 37.059c0,0 0,-15 0,-15"/>
  <path class="fil0 str0" d="M200.0058 98.059c0,0 3,0 3,0"/>
  <path class="fil0 str0" d="M200.0058 83.059c0,0 0,15 0,15"/>
  <path class="fil0 str0" d="M203.0058 83.059c0,0 -3,0 -3,0"/>
  <path class="fil0 str0" d="M203.0058 98.059c0,0 0,-15 0,-15"/>
  <path class="fil0 str0" d="M183.0058 105.059c0,0 15,0 15,0"/>
  <path class="fil0 str0" d="M183.0058 102.059c0,0 0,3 0,3"/>
  <path class="fil0 str0" d="M198.0058 102.059c0,0 -15,0 -15,0"/>
  <path class="fil0 str0" d="M198.0058 105.059c0,0 0,-3 0,-3"/>
  <path class="fil0 str0" d="M113.0058 98.059c0,0 3,0 3,0"/>
  <path class="fil0 str0" d="M113.0058 83.059c0,0 0,15 0,15"/>
  <path class="fil0 str0" d="M116.0058 83.059c0,0 -3,0 -3,0"/>
  <path class="fil0 str0" d="M116.0058 98.059c0,0 0,-15 0,-15"/>
  <path class="fil0 str0" d="M118.0058 105.059c0,0 15,0 15,0"/>
  <path class="fil0 str0" d="M118.0058 102.059c0,0 0,3 0,3"/>
  <path class="fil0 str0" d="M133.0058 102.059c0,0 -15,0 -15,0"/>
  <path class="fil0 str0" d="M133.0058 105.059c0,0 0,-3 0,-3"/>
  <path class="fil0 str0" d="M118.0058 17.939c0,0 15,0 15,0"/>
  <path class="fil0 str0" d="M118.0058 14.939c0,0 0,3 0,3"/>
  <path class="fil0 str0" d="M133.0058 14.939c0,0 -15,0 -15,0"/>
  <path class="fil0 str0" d="M133.0058 17.939c0,0 0,-3 0,-3"/>
  <path class="fil0 str0" d="M183.0058 17.939c0,0 15,0 15,0"/>
  <path class="fil0 str0" d="M183.0058 14.939c0,0 0,3 0,3"/>
  <path class="fil0 str0" d="M198.0058 14.939c0,0 -15,0 -15,0"/>
  <path class="fil0 str0" d="M198.0058 17.939c0,0 0,-3 0,-3"/>
  <path class="fil0 str0" d="M112.0058 9.9361c-1.0609,0 -2.0783,0.4214 -2.8284,1.1715 -0.7502,0.7502 -1.1716,1.7676 -1.1716,2.8285"/>
  <path class="fil0 str0" d="M108.0058 106.059c0,0 0,-92.1229 0,-92.1229"/>
  <path class="fil0 str0" d="M108.0058 106.059c0,1.0608 0.4214,2.0783 1.1716,2.8284 0.7501,0.7501 1.7675,1.1716 2.8284,1.1716"/>
  <path class="fil0 str0" d="M204.0058 110.059c0,0 -92,0 -92,0"/>
  <path class="fil0 str0" d="M204.0058 110.059c2.2091,0 4,-1.7909 4,-4"/>
  <path class="fil0 str0" d="M208.0058 13.9361c0,-1.0609 -0.4214,-2.0783 -1.1716,-2.8285 -0.7501,-0.7501 -1.7675,-1.1715 -2.8284,-1.1715"/>
  <path class="fil0 str0" d="M112.0058 113.059c-1.0609,0 -2.0783,0.4214 -2.8284,1.1715 -0.7502,0.7502 -1.1716,1.7676 -1.1716,2.8285"/>
  <path class="fil0 str0" d="M108.0058 117.059c0,0 0,83.5 0,83.5"/>
  <path class="fil0 str0" d="M108.0058 200.559c0,1.0608 0.4214,2.0783 1.1716,2.8284 0.7501,0.7501 1.7675,1.1716 2.8284,1.1716"/>
  <path class="fil0 str0" d="M112.0058 204.559c0,0 4.215,0 4.215,0"/>
  <path class="fil0 str0" d="M116.2208 204.559c0,0 0,6.6 0,6.6"/>
  <path class="fil0 str0" d="M116.2208 211.159c0,0 -3.215,0 -3.215,0"/>
  <path class="fil0 str0" d="M113.0058 211.159c0,0 0,2.8 0,2.8"/>
  <path class="fil0 str0" d="M113.0058 213.959c0,0 90,0 90,0"/>
  <path class="fil0 str0" d="M203.0058 213.959c0,0 0,-2.8 0,-2.8"/>
  <path class="fil0 str0" d="M203.0058 211.159c0,0 -3.2153,0 -3.2153,0"/>
  <path class="fil0 str0" d="M199.7905 211.159c0,0 0,-6.6 0,-6.6"/>
  <path class="fil0 str0" d="M199.7905 204.559c0,0 4.2153,0 4.2153,0"/>
  <path class="fil0 str0" d="M204.0058 204.559c2.2091,0 4,-1.7909 4,-4"/>
  <path class="fil0 str0" d="M208.0058 200.559c0,0 0,-83.5 0,-83.5"/>
  <path class="fil0 str0" d="M208.0058 117.059c0,-1.0609 -0.4214,-2.0783 -1.1716,-2.8285 -0.7501,-0.7501 -1.7675,-1.1715 -2.8284,-1.1715"/>
  <path class="fil0 str0" d="M204.0058 113.059c0,0 -92,0 -92,0"/>
  <path class="fil0 str0" d="M1.4141 3.5006c0,0 0,96 0,96"/>
  <path class="fil0 str0" d="M11.4141 0.5006c0,0 15,0 15,0"/>
  <path class="fil0 str0" d="M26.4141 0.5006c0,0 0,3 0,3"/>
  <path class="fil0 str0" d="M1.4141 99.5006c0,1.0608 0.4214,2.0783 1.1716,2.8284 0.7501,0.7501 1.7675,1.1716 2.8284,1.1716"/>
  <path class="fil0 str0" d="M5.4141 103.5006c0,0 1,0 1,0"/>
  <path class="fil0 str0" d="M6.4141 103.5006c0,0 0,-50 0,-50"/>
  <path class="fil0 str0" d="M6.4141 53.5006c0,0 3,0 3,0"/>
  <path class="fil0 str0" d="M9.4141 53.5006c0,0 0,50 0,50"/>
  <path class="fil0 str0" d="M93.4141 103.5006c0,0 -84,0 -84,0"/>
  <path class="fil0 str0" d="M93.4141 53.5006c0,0 0,50 0,50"/>
  <path class="fil0 str0" d="M96.4141 53.5006c0,0 -3,0 -3,0"/>
  <path class="fil0 str0" d="M96.4141 103.5006c0,0 0,-50 0,-50"/>
  <path class="fil0 str0" d="M97.4141 103.5006c0,0 -1,0 -1,0"/>
  <path class="fil0 str0" d="M97.4141 103.5006c2.2091,0 4,-1.7909 4,-4"/>
  <path class="fil0 str0" d="M101.4141 3.5006c0,0 0,96 0,96"/>
  <path class="fil0 str0" d="M91.4141 3.5006c0,0 10,0 10,0"/>
  <path class="fil0 str0" d="M91.4141 3.5006c0,0 0,-3 0,-3"/>
  <path class="fil0 str0" d="M91.4141 0.5006c0,0 -15,0 -15,0"/>
  <path class="fil0 str0" d="M76.4141 0.5006c0,0 0,3 0,3"/>
  <path class="fil0 str0" d="M26.4141 3.5006c0,0 50,0 50,0"/>
  <path class="fil0 str0" d="M11.4141 3.5006c0,0 0,-3 0,-3"/>
  <path class="fil0 str0" d="M1.4141 3.5006c0,0 10,0 10,0"/>
 </g>
</svg>
